<svg xmlns="http://www.w3.org/2000/svg" width="180" height="180" viewBox="0 0 231.412 231.412">
  <g id="button" transform="translate(0 0)">
    <g id="Vektor-Smartobjekt" transform="translate(-1389.42 -240.794)">
      <g id="Vektor-Smartobjekt-2" data-name="Vektor-Smartobjekt" transform="translate(1437.158 240.794) rotate(14.569)">
        <g id="Vektor-Smartobjekt-3" data-name="Vektor-Smartobjekt" transform="translate(-782.24 -416.856)">
          <path id="Pfad_1" data-name="Pfad 1" d="M972.016,511.744c0,5.847-15.09,10.138-16.183,15.665-1.126,5.694,11.153,15.419,8.98,20.658-2.21,5.331-17.791,3.512-20.963,8.25-3.2,4.774,4.421,18.475.373,22.523s-17.749-3.57-22.523-.373c-4.738,3.172-2.919,18.752-8.25,20.963-5.239,2.172-14.964-10.107-20.658-8.98-5.526,1.093-9.818,16.183-15.665,16.183s-10.138-15.09-15.664-16.183c-5.694-1.127-15.419,11.153-20.659,8.98-5.331-2.211-3.512-17.791-8.25-20.963-4.774-3.2-18.476,4.421-22.523.373s3.569-17.749.373-22.523c-3.172-4.738-18.752-2.919-20.963-8.25-2.172-5.239,10.107-14.964,8.981-20.658-1.093-5.527-16.183-9.818-16.183-15.665s15.09-10.138,16.183-15.665c1.126-5.694-11.153-15.419-8.98-20.658,2.21-5.33,17.791-3.512,20.963-8.25,3.2-4.774-4.421-18.475-.373-22.523s17.748,3.57,22.523.373c4.738-3.172,2.92-18.752,8.25-20.963,5.239-2.172,14.964,10.107,20.658,8.98,5.526-1.093,9.818-16.183,15.664-16.183s10.139,15.09,15.665,16.183c5.695,1.127,15.419-11.153,20.658-8.98,5.331,2.211,3.512,17.791,8.25,20.963,4.774,3.2,18.475-4.421,22.523-.373s-3.57,17.749-.373,22.523c3.172,4.738,18.752,2.919,20.963,8.25,2.172,5.239-10.107,14.964-8.98,20.658C956.927,501.606,972.016,505.9,972.016,511.744Z" fill="#f16624"/>
        </g>
      </g>
      <path id="Color_Overlay" data-name="Color Overlay" d="M1509.084,443.583c-2.9-3.4-5.808-6.8-8.6-6.968-2.7-.16-5.938,2.876-9.2,5.913-3.53,3.286-7.09,6.573-10.031,5.809-5.658-1.471-6.016-17.155-11.091-19.6-2.516-1.215-6.716.341-10.9,1.9-4.513,1.682-9.005,3.368-11.353,1.594-4.6-3.481,1.076-18.1-2.711-22.365-1.836-2.066-6.3-2.229-10.764-2.392-4.814-.176-9.625-.351-11.129-2.912-2.9-4.936,7.919-16.28,6.027-21.705-1.879-5.383-17.415-7.542-18.214-13.258-.785-5.616,13.547-11.939,13.889-17.734.331-5.624-13.193-13.573-11.723-19.232s17.154-6.017,19.6-11.09c2.523-5.228-6.916-17.729-3.495-22.253,1.812-2.4,6.643-2.006,11.461-1.616,4.436.36,8.859.719,10.9-1.1,4.294-3.817.368-18.993,5.3-21.893,2.561-1.506,6.848.684,11.138,2.875,3.977,2.03,7.957,4.062,10.566,3.152,5.385-1.878,7.543-17.414,13.259-18.212,2.913-.409,6.016,3.253,9.139,6.918,2.9,3.4,5.807,6.8,8.6,6.97,2.7.159,5.937-2.877,9.2-5.915,3.53-3.286,7.09-6.573,10.031-5.808,5.659,1.471,6.016,17.156,11.09,19.6,2.516,1.214,6.717-.342,10.9-1.9,4.512-1.681,9.005-3.368,11.353-1.593,4.6,3.48-1.076,18.1,2.712,22.364,1.837,2.065,6.3,2.229,10.764,2.392,4.813.176,9.625.35,11.129,2.911,2.9,4.937-7.92,16.28-6.027,21.705,1.877,5.385,17.415,7.543,18.213,13.259.784,5.616-13.546,11.939-13.889,17.734-.332,5.625,13.193,13.573,11.723,19.232s-17.155,6.017-19.6,11.091c-2.522,5.228,6.916,17.728,3.5,22.253-1.813,2.4-6.645,2.005-11.462,1.615-4.436-.359-8.86-.719-10.9,1.1-4.295,3.817-.369,18.994-5.306,21.893-2.561,1.5-6.849-.686-11.138-2.876-3.977-2.03-7.957-4.062-10.567-3.151-5.383,1.877-7.542,17.415-13.257,18.213a3.264,3.264,0,0,1-.45.031C1514.99,450.535,1512.044,447.062,1509.084,443.583Z" fill="#00a5e6"/>
      <g id="Stroke_Effect" data-name="Stroke Effect" fill="none" stroke-linejoin="round">
        <path d="M1509.084,443.583c-2.9-3.4-5.808-6.8-8.6-6.968-2.7-.16-5.938,2.876-9.2,5.913-3.53,3.286-7.09,6.573-10.031,5.809-5.658-1.471-6.016-17.155-11.091-19.6-2.516-1.215-6.716.341-10.9,1.9-4.513,1.682-9.005,3.368-11.353,1.594-4.6-3.481,1.076-18.1-2.711-22.365-1.836-2.066-6.3-2.229-10.764-2.392-4.814-.176-9.625-.351-11.129-2.912-2.9-4.936,7.919-16.28,6.027-21.705-1.879-5.383-17.415-7.542-18.214-13.258-.785-5.616,13.547-11.939,13.889-17.734.331-5.624-13.193-13.573-11.723-19.232s17.154-6.017,19.6-11.09c2.523-5.228-6.916-17.729-3.495-22.253,1.812-2.4,6.643-2.006,11.461-1.616,4.436.36,8.859.719,10.9-1.1,4.294-3.817.368-18.993,5.3-21.893,2.561-1.506,6.848.684,11.138,2.875,3.977,2.03,7.957,4.062,10.566,3.152,5.385-1.878,7.543-17.414,13.259-18.212,2.913-.409,6.016,3.253,9.139,6.918,2.9,3.4,5.807,6.8,8.6,6.97,2.7.159,5.937-2.877,9.2-5.915,3.53-3.286,7.09-6.573,10.031-5.808,5.659,1.471,6.016,17.156,11.09,19.6,2.516,1.214,6.717-.342,10.9-1.9,4.512-1.681,9.005-3.368,11.353-1.593,4.6,3.48-1.076,18.1,2.712,22.364,1.837,2.065,6.3,2.229,10.764,2.392,4.813.176,9.625.35,11.129,2.911,2.9,4.937-7.92,16.28-6.027,21.705,1.877,5.385,17.415,7.543,18.213,13.259.784,5.616-13.546,11.939-13.889,17.734-.332,5.625,13.193,13.573,11.723,19.232s-17.155,6.017-19.6,11.091c-2.522,5.228,6.916,17.728,3.5,22.253-1.813,2.4-6.645,2.005-11.462,1.615-4.436-.359-8.86-.719-10.9,1.1-4.295,3.817-.369,18.994-5.306,21.893-2.561,1.5-6.849-.686-11.138-2.876-3.977-2.03-7.957-4.062-10.567-3.151-5.383,1.877-7.542,17.415-13.257,18.213a3.264,3.264,0,0,1-.45.031C1514.99,450.535,1512.044,447.062,1509.084,443.583Z" stroke="none"/>
        <path d="M 1517.773193359375 450.5341491699219 C 1517.923583984375 450.5341186523438 1518.074096679688 450.5239562988281 1518.223510742188 450.5031127929688 C 1523.9384765625 449.7048034667969 1526.09765625 434.1672058105469 1531.480590820312 432.2898254394531 C 1534.089965820312 431.3788757324219 1538.070190429688 433.4102783203125 1542.047485351562 435.4407043457031 C 1546.336791992188 437.6312866210938 1550.624145507812 439.8211669921875 1553.185791015625 438.3171081542969 C 1558.122314453125 435.4172973632812 1554.196533203125 420.2406005859375 1558.491333007812 416.4237060546875 C 1560.533569335938 414.6075134277344 1564.95703125 414.967529296875 1569.39306640625 415.3265991210938 C 1574.210815429688 415.71728515625 1579.042846679688 416.1087036132812 1580.85546875 413.7120056152344 C 1584.274536132812 409.1877136230469 1574.837158203125 396.6876220703125 1577.35888671875 391.4595031738281 C 1579.807861328125 386.3853149414062 1595.4921875 386.0280151367188 1596.962768554688 380.3688049316406 C 1598.433349609375 374.7095947265625 1584.908081054688 366.76171875 1585.240234375 361.13671875 C 1585.583129882812 355.3424987792969 1599.912963867188 349.0191040039062 1599.129028320312 343.4031066894531 C 1598.330688476562 337.6871948242188 1582.793090820312 335.5290222167969 1580.915771484375 330.1443176269531 C 1579.023071289062 324.7191162109375 1589.842895507812 313.3755187988281 1586.942993164062 308.4389953613281 C 1585.438232421875 305.8775939941406 1580.626831054688 305.7030029296875 1575.813598632812 305.5274963378906 C 1571.3505859375 305.3645935058594 1566.886596679688 305.2008056640625 1565.049682617188 303.1353149414062 C 1561.261596679688 298.8738098144531 1566.94140625 284.2514953613281 1562.337890625 280.7712097167969 C 1559.990966796875 278.99658203125 1555.497314453125 280.6829528808594 1550.9853515625 282.3641967773438 C 1546.801391601562 283.9238586425781 1542.601196289062 285.4801330566406 1540.084594726562 284.2658996582031 C 1535.01123046875 281.8188171386719 1534.653930664062 266.1336059570312 1528.994750976562 264.6629943847656 C 1526.053466796875 263.8979797363281 1522.4931640625 267.1848449707031 1518.96337890625 270.470703125 C 1515.700927734375 273.5082092285156 1512.462524414062 276.544189453125 1509.763549804688 276.385498046875 C 1506.974487304688 276.2199096679688 1504.06298828125 272.8161010742188 1501.167602539062 269.4159240722656 C 1498.045654296875 265.7503051757812 1494.943359375 262.0893859863281 1492.029052734375 262.4976196289062 C 1486.313110351562 263.2958984375 1484.154907226562 278.8316955566406 1478.770263671875 280.7100219726562 C 1476.161499023438 281.6200866699219 1472.181396484375 279.5885620117188 1468.204223632812 277.5581970214844 C 1463.913940429688 275.3676452636719 1459.627685546875 273.1778869628906 1457.065795898438 274.68359375 C 1452.12939453125 277.5834045410156 1456.05517578125 292.7592163085938 1451.76123046875 296.5761108398438 C 1449.717163085938 298.3914489746094 1445.293579101562 298.0322875976562 1440.857788085938 297.6723022460938 C 1436.0400390625 297.2816772460938 1431.208862304688 296.89111328125 1429.397094726562 299.2878112792969 C 1425.976196289062 303.8121032714844 1435.41455078125 316.3131103515625 1432.891845703125 321.5411987304688 C 1430.442993164062 326.614501953125 1414.759521484375 326.9718017578125 1413.288940429688 332.6310119628906 C 1411.818359375 338.2902221679688 1425.342651367188 346.239013671875 1425.011474609375 351.8630981445312 C 1424.66943359375 357.6573181152344 1410.337890625 363.980712890625 1411.122680664062 369.5967102050781 C 1411.921875 375.3126220703125 1427.457641601562 377.4717102050781 1429.336791992188 382.8546142578125 C 1431.228637695312 388.2798156738281 1420.409790039062 399.6242980957031 1423.3095703125 404.5599060058594 C 1424.8134765625 407.1213073730469 1429.624877929688 407.2958984375 1434.43896484375 407.4723205566406 C 1438.901123046875 407.6352233886719 1443.366943359375 407.798095703125 1445.202880859375 409.864501953125 C 1448.990112304688 414.1269226074219 1443.310180664062 428.7483215332031 1447.913696289062 432.2295227050781 C 1450.260986328125 434.0034484863281 1454.753784179688 432.3177795410156 1459.266357421875 430.6356201171875 C 1463.450439453125 429.0758972167969 1467.651000976562 427.5199279785156 1470.166259765625 428.7348022460938 C 1475.240478515625 431.1819152832031 1475.5986328125 446.8662109375 1481.256958007812 448.3368225097656 C 1484.196899414062 449.1009826660156 1487.757690429688 445.8141174316406 1491.287475585938 442.5282287597656 C 1494.549926757812 439.4916076660156 1497.7890625 436.4549255371094 1500.488159179688 436.6152038574219 C 1503.2763671875 436.7790222167969 1506.186889648438 440.1828002929688 1509.083984375 443.5830078125 C 1512.044311523438 447.0616455078125 1514.989624023438 450.5345764160156 1517.773193359375 450.5341491699219 M 1517.774047851562 455.5341491699219 C 1517.774047851562 455.5341491699219 1517.774047851562 455.5341491699219 1517.77392578125 455.5341491699219 C 1515.24462890625 455.5345458984375 1512.76025390625 454.4129333496094 1510.178588867188 452.105224609375 C 1508.475219726562 450.5826721191406 1506.865356445312 448.69091796875 1505.308471679688 446.8614501953125 L 1505.276123046875 446.823486328125 C 1504.117553710938 445.4635925292969 1502.917358398438 444.0550537109375 1501.8232421875 442.9973754882812 C 1501.01220703125 442.2135314941406 1500.493530273438 441.8525695800781 1500.2197265625 441.6924743652344 C 1499.934326171875 441.8253479003906 1499.396240234375 442.1263732910156 1498.537719726562 442.791259765625 C 1497.38037109375 443.6876220703125 1496.116577148438 444.864013671875 1494.778564453125 446.1094665527344 L 1494.694091796875 446.1881713867188 C 1490.85986328125 449.7574768066406 1486.894775390625 453.4485168457031 1482.150146484375 453.4486083984375 C 1481.418823242188 453.4486083984375 1480.695190429688 453.3569030761719 1479.999389648438 453.1760864257812 C 1478.370727539062 452.7528076171875 1476.90478515625 451.8575439453125 1475.64208984375 450.5151672363281 C 1474.763305664062 449.5808715820312 1473.985229492188 448.43505859375 1473.26318359375 447.01220703125 C 1472.150390625 444.8195495605469 1471.327026367188 442.2723999023438 1470.53076171875 439.8091125488281 C 1469.968505859375 438.0694885253906 1469.437377929688 436.4263305664062 1468.86279296875 435.0795593261719 C 1468.436645507812 434.0806274414062 1468.113159179688 433.5555419921875 1467.928466796875 433.3003540039062 C 1466.362060546875 433.32666015625 1463.399169921875 434.4311218261719 1461.012817382812 435.3206787109375 L 1460.958740234375 435.3408508300781 C 1457.471069335938 436.6409301757812 1453.864624023438 437.9853210449219 1450.569458007812 437.9854736328125 C 1448.358520507812 437.9855651855469 1446.45068359375 437.39111328125 1444.899047851562 436.218505859375 C 1443.562866210938 435.2080688476562 1442.558959960938 433.8254089355469 1441.913940429688 432.1080627441406 C 1441.467407226562 430.9188537597656 1441.192749023438 429.5737609863281 1441.074462890625 427.9959411621094 C 1440.892578125 425.5685729980469 1441.107543945312 422.9183654785156 1441.3154296875 420.3554077148438 C 1441.465454101562 418.5063171386719 1441.607177734375 416.759765625 1441.58984375 415.2723388671875 C 1441.576904296875 414.1609191894531 1441.473510742188 413.5431823730469 1441.397583007812 413.23583984375 C 1441.10107421875 413.1224060058594 1440.495727539062 412.9432067871094 1439.380493164062 412.7969360351562 C 1437.892333984375 412.6017150878906 1436.126708984375 412.5372619628906 1434.257446289062 412.4690246582031 L 1434.24609375 412.4685974121094 C 1431.690795898438 412.3749694824219 1429.048706054688 412.2781677246094 1426.677001953125 411.8182678222656 C 1425.133911132812 411.5190124511719 1423.838623046875 411.0930480957031 1422.717041015625 410.5160522460938 C 1421.092651367188 409.6802978515625 1419.84130859375 408.5281372070312 1418.997802734375 407.0915222167969 C 1418.154418945312 405.6559753417969 1417.757446289062 404.0014953613281 1417.818725585938 402.1752014160156 C 1417.861083984375 400.9142150878906 1418.119995117188 399.574951171875 1418.610473632812 398.0808410644531 C 1419.3642578125 395.7844543457031 1420.567016601562 393.4286804199219 1421.730224609375 391.1504516601562 C 1422.581420898438 389.4834594726562 1423.385375976562 387.9088745117188 1423.939819335938 386.5130615234375 C 1424.355224609375 385.4674377441406 1424.493530273438 384.8511657714844 1424.538940429688 384.53662109375 C 1424.307250976562 384.320556640625 1423.818115234375 383.9296264648438 1422.854248046875 383.3775024414062 C 1421.563598632812 382.6380615234375 1419.969116210938 381.911376953125 1418.281127929688 381.1420288085938 C 1415.941284179688 380.0755920410156 1413.521850585938 378.9728393554688 1411.490234375 377.6318969726562 C 1410.169799804688 376.7602844238281 1409.128662109375 375.865478515625 1408.307373046875 374.8963012695312 C 1407.121459960938 373.4967651367188 1406.402587890625 371.9466857910156 1406.1708984375 370.2890625 C 1405.941040039062 368.6444396972656 1406.20751953125 366.970703125 1406.962768554688 365.3139953613281 C 1407.482421875 364.1741333007812 1408.230834960938 363.0446472167969 1409.25048828125 361.861083984375 C 1410.8154296875 360.0447082519531 1412.81787109375 358.3395690917969 1414.754272460938 356.6905822753906 C 1416.1953125 355.4635314941406 1417.556396484375 354.3045043945312 1418.614013671875 353.2129211425781 C 1419.407470703125 352.39404296875 1419.772094726562 351.8708190917969 1419.93359375 351.5949401855469 C 1419.800415039062 351.3091125488281 1419.499145507812 350.7711486816406 1418.834838867188 349.9134521484375 C 1417.938232421875 348.7557983398438 1416.761474609375 347.4917602539062 1415.515747070312 346.1535339355469 C 1413.751586914062 344.2584838867188 1411.927490234375 342.2989501953125 1410.553955078125 340.2591247558594 C 1409.66259765625 338.9355163574219 1409.040649414062 337.6977844238281 1408.65234375 336.4751281738281 C 1408.094604492188 334.7185974121094 1408.026489257812 333.0021667480469 1408.44970703125 331.3735046386719 C 1408.872924804688 329.7447204589844 1409.768188476562 328.278564453125 1411.110717773438 327.0157775878906 C 1412.045043945312 326.1368408203125 1413.191040039062 325.3585510253906 1414.614135742188 324.6364135742188 C 1416.80712890625 323.5235900878906 1419.354736328125 322.7002563476562 1421.818359375 321.904052734375 C 1423.557861328125 321.3418273925781 1425.201049804688 320.810791015625 1426.547729492188 320.2363586425781 C 1427.545532226562 319.8107604980469 1428.070556640625 319.4875793457031 1428.326049804688 319.3027954101562 C 1428.3193359375 318.9832458496094 1428.255737304688 318.3486633300781 1427.961547851562 317.2471618652344 C 1427.5693359375 315.7787170410156 1426.944946289062 314.1036376953125 1426.283935546875 312.3302001953125 C 1425.3955078125 309.9467468261719 1424.476928710938 307.4821472167969 1423.99462890625 305.1333923339844 C 1423.680297851562 303.6028747558594 1423.576782226562 302.2518310546875 1423.677978515625 301.0030517578125 C 1423.8251953125 299.1882019042969 1424.407470703125 297.5965576171875 1425.408813476562 296.2722473144531 C 1428.046142578125 292.7834167480469 1432.488647460938 292.3798828125 1435.600708007812 292.3798828125 C 1437.453002929688 292.3798828125 1439.389282226562 292.536865234375 1441.261840820312 292.6886596679688 C 1443.012817382812 292.8307495117188 1444.665649414062 292.9648742675781 1446.103149414062 292.9648742675781 C 1447.373901367188 292.9648742675781 1448.06005859375 292.8520812988281 1448.389526367188 292.7707824707031 C 1448.503051757812 292.4739685058594 1448.682250976562 291.8684387207031 1448.82861328125 290.7530822753906 C 1449.02392578125 289.2641296386719 1449.08837890625 287.4976501464844 1449.15673828125 285.62744140625 C 1449.25 283.0711669921875 1449.346557617188 280.4278564453125 1449.806396484375 278.0549621582031 C 1450.10546875 276.5111389160156 1450.531494140625 275.2152404785156 1451.108520507812 274.0932006835938 C 1451.944213867188 272.46826171875 1453.096557617188 271.2164001464844 1454.533325195312 270.3724365234375 C 1455.871948242188 269.5855407714844 1457.40478515625 269.1861877441406 1459.088134765625 269.1861877441406 C 1462.802612304688 269.1861877441406 1466.702026367188 271.1771240234375 1470.473022460938 273.1025390625 L 1470.477905273438 273.1050415039062 C 1472.079345703125 273.9225769042969 1473.592041015625 274.6948852539062 1474.94970703125 275.2474975585938 C 1476.093017578125 275.7128295898438 1476.75244140625 275.8644409179688 1477.0888671875 275.9123229980469 C 1477.304809570312 275.6809692382812 1477.696044921875 275.19189453125 1478.248779296875 274.2271728515625 C 1478.98828125 272.9364624023438 1479.715087890625 271.3419799804688 1480.484497070312 269.6538391113281 C 1481.550903320312 267.3143920898438 1482.653564453125 264.8952331542969 1483.994384765625 262.864013671875 C 1484.865966796875 261.5436401367188 1485.760864257812 260.5026245117188 1486.730102539062 259.6815185546875 C 1488.129638671875 258.4957885742188 1489.679809570312 257.7771911621094 1491.33740234375 257.5456848144531 C 1491.711791992188 257.4931640625 1492.097534179688 257.4663391113281 1492.480834960938 257.4663391113281 C 1495.0068359375 257.4663391113281 1497.488159179688 258.5860900878906 1500.066772460938 260.8896484375 C 1501.767822265625 262.4091796875 1503.3759765625 264.2974853515625 1504.931274414062 266.1235961914062 L 1504.97412109375 266.1739501953125 C 1506.133544921875 267.5354919433594 1507.332153320312 268.9430847167969 1508.42919921875 270.0033874511719 C 1509.238891601562 270.7859497070312 1509.757446289062 271.14697265625 1510.03173828125 271.3074340820312 C 1510.317749023438 271.174072265625 1510.85595703125 270.8725891113281 1511.713745117188 270.2079467773438 C 1512.871704101562 269.310791015625 1514.136108398438 268.133544921875 1515.474731445312 266.8871459960938 L 1515.556274414062 266.8112182617188 C 1519.390625 263.2417602539062 1523.355346679688 259.5509948730469 1528.1005859375 259.5509948730469 C 1528.83251953125 259.5509948730469 1529.556640625 259.642822265625 1530.253173828125 259.8239440917969 C 1531.881103515625 260.2469787597656 1533.34716796875 261.142333984375 1534.609985351562 262.4848937988281 C 1535.488891601562 263.4193115234375 1536.267211914062 264.5653381347656 1536.9892578125 265.9884033203125 C 1538.10205078125 268.1814270019531 1538.925415039062 270.7289733886719 1539.721557617188 273.192626953125 C 1540.28369140625 274.9320373535156 1540.814575195312 276.5749816894531 1541.389038085938 277.9216003417969 C 1541.814453125 278.9192810058594 1542.137573242188 279.4442749023438 1542.322387695312 279.6997985839844 C 1543.889526367188 279.6732482910156 1546.852416992188 278.5687255859375 1549.238891601562 277.6791381835938 L 1549.300903320312 277.656005859375 C 1552.785400390625 276.3575134277344 1556.388671875 275.0148315429688 1559.682006835938 275.0148315429688 C 1561.893798828125 275.0148315429688 1563.801879882812 275.6097412109375 1565.353515625 276.7830200195312 C 1566.688354492188 277.7921447753906 1567.692504882812 279.1747131347656 1568.337524414062 280.8920593261719 C 1568.7841796875 282.0811767578125 1569.058837890625 283.4261779785156 1569.177124023438 285.0039672851562 C 1569.359130859375 287.4311218261719 1569.144165039062 290.0812072753906 1568.936401367188 292.6440124511719 C 1568.786376953125 294.4930725097656 1568.644775390625 296.2395629882812 1568.662109375 297.7269592285156 C 1568.675170898438 298.8382568359375 1568.778564453125 299.4558715820312 1568.8544921875 299.7632751464844 C 1569.151000976562 299.8767700195312 1569.756225585938 300.0560913085938 1570.871215820312 300.2024841308594 C 1572.361328125 300.3981628417969 1574.126831054688 300.4626159667969 1575.995971679688 300.5308227539062 C 1578.556396484375 300.6241760253906 1581.19921875 300.7205505371094 1583.571899414062 301.18017578125 C 1585.115600585938 301.4792175292969 1586.411376953125 301.9050598144531 1587.533325195312 302.4819641113281 C 1589.158203125 303.3175354003906 1590.41015625 304.4696655273438 1591.254150390625 305.9063110351562 C 1592.09814453125 307.3432312011719 1592.4951171875 308.9977111816406 1592.433837890625 310.8239440917969 C 1592.391479492188 312.0849914550781 1592.132568359375 313.42431640625 1591.64208984375 314.9183959960938 C 1590.88818359375 317.21484375 1589.685302734375 319.570556640625 1588.522094726562 321.8487243652344 C 1587.6708984375 323.5155639648438 1586.867065429688 325.0899963378906 1586.3125 326.4856567382812 C 1585.896728515625 327.5324401855469 1585.758544921875 328.14892578125 1585.71337890625 328.4630737304688 C 1585.944580078125 328.6789855957031 1586.433715820312 329.0702514648438 1587.398803710938 329.6231689453125 C 1588.689575195312 330.3626403808594 1590.284057617188 331.08935546875 1591.97216796875 331.8587341308594 C 1594.311767578125 332.925048828125 1596.731079101562 334.0276794433594 1598.762329101562 335.3684692382812 C 1600.082763671875 336.2400512695312 1601.123779296875 337.1348571777344 1601.944946289062 338.1040344238281 C 1603.130737304688 339.5036010742188 1603.849487304688 341.0537719726562 1604.080932617188 342.7114562988281 C 1604.310546875 344.35595703125 1604.0439453125 346.0294799804688 1603.28857421875 347.68603515625 C 1602.768920898438 348.8258361816406 1602.020629882812 349.9552001953125 1601.0009765625 351.1387023925781 C 1599.436157226562 352.9550476074219 1597.433837890625 354.6601867675781 1595.497436523438 356.3092041015625 C 1594.056518554688 357.536376953125 1592.695434570312 358.6954956054688 1591.6376953125 359.7871704101562 C 1590.843994140625 360.6063232421875 1590.479370117188 361.1296691894531 1590.317993164062 361.4054870605469 C 1590.451049804688 361.6912841796875 1590.752319335938 362.2293395996094 1591.416870117188 363.0873107910156 C 1592.313598632812 364.2450256347656 1593.490356445312 365.5090942382812 1594.736328125 366.847412109375 C 1596.500366210938 368.7422485351562 1598.324340820312 370.7015686035156 1599.697875976562 372.7411499023438 C 1600.589111328125 374.0646667480469 1601.211181640625 375.3023376464844 1601.599365234375 376.5248718261719 C 1602.157104492188 378.2813110351562 1602.225219726562 379.9977111816406 1601.802001953125 381.6263122558594 C 1601.378784179688 383.2550659179688 1600.483520507812 384.72119140625 1599.140991210938 385.9839782714844 C 1598.206665039062 386.8628540039062 1597.060668945312 387.6411743164062 1595.6376953125 388.36328125 C 1593.444702148438 389.4761047363281 1590.897216796875 390.2994689941406 1588.43359375 391.0956726074219 C 1586.693725585938 391.6579895019531 1585.05029296875 392.1891174316406 1583.703491210938 392.7637023925781 C 1582.70556640625 393.1893615722656 1582.180541992188 393.5126037597656 1581.924926757812 393.6974487304688 C 1581.931640625 394.0170593261719 1581.995361328125 394.6517028808594 1582.28955078125 395.753173828125 C 1582.681884765625 397.2217102050781 1583.306396484375 398.8969116210938 1583.967529296875 400.6704406738281 C 1584.85595703125 403.0535888671875 1585.774536132812 405.5179138183594 1586.256958007812 407.8663940429688 C 1586.5712890625 409.3966674804688 1586.675048828125 410.7474975585938 1586.573974609375 411.99609375 C 1586.42724609375 413.8107299804688 1585.845336914062 415.4022827148438 1584.844482421875 416.7265625 C 1582.20556640625 420.2158813476562 1577.764282226562 420.6192932128906 1574.653198242188 420.6193237304688 C 1572.801513671875 420.6193542480469 1570.863403320312 420.4622192382812 1568.989013671875 420.3102416992188 L 1568.976684570312 420.3092651367188 C 1567.23095703125 420.1679382324219 1565.582153320312 420.0344543457031 1564.148071289062 420.0344543457031 C 1562.877319335938 420.0344543457031 1562.191772460938 420.1471862792969 1561.863037109375 420.2283325195312 C 1561.74951171875 420.5247497558594 1561.569946289062 421.1304931640625 1561.423461914062 422.247314453125 C 1561.22802734375 423.7363891601562 1561.163452148438 425.5030822753906 1561.095092773438 427.3735046386719 C 1561.001708984375 429.9297790527344 1560.905151367188 432.5730895996094 1560.4453125 434.9459533691406 C 1560.146118164062 436.48974609375 1559.720092773438 437.78564453125 1559.142944335938 438.9076538085938 C 1558.307250976562 440.5325622558594 1557.155029296875 441.7843627929688 1555.71826171875 442.6283264160156 C 1554.378662109375 443.4148254394531 1552.847290039062 443.8134460449219 1551.16552734375 443.8135375976562 C 1547.449584960938 443.8139038085938 1543.548217773438 441.8215026855469 1539.775390625 439.8946533203125 C 1538.172729492188 439.0764770507812 1536.66015625 438.3042602539062 1535.302734375 437.7518005371094 C 1534.158813476562 437.2862243652344 1533.4990234375 437.134765625 1533.162841796875 437.0870056152344 C 1532.946899414062 437.3182678222656 1532.5556640625 437.8074645996094 1532.002807617188 438.7726440429688 C 1531.263549804688 440.0632934570312 1530.536987304688 441.6576232910156 1529.767700195312 443.3455505371094 C 1528.701293945312 445.6852416992188 1527.598754882812 448.1046142578125 1526.258056640625 450.135986328125 C 1525.386474609375 451.4564514160156 1524.49169921875 452.49755859375 1523.522705078125 453.3187561035156 C 1522.123046875 454.5046997070312 1520.572875976562 455.2234497070312 1518.915283203125 455.4550170898438 C 1518.53955078125 455.5075073242188 1518.15576171875 455.5340881347656 1517.774047851562 455.5341491699219 Z" stroke="none" fill="#fff"/>
      </g>
    </g>
    <text id="KLICK_NAMEN_GENERIEREN" data-name="KLICK
NAMEN
GENERIEREN" transform="translate(119.151 101.548) rotate(14.569)" fill="#fff" font-size="34.624" font-family="SegoeUI, Segoe UI" letter-spacing="-0.01em"><tspan x="-42.866" y="0">KLICK</tspan><tspan font-size="20.638"><tspan x="-36.167" y="25">NAMEN</tspan><tspan x="-57.559" y="50">GENERIEREN</tspan></tspan></text>
  </g>
</svg>
