<svg xmlns="http://www.w3.org/2000/svg" width="165" viewBox="0 0 283.46 35.09">
  <defs>
    <style>
      .a {
        fill: #fff;
      }
    </style>
  </defs>
  <g>
    <polygon class="a"
      points="245.46 0.48 245.46 34.63 283.46 34.63 283.46 23.81 265.83 23.81 265.83 23.33 265.83 23.33 265.83 22.45 265.83 22.45 265.83 21.94 281.4 21.94 281.4 13.12 265.83 13.12 265.83 12.58 265.83 12.58 265.83 11.79 265.83 11.79 265.83 11.25 282.88 11.25 282.88 0.48 245.46 0.48" />
    <path class="a"
      d="M225.2,35.09c-10.36,0-18.79-6.53-18.79-17.43C206.41,7,214.88.05,225.2.05a19.83,19.83,0,0,1,12.55,4.22h0l.18.16.14.12a16.67,16.67,0,0,1,3.36,3.89l-14.85,6.36-.17-.08a2.32,2.32,0,0,0-.37-.13,3.1,3.1,0,0,0-.92-.14,3,3,0,0,0-3.08,3.14,3,3,0,0,0,3.08,3.11,3.46,3.46,0,0,0,1.12-.18V16.07s17.65-.07,17.66,0c0,.53.07,1,.07,1.59,0,10.9-8.43,17.43-18.78,17.43" />
    <path class="a" d="M204.92,34.63H187.8l-5.1-7.11v7.11s-16.93,0-16.93,0V.48h16.88l4.88,7.61s0-4.71,0-7.61h17.39Z" />
    <polygon class="a"
      points="139.52 0.48 139.52 14.62 142.62 14.62 142.62 20.5 139.52 20.5 139.52 34.63 163.02 34.63 163.02 20.5 159.93 20.5 159.93 14.62 163.02 14.62 163.02 0.48 139.52 0.48" />
    <polygon class="a"
      points="111.37 0.48 111.37 34.63 136.79 34.63 136.79 20.49 128.82 20.49 128.82 0.48 111.37 0.48" />
    <path class="a"
      d="M95.91,34.63H77.34V.47H93.23c7.27,0,14.69,1.59,14.69,9.47A6.92,6.92,0,0,1,103,16.82v.28c4.08,1.31,6.67,4,6.67,8.1,0,7-7.17,9.43-13.75,9.43" />
    <path class="a"
      d="M57.09,35C46.73,35,38.3,28.51,38.3,17.61,38.3,6.93,46.77,0,57.09,0S75.87,6.93,75.87,17.61C75.87,28.51,67.44,35,57.09,35" />
    <path class="a"
      d="M36.79,18.38h0C36.47,28.82,28.2,35.09,18,35.09c-8.6,0-15.79-4.5-18-12.17l14.42-6.14a2.82,2.82,0,0,0,5.06.37V14.23H5.32V.48H36.79Z" />
  </g>
</svg>