<?xml version="1.0" standalone="no"?>
<!DOCTYPE svg PUBLIC "-//W3C//DTD SVG 20010904//EN"
 "http://www.w3.org/TR/2001/REC-SVG-20010904/DTD/svg10.dtd">
<svg version="1.0" xmlns="http://www.w3.org/2000/svg"
 width="2224.000000pt" height="1207.000000pt" viewBox="0 0 2224.000000 1207.000000"
 preserveAspectRatio="xMidYMid meet">
<metadata>
Created by potrace 1.16, written by Peter Selinger 2001-2019
</metadata>
<g transform="translate(0.000000,1207.000000) scale(0.100000,-0.100000)"
fill="#000000" stroke="none">
<path d="M0 6580 l0 -3910 9480 0 9480 0 0 3910 0 3910 -9480 0 -9480 0 0
-3910z m15885 3779 c4 -6 34 -9 73 -7 61 3 67 1 68 -17 2 -40 4 -46 13 -40 5
3 12 1 16 -5 3 -5 16 -10 28 -10 13 0 40 -9 61 -20 22 -10 43 -17 48 -14 5 3
15 1 22 -5 16 -14 73 8 100 38 14 16 21 17 30 8 15 -16 46 -84 46 -101 0 -8 7
-16 15 -20 8 -3 15 -13 15 -22 0 -14 8 -15 58 -9 31 3 67 13 79 21 12 7 24 10
27 5 3 -5 -8 -14 -24 -20 -17 -5 -30 -12 -30 -15 0 -3 6 -3 13 -1 6 3 22 -11
35 -31 19 -29 28 -35 52 -32 17 1 40 -6 57 -18 15 -12 44 -29 63 -39 36 -18
69 -52 70 -71 0 -6 28 -41 61 -77 53 -58 67 -67 96 -67 26 0 41 -7 59 -29 14
-17 33 -32 42 -35 24 -8 59 -65 67 -109 7 -34 64 -107 85 -107 4 0 11 -11 14
-25 5 -18 15 -27 34 -31 23 -5 31 -14 41 -51 8 -24 20 -47 28 -50 10 -4 12
-14 8 -30 -4 -19 -2 -24 12 -23 45 5 64 -1 72 -23 5 -12 25 -29 45 -37 20 -7
36 -17 36 -20 0 -13 47 -28 72 -23 15 3 43 0 63 -7 28 -9 37 -18 42 -42 6 -30
7 -30 55 -24 44 6 52 4 85 -23 19 -16 41 -27 47 -25 7 3 25 -9 41 -26 16 -16
37 -30 48 -30 10 0 34 -12 53 -26 31 -24 37 -25 64 -14 17 7 30 18 30 25 0 8
12 27 26 44 16 19 24 38 20 48 -8 20 20 53 45 53 10 0 21 -9 24 -20 3 -11 11
-20 16 -20 6 0 7 -9 4 -20 -6 -20 9 -28 20 -10 10 16 44 -7 51 -35 8 -33 32
-32 80 3 21 16 48 31 58 35 24 9 62 -15 71 -44 4 -12 24 -38 44 -58 55 -55 84
-131 84 -221 0 -41 -4 -96 -10 -121 -7 -35 -7 -55 3 -78 7 -17 10 -46 7 -65
-3 -20 2 -69 12 -111 l18 -75 -29 -25 c-16 -14 -34 -23 -40 -21 -6 2 -26 -4
-43 -15 -38 -23 -41 -23 -41 -5 0 7 -7 19 -15 26 -19 16 -49 -5 -40 -28 3 -8
-2 -23 -11 -33 -16 -17 -15 -20 7 -38 13 -11 36 -20 50 -21 17 0 35 -12 55
-35 16 -19 35 -35 42 -35 7 0 33 -9 58 -21 42 -19 48 -19 69 -5 29 19 51 21
53 4 0 -7 3 -28 6 -47 5 -32 4 -33 -15 -15 -14 12 -23 14 -30 7 -16 -16 -28
-79 -18 -94 22 -35 1 -126 -26 -115 -24 9 -36 -20 -34 -80 1 -37 -5 -75 -16
-102 -14 -34 -15 -45 -5 -57 7 -9 20 -13 29 -10 10 3 21 -3 29 -15 11 -18 8
-25 -23 -55 -33 -34 -38 -35 -84 -29 -37 5 -55 2 -72 -10 -13 -9 -30 -16 -38
-16 -19 0 -51 -29 -51 -46 0 -26 -65 -82 -113 -98 -72 -24 -99 -41 -125 -75
-20 -28 -22 -40 -18 -104 6 -100 15 -138 39 -164 18 -21 19 -24 4 -47 -9 -13
-27 -36 -41 -51 -20 -21 -23 -31 -16 -50 10 -26 -1 -40 -35 -47 -21 -3 -22 -9
-29 -133 -1 -27 -8 -60 -14 -72 -8 -15 -9 -29 -4 -40 9 -17 -1 -63 -12 -63 -3
0 -3 6 -1 13 3 6 1 19 -5 27 -7 12 -14 12 -43 2 -18 -7 -41 -12 -51 -12 -12 0
-16 -5 -12 -15 5 -14 -17 -21 -47 -16 -4 1 -16 -3 -27 -9 -11 -6 -21 -6 -24
-1 -4 5 -27 1 -53 -8 -47 -17 -48 -18 -45 -57 2 -21 12 -48 23 -60 10 -11 19
-27 19 -36 0 -9 7 -21 15 -28 9 -7 14 -18 12 -24 -6 -16 46 -144 104 -258 5
-10 5 -19 -1 -23 -22 -13 -9 -57 29 -98 21 -23 43 -52 50 -64 6 -13 20 -23 30
-23 16 0 18 7 15 64 l-3 64 30 -8 c26 -8 32 -6 36 10 3 10 18 23 34 29 16 5
34 21 40 35 7 15 26 30 45 36 19 7 34 16 34 22 0 6 6 8 14 5 8 -3 17 -1 20 6
3 8 9 6 19 -6 12 -14 23 -17 49 -12 25 5 38 2 47 -9 8 -9 24 -16 36 -16 49 0
85 -13 85 -30 0 -22 42 -85 58 -86 7 -1 13 -2 15 -4 1 -1 11 -3 22 -5 11 -2
34 -6 52 -10 18 -3 38 -16 47 -30 9 -14 25 -25 35 -25 23 0 33 -13 55 -68 12
-31 13 -48 6 -62 -6 -10 -11 -45 -11 -77 -1 -33 -9 -76 -20 -100 -11 -23 -19
-47 -19 -52 0 -6 -4 -11 -10 -11 -5 0 -10 7 -10 15 0 8 -4 15 -8 15 -11 0 -52
-39 -52 -49 0 -5 -7 -12 -16 -15 -13 -5 -14 -2 -8 11 17 39 2 118 -23 127 -10
3 -29 13 -43 21 -14 8 -26 10 -28 5 -2 -6 -14 -10 -27 -10 -26 0 -50 -24 -40
-40 4 -6 4 -35 0 -65 -6 -49 -8 -53 -36 -59 -25 -5 -30 -10 -27 -28 2 -19 9
-23 36 -23 17 0 32 -1 32 -2 0 -12 -44 -83 -52 -83 -5 0 -16 -16 -24 -35 -8
-19 -18 -35 -23 -35 -27 0 -61 22 -61 38 0 20 -43 66 -52 56 -3 -3 -9 -1 -12
4 -3 5 1 15 9 22 8 7 15 8 15 3 0 -5 8 -9 18 -9 9 -1 25 -4 35 -9 14 -6 17 -2
17 27 0 19 5 39 10 44 12 12 -32 61 -67 75 -15 5 -21 14 -17 24 3 8 2 15 -4
15 -6 0 -14 -15 -17 -32 -10 -45 -15 -51 -31 -37 -8 6 -23 9 -34 6 -13 -3 -20
0 -20 9 0 19 -46 18 -53 0 -4 -11 1 -14 21 -13 22 2 27 -3 32 -28 4 -21 12
-31 27 -33 22 -3 22 -7 18 -70 -5 -70 -4 -67 -74 -124 -11 -10 -21 -27 -21
-38 0 -16 -5 -19 -22 -15 -19 5 -27 -2 -46 -35 -12 -22 -29 -40 -37 -40 -8 0
-15 -3 -16 -7 -2 -20 -8 -45 -11 -49 -3 -2 -26 -5 -54 -7 -37 -2 -48 -6 -45
-17 2 -8 4 -22 4 -30 0 -8 4 -18 9 -21 6 -4 -4 -11 -21 -17 -56 -20 -79 -122
-25 -114 15 2 16 1 5 -6 -7 -6 -10 -15 -7 -21 5 -7 -8 -11 -38 -11 -25 0 -46
-4 -46 -10 0 -13 -49 -44 -58 -36 -3 4 -1 10 5 14 7 4 8 13 4 20 -9 15 -41 5
-41 -13 0 -7 -13 -18 -29 -23 -16 -6 -32 -19 -36 -31 -4 -13 -16 -21 -37 -23
-18 -2 -36 -11 -42 -23 -21 -37 -34 -44 -97 -49 -45 -3 -68 -1 -79 8 -8 8 -25
17 -38 21 -20 6 -23 3 -21 -17 4 -39 -12 -88 -30 -89 -9 0 -29 -3 -44 -5 -23
-4 -30 -1 -34 15 -3 12 -20 30 -39 41 -31 19 -35 20 -61 6 -39 -21 -73 -52
-73 -65 0 -6 -12 -16 -26 -21 -23 -9 -26 -15 -21 -48 2 -21 -2 -50 -10 -69
-15 -32 -16 -32 -71 -27 -65 6 -73 9 -65 31 5 13 1 15 -23 9 -16 -4 -31 -12
-33 -17 -2 -6 -14 -14 -28 -20 -13 -5 -22 -13 -19 -18 3 -5 -1 -11 -9 -15 -8
-3 -17 -1 -20 4 -9 15 -51 12 -65 -5 -7 -8 -20 -14 -28 -13 -12 2 -17 -8 -20
-42 -6 -74 -30 -111 -82 -127 -25 -8 -58 -16 -74 -18 -16 -2 -31 -7 -34 -10
-3 -2 -15 6 -26 20 -15 18 -29 23 -46 20 -29 -5 -70 -48 -70 -74 0 -26 -9 -31
-36 -19 -19 9 -32 8 -60 -5 -44 -21 -46 -21 -74 3 -24 21 -57 19 -72 -4 -4 -6
-8 -7 -8 -2 0 5 -8 2 -17 -5 -9 -8 -14 -9 -10 -2 5 7 -4 14 -24 18 -67 15 -93
12 -115 -11 -12 -13 -25 -20 -28 -17 -3 3 -12 0 -20 -6 -9 -8 -24 -10 -38 -5
-13 4 -52 10 -88 14 -59 7 -68 5 -97 -16 -17 -13 -35 -24 -39 -24 -4 0 -16 -7
-26 -17 -10 -9 -28 -21 -41 -28 -12 -6 -21 -18 -21 -27 1 -9 -11 -29 -27 -44
-27 -25 -30 -26 -61 -13 -18 8 -36 14 -40 15 -5 1 -10 3 -13 4 -3 1 -8 3 -12
5 -5 1 -15 4 -23 8 -8 3 -31 8 -51 10 -50 6 -73 -13 -78 -65 -1 -4 -15 -5 -32
-1 -23 4 -34 2 -40 -10 -6 -9 -18 -14 -31 -12 -11 3 -28 0 -37 -5 -14 -8 -14
-10 -1 -10 21 -2 -28 -22 -63 -26 -19 -3 -26 0 -21 7 4 8 0 8 -14 0 -23 -12
-21 -32 7 -65 15 -17 14 -18 -4 -15 -17 3 -19 -1 -17 -26 5 -39 9 -42 34 -26
27 17 40 3 41 -46 1 -34 -2 -38 -26 -41 -15 -2 -27 -10 -27 -18 0 -8 -4 -15
-10 -15 -20 -3 -25 -4 -37 -12 -7 -5 -17 -5 -23 -2 -5 3 -10 0 -10 -7 0 -8
-16 -14 -45 -15 -25 -1 -43 2 -40 7 5 8 -53 5 -87 -6 -10 -3 -18 -14 -18 -25
0 -10 -6 -19 -12 -20 -37 -2 -55 -11 -83 -41 -17 -18 -34 -41 -38 -51 -4 -12
-12 -15 -19 -10 -28 17 -46 12 -52 -13 -7 -25 -31 -39 -84 -49 -39 -7 -75 -37
-87 -73 -15 -44 -64 -99 -94 -105 -14 -3 -46 -10 -71 -15 -25 -5 -62 -9 -82
-8 -21 1 -38 -3 -38 -9 0 -5 -9 -16 -20 -23 -22 -13 -27 -3 -8 16 14 14 -7 43
-27 36 -15 -6 -40 58 -32 86 7 26 -32 34 -78 14 -34 -14 -39 -14 -56 2 -10 9
-19 12 -19 7 0 -7 -13 -8 -37 -3 -21 5 -64 11 -95 15 -55 6 -58 5 -79 -25 -14
-18 -32 -30 -45 -30 -13 0 -26 -5 -29 -11 -4 -6 -13 -8 -21 -5 -14 5 -21 -12
-26 -69 -3 -30 -3 -30 -65 -29 -35 0 -63 -4 -63 -8 0 -5 -4 -6 -10 -3 -5 3
-20 0 -32 -6 -13 -7 -39 -13 -59 -14 -19 -1 -39 -4 -45 -6 -5 -3 -25 -6 -44
-8 -19 -1 -37 -7 -41 -13 -7 -10 -17 -12 -114 -23 -97 -11 -129 -9 -148 9 -8
8 -26 13 -41 12 -14 -2 -29 1 -32 5 -3 5 -14 9 -24 9 -10 0 -21 6 -24 13 -4 9
-8 9 -11 1 -9 -17 -42 -5 -81 29 -23 21 -30 33 -22 38 8 5 2 10 -15 14 -15 4
-27 12 -28 19 0 6 -2 19 -4 29 -2 9 1 15 6 11 5 -3 9 -1 9 5 0 6 6 8 14 5 14
-5 33 42 21 54 -3 3 -5 -2 -5 -11 0 -12 -8 -17 -27 -17 -16 0 -23 4 -18 8 11
8 18 32 10 32 -3 0 -15 -8 -26 -19 -17 -16 -27 -17 -61 -9 -22 5 -56 9 -74 10
-19 1 -42 9 -52 18 -22 21 -109 22 -116 3 -3 -7 -12 -10 -21 -7 -8 3 -15 1
-15 -5 0 -6 -9 -11 -20 -11 -11 0 -20 3 -20 8 0 4 -18 7 -40 6 -22 0 -40 3
-40 7 0 4 -7 10 -16 13 -11 4 -14 0 -12 -17 2 -18 -2 -22 -24 -23 -16 -1 -28
4 -28 10 0 6 -9 17 -21 24 -12 8 -19 9 -15 4 3 -5 -6 -14 -19 -20 -14 -7 -25
-16 -25 -21 0 -12 -57 -41 -82 -41 -10 0 -18 -5 -18 -10 0 -7 -6 -7 -19 0 -26
13 -32 13 -29 -2 2 -7 -7 -14 -20 -16 -12 -2 -30 -15 -39 -29 -13 -20 -22 -24
-45 -19 -16 3 -28 1 -28 -5 0 -6 -5 -7 -11 -3 -7 4 -30 9 -53 12 -23 2 -50 11
-61 18 -11 8 -32 14 -47 14 -16 0 -28 6 -28 13 0 7 -14 13 -32 13 -67 3 -91
11 -105 35 -8 13 -12 17 -10 9 5 -16 3 -17 -66 -24 -21 -2 -41 -7 -44 -10 -4
-3 -12 -1 -19 5 -9 7 -19 7 -32 0 -11 -6 -22 -7 -26 -4 -3 3 -6 1 -6 -5 0 -20
-18 -13 -25 8 -4 11 -11 18 -16 15 -5 -4 -9 3 -9 15 0 20 -1 20 -16 5 -12 -12
-19 -13 -24 -5 -4 6 -11 10 -16 8 -5 -1 -19 3 -32 10 -23 13 -67 7 -58 -7 3
-4 -1 -8 -9 -8 -8 0 -15 4 -15 8 0 4 -11 2 -24 -4 -13 -7 -23 -14 -21 -18 5
-6 -57 -10 -145 -9 -30 1 -70 1 -87 1 -30 0 -38 8 -34 32 2 10 -23 9 -34 -2
-18 -17 -125 -13 -245 9 -93 17 -105 17 -104 -3 2 -18 -11 -23 -21 -7 -4 6
-15 6 -30 0 -14 -5 -32 -7 -42 -3 -11 4 -24 -3 -39 -22 -16 -21 -27 -26 -41
-20 -37 15 -78 11 -103 -12 -14 -13 -34 -23 -46 -23 -12 0 -27 -7 -34 -15 -7
-8 -27 -15 -45 -15 -27 0 -66 -25 -57 -37 9 -12 0 -34 -13 -29 -8 3 -14 2 -13
-2 3 -16 -15 -40 -27 -36 -7 3 -16 1 -20 -5 -3 -6 -17 -11 -31 -11 -15 0 -23
-4 -19 -10 4 -6 -7 -15 -24 -21 -17 -6 -28 -15 -25 -20 7 -12 -13 -11 -38 2
-12 6 -18 7 -14 1 3 -5 -1 -13 -10 -16 -10 -4 -13 -2 -8 6 5 8 -2 9 -24 5 -23
-5 -32 -3 -32 7 0 9 -8 12 -25 9 -19 -4 -25 0 -30 20 -4 15 -16 28 -31 31 -13
4 -24 13 -24 21 0 13 -6 17 -26 14 -4 0 -10 5 -14 12 -5 6 -15 9 -25 6 -10 -4
-13 -12 -9 -19 5 -8 0 -7 -11 2 -10 8 -16 10 -12 4 13 -21 -21 -23 -39 -3 -13
15 -26 19 -46 15 -16 -3 -28 -1 -28 4 0 5 -7 7 -15 4 -8 -4 -22 -1 -30 6 -9 7
-18 10 -22 7 -3 -3 -18 0 -34 8 -30 16 -53 20 -30 6 11 -7 8 -12 -12 -25 -13
-9 -29 -16 -33 -15 -5 1 -11 0 -14 -1 -23 -9 -67 -3 -78 9 -8 9 -11 10 -7 4 3
-7 2 -13 -4 -13 -5 0 -13 9 -16 21 -4 13 -12 18 -22 15 -11 -5 -13 -2 -9 10 5
14 4 15 -8 5 -11 -9 -20 -9 -34 -2 -11 6 -23 7 -27 3 -3 -4 -5 -2 -3 3 5 17
-36 50 -62 49 -25 -1 -58 13 -73 31 -5 6 -7 3 -3 -7 3 -11 0 -18 -8 -18 -20 0
-27 12 -14 27 9 11 7 12 -7 7 -14 -6 -16 -4 -10 6 11 18 13 60 3 54 -13 -8 -9
11 4 24 14 14 4 16 -21 3 -13 -7 -18 -6 -18 4 0 8 3 13 6 12 3 -1 8 3 9 8 2 6
7 15 12 20 9 11 -13 48 -23 38 -11 -10 -8 -25 3 -18 6 3 10 2 10 -4 0 -16 -14
-20 -25 -7 -17 19 -16 56 1 56 15 0 15 3 -1 26 -9 15 -12 23 -6 20 14 -9 14 4
1 24 -6 10 -10 11 -10 3 0 -7 -4 -13 -8 -13 -4 0 -8 9 -8 19 0 11 4 17 9 14
13 -8 27 19 21 40 -3 9 0 17 7 17 9 0 9 3 -1 14 -6 8 -18 12 -26 9 -10 -4 -12
0 -8 11 3 9 9 14 14 11 4 -2 12 7 18 20 9 19 9 25 -1 25 -6 0 -4 5 6 11 24 14
22 33 -3 19 -18 -10 -18 -8 3 24 12 18 24 32 26 30 2 -2 9 6 15 18 6 13 20 24
30 26 11 3 16 0 12 -7 -4 -6 -2 -11 3 -11 6 0 9 10 7 23 -3 12 -5 26 -5 30 -1
5 -5 5 -11 2 -5 -3 -10 -1 -10 4 0 6 4 11 9 11 5 0 11 6 14 13 2 6 3 4 2 -5
-2 -10 3 -23 11 -29 12 -9 13 -9 9 3 -4 9 0 18 9 21 8 3 12 14 9 25 -3 12 2
22 12 26 9 3 13 2 10 -4 -8 -12 5 -13 24 -1 9 6 10 11 2 15 -16 10 -13 29 3
23 9 -4 17 2 21 13 4 11 12 17 21 13 7 -3 14 0 14 7 0 7 7 10 16 6 8 -3 12 -2
9 4 -3 6 -2 10 3 10 6 0 8 9 5 20 -3 11 -9 17 -14 14 -5 -3 -6 3 -2 12 6 15 8
15 25 -6 10 -13 21 -21 23 -18 3 3 -5 18 -17 33 -13 16 -17 26 -10 21 6 -4 12
-2 12 3 0 6 5 11 11 11 6 0 8 -7 5 -16 -3 -8 -2 -12 4 -9 15 9 12 41 -5 55 -8
7 -15 18 -15 24 0 6 7 2 15 -8 8 -11 15 -15 15 -8 0 6 7 9 15 6 9 -4 15 0 16
10 1 9 2 25 3 35 0 11 4 23 9 27 13 13 8 34 -9 34 -9 0 -12 5 -8 12 5 8 2 9
-11 4 -18 -7 -18 -6 -2 12 15 16 15 21 4 30 -8 7 -18 8 -22 4 -5 -4 -5 1 -2
11 4 11 1 20 -8 23 -11 5 -12 10 -2 24 9 15 8 23 -6 38 -18 20 -23 37 -8 27 5
-3 13 0 17 6 4 8 3 9 -4 5 -8 -5 -12 3 -12 23 0 17 -5 31 -11 31 -6 0 -8 -8
-5 -17 6 -17 5 -17 -8 0 -14 19 -36 23 -36 7 0 -5 -5 -10 -12 -10 -6 0 -4 7 5
18 10 10 17 25 18 33 0 10 2 11 6 1 2 -6 9 -10 14 -6 15 9 0 24 -24 24 -21 0
-21 1 3 17 14 10 28 17 33 15 4 -1 7 0 7 3 0 10 -70 36 -82 30 -7 -3 -4 1 6 9
17 14 16 20 -5 18 -3 -1 -5 9 -5 21 1 12 -4 22 -11 22 -18 0 -23 10 -27 50 -1
22 -9 41 -19 46 -9 6 -14 16 -10 25 5 13 8 13 15 2 6 -9 7 -6 3 9 -7 25 13 42
26 22 4 -7 11 -10 15 -6 14 14 -6 22 -63 26 -7 1 -13 5 -13 9 0 4 17 6 38 4
20 -2 32 0 26 5 -14 10 -39 56 -36 66 1 4 -11 5 -28 2 -35 -6 -39 2 -7 15 17
7 18 9 5 9 -10 1 -18 6 -18 12 0 7 -10 9 -27 4 -24 -6 -25 -5 -12 11 12 15 12
17 0 9 -11 -6 -13 -3 -9 13 4 12 2 20 -3 16 -12 -7 -11 3 1 26 7 14 5 19 -10
23 -22 6 -28 -8 -7 -16 6 -2 8 -8 4 -13 -5 -5 -15 0 -23 11 -9 12 -11 21 -4
23 14 5 13 32 -2 32 -7 1 -2 10 12 22 17 15 19 19 7 15 -14 -5 -18 -2 -15 11
1 9 -1 23 -5 30 -5 7 -3 12 3 12 6 0 8 5 4 11 -5 8 -9 8 -14 -1 -11 -18 -43 3
-45 28 -1 12 1 19 5 17 3 -2 12 0 20 6 12 7 10 9 -8 9 -22 0 -22 1 -5 26 16
26 16 27 -6 45 -24 20 -67 26 -56 9 4 -6 10 -8 15 -5 4 3 16 2 25 -1 13 -6 14
-9 3 -16 -9 -7 -8 -8 5 -4 12 4 17 2 15 -5 -2 -7 -19 -13 -38 -14 -19 -2 -27
-1 -17 2 21 6 23 29 2 31 -42 5 -42 5 -31 28 6 12 13 21 16 19 3 -2 12 0 20 6
13 7 12 9 -2 9 -9 0 -18 8 -20 17 -2 13 -8 9 -19 -16 -11 -22 -19 -29 -24 -21
-4 7 -2 15 4 19 6 4 9 15 5 24 -4 12 -1 17 10 17 9 0 16 5 16 10 0 14 -37 -5
-43 -22 -4 -10 -7 -10 -18 0 -12 11 -12 14 1 22 13 8 13 10 0 10 -11 0 -11 3
3 18 16 15 19 15 28 2 9 -13 10 -13 7 0 -3 8 -14 19 -26 25 -15 6 -20 15 -16
27 3 10 0 18 -6 18 -6 0 -9 -4 -6 -9 4 -5 0 -12 -6 -15 -9 -3 -7 -9 6 -20 11
-9 17 -19 13 -22 -10 -10 -37 23 -37 46 0 16 -5 20 -22 18 -13 -2 -30 -8 -38
-12 -11 -7 -10 -3 3 11 18 21 24 79 7 68 -14 -9 -12 9 3 24 10 10 6 12 -20 8
-18 -3 -35 -2 -38 2 -2 4 1 8 8 9 23 2 82 20 69 21 -6 1 -11 4 -11 9 3 19 -2
33 -11 27 -5 -3 -7 -12 -3 -20 3 -8 0 -15 -6 -15 -6 0 -11 6 -12 13 0 9 -2 9
-6 -1 -4 -10 -8 -10 -21 0 -13 11 -15 10 -10 -4 5 -11 0 -18 -14 -21 -16 -5
-18 -3 -9 6 16 16 14 25 -6 30 -14 4 -12 5 5 6 12 0 22 3 22 5 0 13 -13 35
-19 32 -3 -2 -17 2 -31 10 -33 18 -3 18 31 0 16 -8 32 -10 40 -5 11 6 9 9 -7
9 -24 0 -48 23 -36 35 4 4 -3 2 -16 -4 -25 -13 -42 -7 -42 16 0 12 -3 13 -14
4 -10 -9 -19 -5 -39 15 -15 15 -24 31 -20 37 4 6 9 2 14 -9 4 -11 14 -26 23
-33 13 -11 17 -11 22 4 5 13 9 14 15 3 6 -10 11 -10 20 -1 8 8 6 13 -10 18
-12 3 -21 15 -21 26 0 22 -10 24 -29 7 -11 -11 -11 -9 -1 11 11 21 10 23 -3
18 -20 -8 -28 14 -11 31 21 21 6 39 -39 47 -23 4 -45 7 -49 6 -5 0 -8 6 -8 14
0 11 7 14 28 10 l27 -5 -25 11 c-14 7 -28 13 -32 13 -11 2 -22 16 -12 16 5 0
10 15 11 33 l2 32 -13 -28 c-7 -15 -15 -24 -19 -21 -4 4 -7 3 -7 -3 0 -5 -13
-9 -29 -9 -22 0 -27 3 -23 18 2 10 8 21 13 24 5 3 6 -3 2 -12 -4 -12 -3 -15 5
-10 16 10 15 28 -2 52 -14 18 -14 18 -13 0 1 -10 -5 -21 -13 -23 -13 -4 -13
-3 0 6 10 7 11 11 2 11 -10 0 -10 4 0 19 9 15 15 17 25 9 10 -8 13 -5 13 11 0
32 -33 19 -57 -23 -10 -17 -10 -17 -16 3 -3 12 -1 19 4 15 5 -3 9 0 9 5 0 6
-4 12 -10 12 -5 1 -16 2 -22 3 -7 1 -12 7 -11 14 2 6 -6 16 -18 22 -14 8 -18
17 -14 31 4 10 2 19 -4 19 -6 0 -8 7 -5 15 4 9 0 15 -10 15 -9 0 -16 -7 -16
-16 0 -8 -4 -13 -10 -9 -12 7 -2 34 24 64 l21 24 -23 -12 c-18 -10 -23 -9 -28
3 -3 8 -12 12 -20 9 -10 -4 -12 0 -8 11 4 9 9 14 12 12 3 -3 11 6 19 20 16 32
17 44 0 23 -12 -16 -47 -33 -47 -23 0 3 10 15 23 25 20 18 21 19 2 17 -11 -2
-20 3 -21 10 -1 6 -3 15 -4 20 -1 4 -2 11 -1 16 1 5 -5 6 -14 3 -8 -4 -15 -2
-15 4 0 7 14 9 38 5 33 -5 34 -4 12 5 -15 7 -20 13 -12 16 6 3 10 9 6 14 -3 5
-14 4 -27 -3 -19 -10 -20 -9 -9 4 10 13 10 17 0 20 -8 3 -1 15 20 34 25 23 29
33 20 42 -9 9 -9 12 1 12 7 0 9 5 5 12 -5 7 -2 9 9 5 15 -6 34 20 22 31 -3 3
-5 0 -5 -6 0 -17 -17 -15 -24 4 -3 8 1 28 9 44 17 34 19 44 5 35 -5 -3 -12 6
-16 20 -4 17 -12 25 -24 23 -19 -3 -70 21 -70 34 0 4 4 8 10 8 5 0 7 6 4 13
-3 8 4 13 18 14 18 2 20 0 8 -8 -12 -8 -12 -10 -1 -7 8 2 16 14 18 26 3 21 -9
27 -44 23 -7 -1 -9 7 -6 19 3 11 10 20 15 20 5 0 3 7 -6 15 -19 19 -24 19 -29
-2 -3 -11 -5 -7 -6 10 -1 21 3 27 17 25 10 -2 16 2 14 11 -1 7 3 19 9 27 9 11
8 14 -6 14 -17 0 -17 1 -1 19 16 17 15 20 -9 49 -17 20 -21 32 -13 34 8 3 6 7
-5 11 -12 4 -17 1 -17 -11 -1 -20 -27 -58 -36 -50 -3 4 2 18 11 32 10 14 13
26 9 26 -5 1 2 8 16 16 14 9 17 13 6 10 -15 -5 -17 -2 -12 20 6 21 4 25 -7 21
-8 -3 -20 0 -26 6 -15 15 -14 44 2 50 6 3 2 6 -11 6 -13 1 -20 -3 -17 -9 7
-11 -8 -14 -19 -3 -11 11 -51 11 -59 -1 -5 -6 -5 -1 -2 12 4 13 2 21 -4 20 -5
-2 -17 6 -26 17 -16 20 -16 20 -10 -2 8 -28 1 -29 -25 -3 -21 21 -40 26 -40
12 0 -5 10 -14 23 -20 12 -6 17 -11 11 -11 -19 -1 -64 25 -56 33 4 4 0 6 -8 4
-8 -1 -22 -12 -32 -23 -10 -12 -17 -15 -18 -7 0 6 6 12 13 12 9 0 8 3 -2 9 -8
5 -10 14 -6 21 5 8 4 11 -2 7 -19 -12 -82 -16 -88 -7 -3 6 2 7 12 4 17 -5 17
-5 1 6 -12 7 -24 8 -36 1 -15 -8 -24 -5 -40 14 -24 28 -55 34 -46 10 4 -8 10
-12 15 -9 5 3 6 -2 3 -10 -3 -9 -10 -16 -16 -16 -5 0 -7 4 -3 9 3 5 0 13 -7
17 -20 12 -58 14 -58 2 0 -6 -7 -5 -17 3 -15 12 -16 12 -11 -8 4 -16 2 -20 -8
-16 -8 3 -11 10 -7 17 3 6 3 8 -1 4 -4 -3 -8 -10 -8 -15 0 -4 -9 -24 -19 -43
-24 -44 -25 -64 -2 -56 16 6 16 6 0 -12 -9 -10 -14 -22 -11 -25 4 -4 1 -13 -5
-21 -7 -8 -10 -20 -7 -25 4 -5 1 -13 -5 -17 -8 -4 -7 -9 2 -15 11 -8 11 -12
-3 -23 -10 -7 -18 -18 -18 -25 0 -6 -5 -11 -11 -11 -6 0 -8 7 -5 16 5 14 4 15
-9 4 -18 -15 -45 -7 -45 14 0 20 -44 46 -60 36 -19 -12 -30 -3 -23 17 4 10 2
14 -5 9 -6 -3 -18 3 -26 15 -10 15 -26 22 -46 22 -17 0 -27 3 -23 6 15 11 11
27 -10 40 -18 11 -20 11 -10 0 20 -21 15 -31 -9 -18 -18 10 -20 9 -15 -5 3 -8
1 -18 -5 -22 -6 -4 -8 -3 -5 3 4 6 0 16 -8 23 -13 11 -14 10 -10 -3 4 -8 1
-18 -6 -23 -8 -4 -10 -3 -5 4 4 7 2 12 -4 12 -6 0 -8 5 -4 11 4 8 0 8 -15 0
-17 -10 -20 -9 -15 4 4 8 1 15 -5 15 -6 0 -11 -4 -11 -10 0 -5 -8 -10 -17 -11
-14 0 -14 -2 3 -9 12 -5 25 -14 29 -20 6 -9 2 -9 -13 -1 -29 15 -34 14 -64
-14 -28 -26 -58 -33 -58 -14 0 6 7 9 14 6 10 -4 13 -1 9 8 -4 12 -9 12 -26 3
l-21 -11 23 -18 23 -19 -30 4 c-45 5 -56 15 -35 33 10 8 12 11 5 8 -7 -4 -22
1 -33 11 -10 9 -19 12 -19 7 0 -6 -12 -14 -27 -18 -16 -3 -36 -14 -45 -22 -10
-8 -24 -13 -33 -10 -8 4 -15 2 -15 -3 0 -6 6 -10 13 -10 7 0 18 -9 24 -20 10
-16 10 -18 -1 -14 -15 6 -34 -34 -41 -86 -3 -31 -2 -33 9 -17 16 21 26 22 26
3 0 -8 6 -17 13 -20 6 -3 3 -4 -8 -3 -12 1 -19 -3 -17 -10 2 -14 -30 -18 -42
-6 -8 8 -66 12 -61 3 2 -3 0 -12 -5 -20 -7 -12 -11 -12 -26 1 -13 11 -18 11
-21 2 -7 -19 -23 -16 -23 5 0 14 -2 15 -10 2 -7 -10 -10 -11 -10 -2 0 7 7 15
15 18 21 8 9 23 -14 17 -27 -7 -35 24 -11 44 19 16 19 17 -1 34 -11 10 -19 24
-17 32 2 8 -9 26 -23 39 -21 20 -23 26 -12 36 10 10 13 10 13 1 0 -7 3 -9 6
-6 4 4 1 13 -6 22 -7 8 -9 15 -5 15 4 0 2 6 -4 13 -6 8 -8 17 -4 21 4 4 0 4
-9 1 -9 -4 -19 -1 -23 5 -3 6 -1 9 5 8 7 -2 14 4 15 13 2 12 -3 15 -19 11 -19
-5 -20 -4 -7 11 12 15 12 17 -4 11 -15 -6 -16 -4 -7 11 9 17 -1 58 -18 75 -26
25 -32 41 -21 54 10 12 8 13 -9 9 -11 -3 -20 -2 -19 3 5 29 -3 37 -15 15 -9
-16 -15 -20 -21 -12 -4 7 -5 15 -1 18 11 11 -28 38 -58 39 -51 3 -52 4 -21 19
26 13 27 14 5 9 -25 -5 -25 -5 -5 12 16 14 17 16 3 11 -12 -4 -23 2 -34 21 -8
15 -13 19 -10 10 3 -11 1 -15 -9 -12 -16 7 -28 34 -15 34 6 0 10 5 10 11 0 6
-7 9 -15 5 -21 -8 -19 3 6 23 21 17 21 17 -15 19 -30 2 -35 0 -30 -15 5 -15 4
-16 -5 -3 -6 8 -11 26 -11 39 0 20 2 21 15 11 8 -7 15 -9 15 -5 0 4 -7 13 -17
20 -9 7 -13 17 -8 25 6 10 9 9 16 -1 7 -11 9 -10 9 5 0 11 -5 16 -12 13 -53
-21 -54 -22 -39 -4 7 9 22 17 33 17 13 0 18 5 15 14 -3 8 1 17 9 20 9 3 12 11
8 18 -6 10 -4 11 7 1 19 -18 50 -17 43 2 -4 10 0 15 12 16 18 0 17 1 -1 9 -11
5 -16 9 -12 9 4 1 3 11 -4 22 -10 19 -9 21 7 17 19 -5 19 -5 15 70 -1 6 -8 12
-16 12 -8 0 -15 5 -15 12 0 6 -8 4 -19 -6 -15 -13 -20 -14 -23 -4 -7 17 2 38
14 38 6 0 4 -7 -3 -17 -12 -14 -12 -16 0 -12 8 3 18 15 23 28 7 21 6 23 -17
17 -27 -7 -32 2 -12 23 10 11 9 12 -2 6 -8 -4 -17 -2 -23 6 -8 11 -9 10 -4 -3
3 -10 1 -18 -4 -18 -6 0 -10 7 -10 15 0 8 -9 15 -19 15 -11 0 -26 9 -34 20 -9
13 -20 18 -31 14 -10 -4 -18 0 -22 10 -5 12 -10 14 -19 6 -6 -5 -15 -7 -19 -3
-3 4 -19 -6 -35 -21 -15 -15 -32 -26 -37 -25 -19 3 -35 -1 -31 -8 3 -5 -6 -9
-19 -9 -13 -1 -32 -5 -42 -10 -9 -4 -20 -8 -24 -8 -12 -2 -21 -16 -10 -16 9 0
9 -5 0 -20 -7 -11 -18 -20 -25 -20 -7 0 -13 -4 -13 -9 0 -5 -3 -17 -7 -27 -4
-12 -2 -15 8 -12 26 9 41 -18 31 -56 -5 -18 -6 -39 -2 -47 5 -7 7 -16 4 -20
-2 -4 1 -11 7 -15 8 -4 9 -3 5 5 -4 6 -1 14 7 17 20 7 19 54 -1 54 -8 0 -13 3
-9 6 3 4 14 3 24 -1 10 -5 25 -7 33 -6 10 1 11 -1 4 -6 -6 -4 -14 -18 -18 -30
-4 -13 -15 -23 -24 -24 -13 0 -11 -3 6 -11 12 -6 22 -15 22 -20 0 -13 -18 -10
-23 5 -3 8 -10 6 -22 -8 -14 -17 -16 -17 -11 -2 6 20 -5 22 -22 5 -7 -7 -12
-8 -12 -4 0 5 -8 2 -18 -5 -15 -13 -16 -12 -3 4 7 9 11 17 7 17 -11 0 -46 -34
-46 -45 0 -5 4 -3 10 5 5 8 11 12 14 9 3 -2 1 -11 -4 -19 -15 -25 -35 3 -21
29 11 20 10 20 -14 9 -18 -8 -24 -17 -19 -30 4 -14 1 -16 -13 -11 -16 6 -16 5
-4 -10 12 -15 11 -17 -14 -17 -27 0 -83 -26 -97 -45 -11 -14 -10 -27 1 -21 5
3 14 -1 21 -9 11 -13 10 -14 -6 -9 -10 4 -25 12 -32 17 -7 5 -15 7 -19 3 -3
-3 -1 -6 6 -6 7 0 10 -4 6 -9 -3 -5 -1 -12 5 -16 5 -3 10 -11 10 -17 0 -7 -5
-7 -14 1 -11 9 -15 9 -20 -1 -3 -7 -4 -3 -2 10 2 13 -2 25 -10 30 -11 6 -3 14
31 32 26 13 55 35 66 48 10 14 19 22 19 18 0 -4 5 -4 11 0 8 5 8 9 -1 14 -13
8 -50 -22 -50 -40 0 -5 -4 -10 -10 -10 -5 0 -10 5 -10 10 0 6 -8 10 -17 10
-14 0 -15 -2 -4 -9 17 -11 6 -31 -18 -31 -10 0 -24 -7 -31 -15 -16 -20 -27
-19 -33 3 -4 15 -5 15 -6 0 0 -9 6 -24 15 -32 8 -9 12 -16 7 -16 -5 0 -14 5
-20 11 -6 6 -17 8 -23 4 -8 -5 -9 -10 -1 -18 17 -17 13 -31 -4 -17 -13 11 -14
10 -9 -5 5 -13 3 -16 -7 -13 -8 3 -13 11 -11 17 1 7 -2 10 -7 7 -13 -8 -20
-55 -9 -62 5 -3 1 -12 -9 -19 -14 -11 -19 -10 -29 3 -8 11 -13 12 -18 3 -4 -6
-2 -20 5 -29 11 -14 11 -15 -1 -5 -9 9 -17 9 -26 2 -7 -6 -14 -6 -18 -1 -3 6
6 18 20 27 21 14 24 19 13 26 -10 7 -7 8 11 7 17 -2 25 3 28 16 3 12 -1 17
-10 14 -7 -3 -19 2 -26 11 -11 14 -11 14 -6 -2 5 -13 2 -16 -12 -10 -12 4 -15
3 -10 -5 4 -7 2 -12 -3 -12 -6 0 -11 4 -11 9 0 5 -7 12 -16 15 -15 6 -15 4 -3
-11 7 -10 20 -24 29 -31 13 -12 13 -15 0 -25 -20 -16 -40 -53 -40 -72 0 -8 -8
-15 -17 -15 -15 0 -16 2 -3 10 8 5 11 12 7 16 -4 4 1 16 10 27 13 15 15 21 6
24 -7 3 -13 9 -13 15 0 6 7 8 14 5 10 -4 13 -1 9 9 -6 16 -29 19 -38 4 -4 -6
-11 -8 -16 -5 -5 4 -9 1 -9 -4 0 -6 7 -11 16 -11 8 0 12 -5 9 -10 -4 -7 -14
-6 -28 1 -19 9 -19 8 3 -9 21 -18 23 -23 12 -46 -6 -14 -9 -33 -6 -41 4 -8 1
-15 -5 -15 -6 0 -11 9 -11 20 0 24 -18 27 -27 4 -3 -8 -12 -13 -19 -10 -9 3
-11 0 -7 -12 6 -15 5 -16 -12 -2 -17 14 -18 13 -12 -2 3 -9 -1 -22 -9 -28 -11
-10 -14 -9 -15 6 0 18 -1 18 -8 -1 -5 -12 -4 -23 3 -27 9 -6 -21 -13 -45 -10
-4 1 -5 -8 -2 -19 5 -16 8 -17 21 -7 13 11 15 10 10 -9 -4 -15 -1 -23 11 -26
11 -3 9 -5 -6 -6 -13 0 -23 4 -23 10 0 5 -4 7 -10 4 -5 -3 -10 -1 -10 5 0 6
-4 8 -10 5 -5 -3 -10 -1 -10 6 0 10 -3 10 -12 1 -9 -9 -8 -15 6 -25 17 -12 15
-14 -18 -12 -28 0 -34 -2 -24 -10 7 -5 14 -17 16 -25 2 -9 -10 -2 -27 14 -17
17 -31 24 -31 18 0 -7 5 -12 10 -12 6 0 10 -7 10 -15 0 -9 -6 -12 -17 -8 -11
4 -14 3 -9 -5 4 -7 2 -12 -3 -12 -6 0 -11 5 -11 12 0 6 -3 9 -6 5 -3 -3 -1
-13 4 -23 7 -13 6 -22 -4 -32 -19 -19 -9 -32 21 -26 13 2 26 1 29 -4 2 -4 -8
-9 -23 -10 -37 -3 -59 22 -43 48 9 14 8 21 -3 30 -12 10 -15 9 -15 -3 0 -8 -7
-17 -15 -21 -8 -3 -15 -11 -15 -17 0 -8 4 -8 15 1 13 10 15 9 15 -9 0 -11 -4
-21 -9 -21 -5 0 -11 -10 -14 -22 -5 -17 -9 -19 -20 -9 -12 9 -16 8 -22 -6 -5
-10 -7 -21 -7 -25 1 -5 -5 -8 -13 -8 -8 0 -12 6 -9 14 3 8 1 17 -5 21 -6 3
-11 -1 -11 -9 0 -8 -7 -22 -16 -30 -8 -9 -12 -16 -9 -16 4 0 -3 -8 -16 -19
-13 -10 -28 -18 -34 -16 -5 1 -7 0 -2 -2 4 -3 7 -14 7 -25 0 -18 -2 -19 -17
-7 -15 13 -15 12 -5 -8 16 -29 15 -32 -7 -26 -10 3 -22 0 -25 -6 -4 -6 -18
-11 -32 -11 -14 0 -32 -7 -41 -16 -14 -14 -14 -16 6 -21 32 -8 25 -20 -9 -15
-22 3 -32 0 -37 -14 -5 -11 -14 -20 -21 -22 -8 -1 -11 2 -8 7 3 5 -1 11 -9 15
-8 3 -17 0 -21 -6 -4 -7 -3 -8 4 -4 14 9 15 -3 2 -24 -8 -12 -10 -12 -15 2 -4
9 -14 16 -23 15 -20 -1 -26 -45 -9 -65 8 -10 5 -12 -16 -8 -15 2 -29 1 -32 -4
-3 -5 -13 -6 -22 -3 -15 6 -14 7 2 13 10 4 14 9 9 13 -17 10 -36 -9 -36 -36 0
-19 -4 -24 -17 -19 -14 5 -14 4 -2 -11 9 -11 10 -17 2 -17 -15 0 -14 -43 2
-60 6 -8 2 -6 -10 4 -13 10 -20 23 -17 27 3 5 -2 6 -10 3 -8 -3 -12 -12 -10
-19 4 -10 -1 -12 -16 -8 -17 5 -19 8 -8 15 10 8 10 9 -2 5 -8 -2 -14 -11 -12
-19 1 -8 -9 -20 -23 -26 -18 -8 -25 -8 -25 -1 0 6 -7 8 -16 5 -8 -3 -12 -2 -9
4 9 14 -2 12 -29 -5 -18 -12 -30 -13 -50 -5 -15 5 -32 7 -38 4 -6 -4 -6 1 1
14 9 17 7 20 -14 20 -17 0 -22 -5 -17 -17 5 -14 4 -14 -11 1 -19 18 -23 33 -7
23 6 -3 10 -2 10 4 0 6 8 8 18 5 13 -5 14 -4 3 4 -8 6 -20 8 -28 5 -8 -3 -13
-2 -11 3 2 5 -1 9 -7 9 -5 0 -9 -6 -9 -12 1 -9 -3 -10 -17 -2 -11 5 -19 16
-19 23 0 8 -9 16 -19 19 -14 3 -18 1 -14 -9 3 -8 9 -11 14 -8 5 3 9 1 9 -4 0
-6 -8 -13 -17 -16 -10 -4 -14 -4 -10 0 8 9 -31 54 -47 54 -6 0 -5 -5 2 -12 18
-18 15 -28 -9 -28 -13 0 -23 8 -26 21 -4 15 -8 17 -14 8 -4 -7 -13 -14 -21
-16 -36 -7 -43 -7 -43 2 0 6 8 9 19 7 12 -1 16 2 13 13 -4 8 -2 17 4 21 5 3 9
13 8 22 -1 10 -1 26 0 37 1 17 3 18 11 5 9 -13 12 -12 26 5 10 14 11 21 3 24
-8 2 -8 5 -1 10 7 4 4 11 -9 19 -17 11 -21 9 -29 -10 -10 -23 -10 -23 -7 2 1
13 11 33 21 44 19 19 19 19 -2 37 -23 18 -31 35 -11 23 8 -4 8 0 0 15 -13 24
-23 28 -15 6 4 -9 0 -15 -9 -15 -8 0 -17 5 -19 11 -3 8 -8 7 -18 -2 -16 -16
-25 -16 -54 -4 -11 5 -21 3 -26 -5 -4 -7 -12 -10 -18 -6 -6 3 -18 -4 -26 -16
-12 -17 -19 -19 -27 -11 -9 9 -15 8 -25 -2 -10 -9 -24 -11 -49 -5 -19 4 -35 5
-35 1 0 -3 -12 8 -27 24 -14 17 -23 22 -20 13 4 -10 2 -18 -2 -18 -5 0 -11 4
-13 10 -1 5 -26 11 -55 12 -28 1 -49 6 -47 10 3 4 -5 8 -18 8 -15 0 -19 -3
-11 -8 7 -5 -11 -8 -42 -9 -30 0 -55 3 -55 9 0 10 -32 7 -40 -4 -3 -4 -12 -3
-20 2 -10 7 -11 10 -2 10 14 0 17 36 3 44 -5 4 -7 -4 -3 -16 3 -14 2 -19 -6
-14 -7 4 -12 2 -12 -4 0 -6 -4 -8 -10 -5 -20 12 -80 11 -80 -1 0 -7 -10 -11
-24 -10 -14 2 -30 0 -37 -5 -16 -9 -88 38 -91 60 0 9 -1 22 -1 29 1 9 -6 12
-20 8 -20 -5 -21 -4 -4 8 9 7 17 18 17 24 0 6 9 16 20 22 25 13 26 31 3 24
-10 -2 -8 1 5 7 24 13 28 24 12 34 -5 3 -10 1 -10 -4 0 -6 -5 -11 -12 -11 -9
0 -9 3 0 12 15 15 16 32 2 23 -6 -3 -10 -1 -10 4 0 6 -8 11 -17 11 -14 0 -15
2 -4 13 11 10 14 10 18 0 3 -7 13 -13 24 -13 11 0 16 -5 13 -13 -3 -8 2 -14
11 -14 10 0 15 8 13 21 -2 16 -9 20 -28 19 -22 -2 -23 -2 -5 6 14 6 26 4 39
-8 18 -15 18 -15 7 7 -16 30 -34 36 -61 22 -18 -10 -24 -9 -31 1 -5 8 -7 19
-4 26 2 6 -3 17 -10 23 -12 10 -16 9 -21 -4 -3 -9 -16 -16 -28 -16 -16 0 -18
2 -7 9 36 23 8 74 -45 83 -42 7 -58 12 -64 20 -9 11 -60 -4 -60 -18 0 -8 -6
-14 -14 -14 -7 0 -26 -12 -42 -27 -26 -24 -37 -27 -103 -27 -48 -1 -76 -5 -78
-13 -3 -7 -10 -10 -18 -7 -8 3 -12 -1 -12 -13 2 -14 -4 -18 -26 -16 -17 1 -25
-2 -21 -9 5 -7 -4 -9 -28 -4 -23 4 -40 1 -53 -9 -27 -19 -45 -19 -62 3 -7 9
-13 13 -12 7 3 -23 -2 -27 -18 -14 -11 10 -14 10 -9 2 4 -7 2 -13 -3 -13 -6 0
-11 4 -11 8 0 4 -12 7 -27 6 -16 -1 -28 -3 -28 -4 0 -6 -61 -8 -69 -2 -6 3
-15 7 -21 7 -5 0 -26 6 -46 13 -36 13 -42 21 -68 100 -26 76 -25 80 21 93 24
7 48 12 55 10 6 -1 14 3 18 9 3 5 17 10 31 10 15 0 24 6 24 15 0 8 5 15 10 15
6 0 10 9 10 20 0 10 12 30 26 42 14 13 36 33 48 46 23 22 42 30 32 13 -5 -7
43 -23 79 -26 6 0 15 -4 22 -8 24 -15 78 18 98 61 11 23 24 42 28 42 5 0 6 22
2 49 -6 46 -5 51 19 66 14 9 30 14 36 10 6 -3 35 5 66 19 42 19 60 23 74 16
10 -6 36 -10 57 -10 44 0 72 18 153 98 50 49 57 53 89 47 19 -4 48 -17 63 -30
17 -15 35 -21 48 -18 19 5 94 84 95 101 1 4 5 18 9 31 7 19 13 22 36 18 19 -4
33 -1 44 12 22 24 20 43 -5 65 -13 10 -19 25 -16 36 3 11 1 20 -3 22 -34 12
103 196 147 197 26 1 113 41 113 52 0 15 52 69 67 69 8 0 26 9 40 20 14 11 35
20 46 20 11 0 31 10 44 22 17 15 26 19 34 11 8 -8 19 -7 40 1 24 9 32 8 39 -4
9 -15 40 -53 74 -92 19 -21 19 -21 -3 -40 -13 -10 -28 -15 -34 -11 -6 4 -7 1
-2 -6 5 -8 19 -11 39 -7 27 5 35 2 46 -18 12 -24 14 -24 41 -10 16 8 29 20 29
26 0 6 3 8 8 4 4 -4 7 -18 7 -29 0 -15 6 -22 18 -21 9 1 17 -2 17 -7 0 -5 11
-8 25 -7 19 2 25 7 23 22 -2 12 5 24 18 31 11 5 19 16 16 23 -4 13 39 18 51 5
4 -3 17 -7 29 -9 39 -4 78 -23 78 -38 0 -15 29 -26 73 -26 15 0 27 -4 27 -10
0 -12 80 -47 117 -52 15 -2 34 -9 41 -15 7 -7 22 -13 32 -13 32 0 100 43 112
72 7 15 16 28 20 28 5 0 17 9 28 20 24 24 18 66 -10 75 -18 6 -18 7 -2 26 14
16 30 19 104 19 73 0 88 -3 88 -16 0 -9 -5 -12 -12 -8 -6 4 -8 3 -5 -3 3 -5 8
-22 11 -37 7 -39 10 -41 53 -23 21 8 51 13 67 12 29 -4 116 -45 116 -56 0 -3
33 -5 73 -3 39 1 94 -2 120 -8 87 -21 246 33 221 74 -9 14 46 9 71 -8 17 -11
36 -14 59 -10 18 4 46 1 62 -5 16 -7 36 -11 45 -10 9 1 22 -5 29 -14 16 -20
36 -19 52 3 7 9 22 19 33 20 11 2 21 7 23 11 1 5 13 6 26 4 13 -3 27 0 30 6
11 16 26 13 26 -5 0 -12 6 -15 25 -10 14 4 25 2 25 -2 0 -16 89 -44 115 -38
14 4 25 2 25 -3 0 -4 14 -11 30 -14 27 -6 43 -27 20 -27 -5 0 -10 -4 -10 -10
0 -16 30 -12 37 5 5 13 8 13 20 -5 8 -11 20 -20 27 -20 7 0 36 -24 64 -54 35
-38 52 -50 56 -40 9 24 56 -4 54 -32 -1 -13 -6 -24 -10 -24 -4 0 -6 -23 -3
-51 3 -31 1 -48 -5 -44 -5 3 -7 0 -4 -8 3 -8 1 -18 -5 -22 -17 -10 -13 -26 7
-24 31 3 43 -1 37 -11 -13 -21 2 -9 22 18 l21 28 -27 1 c-23 2 -24 1 -6 -7 15
-6 16 -9 4 -9 -22 -1 -28 7 -22 29 4 16 9 17 24 9 14 -7 29 -4 61 13 24 12 47
21 52 20 4 -2 23 -3 41 -4 24 -1 35 -7 39 -20 2 -11 14 -22 25 -25 12 -3 21
-10 21 -15 0 -18 80 -81 105 -83 25 -1 33 9 15 20 -5 3 -8 28 -7 55 2 45 4 50
25 50 12 0 22 5 22 10 0 6 -6 10 -14 10 -9 0 -12 7 -9 20 3 11 9 20 13 20 20
0 70 -54 80 -85 6 -20 15 -34 18 -32 4 2 15 -4 25 -15 9 -10 15 -18 12 -18 -3
0 2 -8 12 -18 31 -32 50 -33 80 -3 21 22 37 29 68 29 65 0 68 0 60 20 -4 9 -7
34 -6 55 2 36 -1 39 -39 54 -43 17 -48 28 -26 58 14 20 11 54 -8 70 -46 42
-47 46 -36 166 6 62 15 119 21 125 6 7 30 16 54 20 31 4 56 17 87 45 24 21 46
39 51 39 4 0 7 5 7 11 0 5 -4 8 -9 5 -4 -3 -4 11 0 32 5 20 11 50 14 65 4 21
13 29 35 34 28 5 34 15 33 50 0 7 8 15 19 19 11 3 28 26 38 50 21 48 12 45
140 48 30 1 35 5 38 28 2 15 -1 35 -6 45 -7 12 -3 29 17 65 20 38 31 48 52 48
24 0 89 47 89 65 0 4 8 14 18 21 19 15 72 19 72 5 0 -4 24 -8 53 -8 28 1 63
-5 76 -12 l23 -13 -23 -12 c-19 -9 -25 -21 -27 -56 -3 -41 1 -49 33 -80 31
-30 38 -33 48 -20 7 8 24 16 39 16 29 2 56 23 74 58 7 14 19 20 37 19 17 -1
37 8 54 23 15 14 35 23 45 21 9 -3 25 4 34 14 23 25 40 24 68 -6 l23 -25 29
22 c16 13 38 34 50 47 12 14 32 24 50 25 22 1 35 10 53 38 20 31 27 35 42 28
12 -7 33 -6 63 2 35 9 49 20 63 45 10 20 26 33 38 34 75 3 147 1 170 -5 14 -4
41 -2 58 3 18 5 58 15 91 21 50 10 60 10 74 -4 14 -14 15 -20 3 -37 -8 -14 -9
-25 -3 -31 14 -14 29 -3 47 35 14 29 19 32 58 31 24 -1 61 -7 82 -14 33 -11
42 -10 81 9 24 12 46 26 49 32 9 14 45 11 51 -6 8 -20 60 -9 101 21 17 13 36
24 42 24 5 0 18 10 28 23 13 16 30 22 62 24 32 1 49 7 61 22 36 49 123 65 224
42 28 -6 52 -8 55 -4 3 5 34 9 67 11 60 3 62 2 82 -30 73 -113 104 -144 116
-112 5 12 9 13 27 2 62 -38 63 -38 81 -21 24 21 45 11 63 -33 8 -21 24 -44 35
-51 11 -8 20 -20 20 -27 0 -23 137 -148 197 -180 57 -31 133 -96 133 -114 0
-15 59 -62 76 -62 9 0 23 7 32 16 12 12 27 15 58 10 39 -5 45 -3 66 23 28 35
69 49 173 62 116 15 135 13 166 -17 16 -15 34 -24 43 -21 8 3 20 -1 26 -9 7
-8 18 -14 25 -14 7 0 20 -11 29 -25 9 -14 25 -25 36 -25 10 0 22 -5 25 -11 4
-5 18 -14 31 -19 16 -7 24 -17 24 -34 0 -14 9 -31 19 -38 10 -8 28 -29 40 -49
27 -46 64 -67 85 -49 13 10 21 8 47 -14 32 -27 54 -33 63 -17 4 5 24 0 46 -12
38 -20 40 -25 35 -54 -7 -39 11 -45 25 -8 5 14 15 25 21 25 17 0 79 62 72 73
-3 5 -1 19 5 30 6 12 13 34 16 50 4 18 13 27 26 27 17 0 20 5 16 35 -3 19 -1
35 4 35 5 0 10 10 12 23 2 14 10 22 23 23 41 2 45 5 45 33 0 16 7 36 15 45 8
8 15 24 15 36 0 20 4 21 40 15 38 -6 45 -2 42 27 -1 3 6 12 15 19 13 12 18 10
31 -9 15 -23 42 -30 42 -11 0 5 4 8 9 5 13 -8 34 21 28 39 -4 8 -2 17 3 20 6
4 10 13 10 21 0 9 14 27 30 41 20 16 30 34 30 53 0 15 10 40 22 56 12 16 23
31 25 33 1 2 9 -2 18 -9 23 -19 93 -30 99 -15 4 11 63 22 159 29 40 3 137 -35
137 -53 0 -6 17 -9 38 -8 25 1 51 -7 77 -22 22 -14 50 -23 61 -22 15 1 32 -11
54 -39 47 -60 66 -67 99 -37 29 27 61 41 61 27 0 -17 41 -33 53 -21 16 16 87
14 93 -2 5 -15 90 -18 111 -4 7 4 21 3 32 -3 11 -5 28 -10 38 -10 10 0 29 -9
43 -20 14 -11 35 -20 46 -20 12 0 24 -7 28 -15 8 -21 23 -19 44 6 41 52 81 89
96 90 9 1 21 3 26 4 6 1 14 3 19 4 5 0 13 10 16 21 4 11 11 17 17 14 12 -8 68
51 68 73 0 16 8 16 129 -3 38 -6 43 -5 38 9 -3 9 -2 19 3 22 5 3 26 41 47 85
31 65 42 80 63 82 14 2 25 9 25 18 0 8 9 32 19 53 16 33 17 44 8 75 -10 31 -9
39 4 49 13 9 15 22 11 50 -4 26 0 51 13 81 10 23 17 42 15 42 -15 0 39 84 79
123 39 39 53 47 72 43 28 -7 114 12 114 25 0 5 6 9 14 9 8 0 16 7 20 15 6 18
39 20 65 3 27 -17 47 -5 67 41 10 23 23 42 28 43 6 0 22 2 36 3 14 2 37 8 53
14 18 7 27 7 27 0 0 -6 7 -4 15 5 9 8 22 13 29 10 9 -3 17 3 21 15 3 12 11 21
16 21 6 0 8 -4 5 -9 -9 -14 31 -20 45 -7 9 8 11 7 6 -5 -6 -19 10 -39 33 -39
31 0 99 -40 127 -75 33 -41 39 -42 70 -13 21 20 25 20 61 6 27 -10 42 -12 54
-4 12 7 21 6 34 -5 9 -8 37 -14 61 -14 26 0 48 -6 52 -14 5 -7 13 -11 19 -7 6
3 13 2 16 -3 7 -11 71 2 91 19 9 7 15 18 14 24 -3 26 2 35 24 42 12 5 25 7 30
6 4 -1 7 2 7 7 0 8 32 24 52 26 3 0 20 13 38 28 25 22 43 29 83 31 29 1 62 -1
75 -6 13 -4 31 -4 41 1 9 5 35 12 58 14 37 5 81 21 93 36 23 27 102 42 115 20z
m-8495 -1123 c0 -3 -4 -8 -10 -11 -5 -3 -10 -1 -10 4 0 6 5 11 10 11 6 0 10
-2 10 -4z m-4001 -767 c-9 -6 -15 -3 -17 6 -2 8 -9 15 -15 16 -7 0 -3 4 8 8
25 10 45 -16 24 -30z m285 35 c9 -3 16 -10 16 -16 0 -5 -4 -7 -9 -3 -5 3 -17
-2 -25 -11 -9 -8 -16 -13 -16 -9 0 4 -7 0 -15 -8 -8 -9 -23 -14 -32 -12 -10 2
-20 4 -23 4 -3 1 74 55 87 60 1 1 8 -2 17 -5z m-24 -86 c0 -6 -7 -7 -16 -4 -9
3 -18 6 -20 6 -3 0 -3 4 1 10 7 11 35 2 35 -12z m40 -19 c0 -5 -4 -9 -10 -9
-5 0 -10 7 -10 16 0 8 5 12 10 9 6 -3 10 -10 10 -16z m30 -59 c13 -8 13 -10
-2 -10 -9 0 -20 5 -23 10 -8 13 5 13 25 0z m1744 -429 c4 -5 -3 -7 -14 -4 -23
6 -26 13 -6 13 8 0 17 -4 20 -9z m46 -1 c0 -5 -5 -10 -11 -10 -5 0 -7 5 -4 10
3 6 8 10 11 10 2 0 4 -4 4 -10z m40 -20 c0 -5 -2 -10 -4 -10 -3 0 -8 5 -11 10
-3 6 -1 10 4 10 6 0 11 -4 11 -10z m-96 -16 c5 -14 4 -15 -9 -4 -17 14 -19 20
-6 20 5 0 12 -7 15 -16z m69 -23 c3 -14 1 -18 -9 -14 -15 6 -18 16 -7 26 9 10
10 9 16 -12z m42 -2 c11 -16 1 -19 -13 -3 -7 8 -8 14 -3 14 5 0 13 -5 16 -11z
m-171 -10 c-3 -6 0 -15 7 -20 9 -6 10 -9 2 -9 -15 0 -26 17 -18 30 3 6 8 10
11 10 3 0 2 -5 -2 -11z m56 -8 c0 -5 -8 -15 -17 -22 -16 -12 -17 -12 -6 2 7 9
10 19 6 22 -3 4 -1 7 5 7 7 0 12 -4 12 -9z m170 -15 c-14 -13 -27 -22 -29 -20
-2 2 -10 -4 -17 -14 -12 -15 -12 -15 -7 6 3 12 11 22 18 22 7 0 15 7 19 15 3
8 13 15 23 15 15 0 14 -4 -7 -24z m-360 4 c0 -5 -4 -10 -10 -10 -5 0 -10 5
-10 10 0 6 5 10 10 10 6 0 10 -4 10 -10z m250 -6 c0 -8 -5 -12 -10 -9 -6 4 -8
11 -5 16 9 14 15 11 15 -7z m-24 -16 c18 -21 18 -22 0 -8 -17 13 -18 13 -14
-5 2 -11 11 -19 20 -19 14 1 15 -2 6 -22 -6 -13 -15 -24 -20 -24 -5 0 -7 4 -4
9 3 5 -1 23 -10 40 -8 17 -13 35 -9 41 8 14 9 13 31 -12z m-256 8 c0 -3 -4 -8
-10 -11 -5 -3 -10 -1 -10 4 0 6 5 11 10 11 6 0 10 -2 10 -4z m180 -37 c-9 -15
-15 -17 -30 -9 -11 6 -20 8 -20 5 0 -14 -2 -21 -11 -32 -6 -7 -6 -13 1 -16 6
-3 5 -4 -2 -3 -23 5 -21 39 3 57 17 13 27 15 36 7 10 -8 13 -6 13 6 0 10 5 14
10 11 7 -4 7 -13 0 -26z m40 -6 c0 -9 -3 -13 -7 -10 -3 4 -15 -1 -26 -10 -20
-18 -20 -18 -2 10 20 30 35 35 35 10z m-243 -18 c0 -8 -4 -15 -9 -15 -4 0 -8
7 -8 15 0 8 4 15 8 15 5 0 9 -7 9 -15z m113 5 c0 -5 -5 -10 -11 -10 -5 0 -7 5
-4 10 3 6 8 10 11 10 2 0 4 -4 4 -10z m70 -15 c0 -8 -7 -15 -15 -15 -16 0 -20
12 -8 23 11 12 23 8 23 -8z m-73 -20 c36 -32 17 -32 -22 0 -16 14 -25 25 -18
25 7 0 25 -11 40 -25z m222 22 c-2 -1 -12 -9 -21 -16 -15 -12 -18 -11 -18 3 0
10 8 16 22 16 12 0 19 -1 17 -3z m-99 -16 c0 -5 12 -11 27 -13 14 -2 28 -9 29
-16 1 -7 0 -8 -3 -2 -2 5 -14 10 -26 10 -21 -1 -20 -1 4 -17 21 -12 26 -23 24
-47 -1 -17 2 -34 8 -38 6 -4 9 -10 5 -13 -3 -4 -16 3 -28 15 -16 16 -19 24
-10 30 8 5 6 9 -6 14 -10 4 -15 4 -12 0 4 -4 3 -15 -3 -26 -12 -22 -21 -17
-26 11 -1 11 4 22 13 25 11 4 13 10 6 23 -28 48 -85 3 -78 -62 2 -22 2 -34 -1
-27 -3 6 -11 12 -18 12 -7 0 -16 -6 -18 -12 -3 -7 -6 -1 -6 13 -1 33 -22 52
-47 42 -18 -6 -18 -6 -1 14 9 11 14 23 10 27 -5 5 1 6 12 4 11 -2 19 -10 17
-16 -1 -9 7 -8 28 3 16 9 30 19 30 24 0 9 38 29 58 30 6 1 12 -3 12 -8z m115
-10 c-3 -6 -14 -11 -23 -11 -13 0 -13 2 4 14 21 15 30 14 19 -3z m-20 -31 c3
-5 -1 -10 -9 -10 -9 0 -16 5 -16 10 0 6 4 10 9 10 6 0 13 -4 16 -10z m-115
-10 c12 -8 12 -10 -2 -15 -9 -4 -15 -12 -12 -20 3 -7 -3 -15 -12 -19 -16 -6
-16 -7 1 -20 15 -11 16 -13 1 -13 -18 0 -18 0 -20 42 -2 27 10 54 24 54 3 1
12 -3 20 -9z m-267 -29 c3 -15 1 -18 -11 -14 -8 4 -13 2 -9 -3 3 -6 2 -16 -4
-24 -6 -12 -9 -9 -9 11 0 14 5 30 12 37 15 15 15 15 21 -7z m83 -17 c2 -14 0
-24 -3 -20 -3 3 -7 17 -9 32 -1 14 0 23 3 20 4 -3 8 -18 9 -32z m-32 -22 c-22
-5 -31 7 -14 18 9 6 17 5 22 -3 4 -7 1 -13 -8 -15z m-101 -6 c3 -8 0 -17 -8
-19 -11 -5 -13 6 -6 31 2 6 9 0 14 -12z m57 4 c0 -5 -2 -10 -4 -10 -3 0 -8 5
-11 10 -3 6 -1 10 4 10 6 0 11 -4 11 -10z m136 -18 c-18 -16 -18 -16 -6 6 6
13 14 21 18 18 3 -4 -2 -14 -12 -24z m-272 6 c-5 -8 -2 -9 9 -5 11 4 17 1 17
-9 0 -8 -5 -12 -11 -9 -6 4 -21 -3 -34 -15 -12 -12 -26 -17 -29 -12 -3 5 3 12
14 15 12 3 20 14 20 26 0 12 5 21 11 21 5 0 7 -5 3 -12z m231 -7 c-8 -14 -42
-14 -50 -1 -4 7 3 9 19 6 15 -3 26 0 26 6 0 6 3 9 6 5 3 -3 3 -10 -1 -16z
m-255 5 c0 -11 -19 -15 -25 -6 -3 5 1 10 9 10 9 0 16 -2 16 -4z m440 -6 c-13
-8 -12 -10 4 -10 12 0 16 -5 13 -14 -3 -8 -1 -17 6 -20 8 -3 8 -5 1 -5 -14 -1
-45 44 -37 53 4 3 11 6 17 6 6 0 4 -5 -4 -10z m-277 -25 c-3 -8 -9 -15 -14
-15 -10 0 -12 24 -3 33 11 11 24 -3 17 -18z m144 -17 c-3 -8 -6 -5 -6 6 -1 11
2 17 5 13 3 -3 4 -12 1 -19z m103 15 c-8 -3 -18 -11 -22 -17 -4 -6 -10 -7 -15
-3 -9 10 16 27 37 26 13 -1 13 -1 0 -6z m-165 -23 c-3 -5 -12 -10 -18 -10 -7
0 -6 4 3 10 19 12 23 12 15 0z m285 -5 c0 -2 -6 -5 -13 -8 -8 -3 -14 1 -14 8
0 7 6 11 14 8 7 -3 13 -6 13 -8z m-390 -5 c0 -5 -2 -10 -4 -10 -3 0 -8 5 -11
10 -3 6 -1 10 4 10 6 0 11 -4 11 -10z m60 0 c0 -5 -5 -10 -11 -10 -5 0 -7 5
-4 10 3 6 8 10 11 10 2 0 4 -4 4 -10z m100 -4 c0 -2 -8 -10 -17 -17 -16 -13
-17 -12 -4 4 13 16 21 21 21 13z m53 -8 c-6 -11 -31 -10 -37 1 -3 5 5 8 18 7
13 0 22 -4 19 -8z m-511 -10 c-7 -7 -12 -20 -12 -30 0 -10 -4 -18 -10 -18 -6
0 -6 9 0 24 5 13 6 27 3 30 -4 3 2 6 12 6 15 0 16 -3 7 -12z m111 -13 c-3 -9
-8 -14 -10 -11 -3 3 -2 9 2 15 9 16 15 13 8 -4z m432 5 c3 -5 1 -10 -4 -10 -6
0 -11 5 -11 10 0 6 2 10 4 10 3 0 8 -4 11 -10z m-471 -56 c3 -8 2 -12 -4 -9
-6 3 -10 10 -10 16 0 14 7 11 14 -7z m596 -20 c0 -8 -19 -13 -24 -6 -3 5 1 9
9 9 8 0 15 -2 15 -3z m-826 -39 c-7 -16 -24 -21 -24 -6 0 8 7 13 27 20 1 1 0
-6 -3 -14z m-127 -107 c-3 -7 -5 -2 -5 12 0 14 2 19 5 13 2 -7 2 -19 0 -25z
m93 22 c0 -5 -5 -10 -11 -10 -5 0 -7 5 -4 10 3 6 8 10 11 10 2 0 4 -4 4 -10z
m-165 -50 c-3 -5 -11 -10 -16 -10 -6 0 -7 5 -4 10 3 6 11 10 16 10 6 0 7 -4 4
-10z m1348 -15 c4 -8 2 -17 -3 -20 -6 -4 -10 3 -10 14 0 25 6 27 13 6z m-4282
-68 c-10 -9 -11 -8 -5 6 3 10 9 15 12 12 3 -3 0 -11 -7 -18z m2899 9 c0 -3 -4
-8 -10 -11 -5 -3 -10 -1 -10 4 0 6 5 11 10 11 6 0 10 -2 10 -4z m3030 -50 c0
-3 -4 -8 -10 -11 -5 -3 -10 -1 -10 4 0 6 5 11 10 11 6 0 10 -2 10 -4z m-3145
-16 c3 -5 1 -10 -4 -10 -6 0 -11 5 -11 10 0 6 2 10 4 10 3 0 8 -4 11 -10z
m3155 -52 c-1 -8 -6 -6 -15 6 -20 26 -19 42 0 22 8 -8 15 -21 15 -28z m-1062
12 c-13 -21 -28 -27 -28 -10 0 5 8 14 18 19 23 14 24 14 10 -9z m1097 10 c3
-5 2 -10 -4 -10 -5 0 -13 5 -16 10 -3 6 -2 10 4 10 5 0 13 -4 16 -10z m12 -42
c-1 -21 -21 -19 -25 4 -2 8 4 15 12 15 8 0 14 -9 13 -19z m-1240 -23 c0 -8 -4
-12 -9 -9 -5 3 -6 10 -3 15 9 13 12 11 12 -6z m-2061 -7 c4 -7 3 -10 -1 -5 -5
4 -17 -1 -28 -10 -19 -17 -20 -17 -8 5 13 25 26 28 37 10z m-2 -32 c-10 -8
-21 -12 -24 -10 -5 6 21 24 34 24 6 0 1 -6 -10 -14z m-2025 -40 c1 -5 -5 -3
-13 4 -8 6 -12 19 -9 27 6 14 8 14 14 -3 4 -10 8 -23 8 -28z m1931 34 c-8 -5
-19 -10 -25 -10 -5 0 -3 5 5 10 8 5 20 10 25 10 6 0 3 -5 -5 -10z m3450 6 c0
-3 -4 -8 -10 -11 -5 -3 -10 -1 -10 4 0 6 5 11 10 11 6 0 10 -2 10 -4z m-1663
-47 c-20 -32 -35 -22 -21 15 3 8 12 12 19 9 11 -4 12 -9 2 -24z m-1848 -22
c12 -15 12 -17 -3 -11 -9 3 -16 13 -16 22 0 8 1 13 3 11 1 -2 9 -12 16 -22z
m1861 -53 c0 -8 -8 -14 -17 -13 -12 0 -13 2 -5 6 10 4 10 8 1 19 -10 12 -9 13
5 8 9 -3 16 -12 16 -20z m-1972 -41 c0 -22 -1 -22 -14 -6 -17 23 -17 30 0 30
8 0 14 -11 14 -24z m2012 3 c0 -3 -4 -8 -10 -11 -5 -3 -10 -1 -10 4 0 6 5 11
10 11 6 0 10 -2 10 -4z m-2176 -87 c-3 -5 -10 -7 -15 -3 -5 3 -7 10 -3 15 3 5
10 7 15 3 5 -3 7 -10 3 -15z m-688 -26 c-3 -22 -38 -24 -44 -3 -4 12 -2 13 9
3 14 -14 30 -17 28 -5 -2 11 1 22 5 22 2 0 3 -8 2 -17z m602 -46 c17 -18 19
-24 8 -24 -8 0 -13 4 -10 9 3 4 1 8 -4 8 -6 0 -12 7 -16 15 -8 21 -3 19 22 -8z
m52 11 c0 -4 -7 -8 -15 -8 -8 0 -15 4 -15 8 0 5 7 9 15 9 8 0 15 -4 15 -9z
m3866 -56 c-17 -16 -18 -16 -5 5 7 12 15 20 18 17 3 -2 -3 -12 -13 -22z m48
12 c3 -9 -1 -25 -9 -37 -17 -24 -20 -15 -5 14 7 13 7 19 0 19 -5 0 -10 5 -10
10 0 16 17 12 24 -6z m10468 -26 c-7 -7 -12 -8 -12 -2 0 14 12 26 19 19 2 -3
-1 -11 -7 -17z m-14552 -68 c-7 -4 -9 -13 -6 -19 11 -17 -10 -13 -24 4 -10 12
-10 15 4 15 9 0 16 5 16 11 0 5 5 7 11 3 8 -5 8 -9 -1 -14z m4070 -45 c0 -2
-7 -5 -15 -9 -9 -3 -15 0 -15 9 0 9 6 12 15 9 8 -4 15 -7 15 -9z m-30 -165 c0
-5 -8 -10 -17 -10 -15 0 -16 2 -3 10 19 12 20 12 20 0z m100 -204 c0 -3 -4 -8
-10 -11 -5 -3 -10 -1 -10 4 0 6 5 11 10 11 6 0 10 -2 10 -4z m60 -127 c0 -5
-9 -4 -19 3 -11 7 -17 16 -14 20 5 10 33 -10 33 -23z m125 -89 c3 -5 1 -10 -4
-10 -6 0 -11 5 -11 10 0 6 2 10 4 10 3 0 8 -4 11 -10z m-15 -40 c0 -5 -2 -10
-4 -10 -3 0 -8 5 -11 10 -3 6 -1 10 4 10 6 0 11 -4 11 -10z m137 -33 c3 -4 -6
-7 -20 -7 -15 0 -30 0 -34 -1 -4 0 -9 4 -11 10 -4 12 53 9 65 -2z m-13 -63 c3
-8 2 -12 -4 -9 -6 3 -10 10 -10 16 0 14 7 11 14 -7z m176 -274 c0 -5 -5 -10
-11 -10 -5 0 -7 5 -4 10 3 6 8 10 11 10 2 0 4 -4 4 -10z m69 -152 c-14 -25
-16 -23 -11 13 3 21 7 27 13 18 4 -7 3 -21 -2 -31z m-4774 -186 c17 -6 24 -11
17 -11 -7 -1 -10 -6 -7 -11 4 -6 10 -8 15 -5 5 3 17 -9 26 -27 17 -32 17 -32
27 -10 6 12 14 22 19 22 13 0 9 -28 -4 -33 -8 -4 -7 -6 4 -6 9 -1 24 6 32 15
10 10 16 11 16 4 0 -7 7 -9 16 -6 8 3 12 2 9 -4 -3 -6 2 -10 12 -10 12 0 14
-3 6 -8 -6 -4 6 -8 29 -8 22 -1 44 -8 49 -15 7 -11 9 -11 9 -1 0 10 9 12 32 7
27 -6 30 -5 24 10 -6 17 -6 17 42 -2 7 -3 12 2 12 12 0 12 8 16 33 15 50 -3
57 -1 57 16 0 8 5 12 10 9 6 -4 8 -10 6 -14 -3 -3 4 -7 14 -7 10 0 16 5 13 10
-4 5 1 7 11 3 10 -4 21 -7 26 -7 4 0 13 -14 20 -31 9 -22 16 -27 24 -19 8 8 7
13 -4 20 -17 11 -16 11 63 13 51 2 57 0 58 -18 0 -13 3 -15 6 -6 5 11 7 11 14
0 7 -11 9 -11 9 -1 0 7 4 11 10 7 5 -3 7 -12 3 -20 -4 -11 2 -15 23 -15 16 0
25 -4 19 -8 -22 -16 -13 -43 16 -49 16 -3 32 -10 35 -14 3 -5 12 -9 21 -9 19
0 63 -46 63 -66 0 -8 11 -14 28 -15 16 -1 20 -3 10 -6 -24 -6 -23 -30 2 -43
l21 -11 -21 -26 c-19 -24 -19 -27 -4 -45 10 -10 25 -18 36 -18 10 0 18 -5 18
-10 0 -6 8 -5 19 2 11 7 17 16 14 22 -4 5 3 7 16 3 13 -3 20 -3 17 0 -9 10 18
28 44 29 14 0 32 2 40 5 10 3 14 -2 12 -13 -1 -9 2 -19 8 -23 5 -3 10 -1 10 4
0 6 5 11 11 11 5 0 7 -5 4 -11 -5 -7 3 -9 24 -6 17 3 33 1 37 -4 3 -5 9 -7 14
-4 5 3 15 -1 22 -9 8 -7 24 -17 36 -20 12 -4 22 -11 22 -15 0 -4 16 -7 35 -8
22 -1 33 3 28 10 -3 6 -1 7 6 3 12 -8 1 -29 -24 -49 -5 -4 1 -6 15 -5 20 2 24
-1 22 -16 -3 -18 -2 -18 13 -2 20 19 37 12 28 -12 -5 -14 -3 -15 8 -4 7 6 18
12 24 12 5 0 3 -5 -5 -10 -13 -9 -13 -11 0 -19 22 -14 57 -44 43 -36 -13 6
-14 3 -17 -62 -1 -22 -9 -38 -24 -49 -18 -13 -21 -19 -11 -30 9 -11 9 -21 -2
-42 -18 -36 -18 -55 1 -69 8 -7 11 -13 6 -13 -5 0 -18 7 -28 17 -14 13 -18 13
-18 2 -1 -10 -5 -8 -15 5 -8 11 -15 18 -16 15 0 -2 -2 -11 -4 -20 -1 -9 2 -16
9 -16 39 1 50 -3 38 -15 -15 -15 -16 -42 -2 -33 6 4 8 11 5 16 -4 5 5 4 19 -3
14 -6 26 -15 26 -20 0 -12 -18 -10 -22 4 -3 9 -6 9 -12 0 -3 -6 2 -20 14 -32
11 -11 16 -20 11 -20 -5 0 -17 7 -26 16 -20 21 -30 12 -16 -14 8 -14 8 -29 1
-47 -15 -40 -13 -43 29 -47 37 -3 39 -2 28 17 -6 13 -12 15 -15 7 -5 -15 -29
-16 -38 0 -5 8 -2 9 10 5 14 -6 16 -3 11 13 -4 11 -2 20 4 20 6 0 11 -4 11
-10 0 -5 5 -10 11 -10 6 0 9 9 6 20 -3 11 -1 18 4 14 5 -3 9 4 9 14 0 11 15
37 33 57 17 20 31 38 29 41 -1 2 7 14 18 26 14 15 17 25 9 34 -7 9 -5 12 8 10
11 0 18 5 17 16 -1 10 4 14 11 11 8 -2 19 8 27 24 11 23 19 28 48 27 21 -1 39
4 46 14 10 14 13 13 25 -5 7 -12 19 -19 27 -15 11 4 10 -1 -3 -22 -10 -15 -15
-29 -11 -33 3 -3 6 -1 6 5 0 7 10 12 23 12 18 0 19 -2 7 -10 -13 -8 -12 -10 3
-10 10 0 30 -8 45 -17 25 -16 26 -16 14 -1 -13 16 -11 17 17 13 17 -2 31 1 31
6 0 5 5 9 11 9 5 0 8 -4 5 -8 -2 -4 -1 -14 4 -22 7 -11 11 -11 23 -1 23 19 31
-4 11 -34 -15 -23 -15 -25 1 -25 11 0 15 5 11 16 -3 9 -2 12 5 9 5 -4 7 -16 3
-28 -6 -19 -5 -20 8 -9 16 13 48 7 48 -10 0 -6 -6 -5 -15 2 -18 15 -19 7 -4
-18 8 -13 20 -17 37 -14 17 3 23 1 18 -6 -4 -7 5 -5 20 3 15 7 34 11 43 7 21
-8 41 -28 41 -41 0 -5 12 -11 28 -13 15 -2 26 -8 25 -14 -1 -7 8 -9 22 -6 15
2 25 0 25 -7 0 -6 9 -11 19 -11 12 0 18 -7 17 -17 0 -11 6 -18 15 -17 9 1 16
-4 17 -10 7 -71 6 -148 -1 -153 -6 -3 -7 -2 -4 4 4 6 -9 10 -31 11 -27 0 -32
-2 -17 -7 18 -7 17 -9 -10 -24 -17 -9 -26 -16 -22 -17 5 0 -1 -14 -13 -31 -12
-16 -20 -33 -16 -36 9 -10 -48 -54 -63 -48 -11 4 -12 3 -1 -10 10 -13 9 -15
-9 -15 -12 0 -20 -4 -17 -9 4 -5 -6 -12 -21 -15 -16 -4 -39 -9 -53 -13 -14 -3
-40 -6 -57 -6 -18 0 -33 -4 -33 -9 0 -6 -7 -8 -15 -4 -8 3 -15 2 -15 -2 0 -5
-15 -8 -34 -8 -24 0 -32 4 -29 13 3 7 -2 13 -11 13 -9 0 -16 8 -16 20 0 11 -6
20 -14 20 -8 0 -17 8 -21 18 -6 16 -7 16 -19 0 -13 -17 -75 -21 -87 -5 -3 5
-22 9 -42 10 -24 1 -32 5 -26 13 14 17 8 105 -8 111 -10 4 -11 9 -2 19 11 13
2 19 -23 15 -4 0 -5 5 -2 12 3 9 -8 12 -42 11 -54 -2 -86 5 -78 17 8 13 -10
11 -25 -3 -11 -11 -12 -10 -5 2 11 20 13 50 2 44 -4 -3 -8 1 -8 8 -1 7 -7 -1
-14 -18 -17 -38 -30 -47 -67 -46 -16 0 -29 -3 -29 -7 0 -4 -9 -7 -20 -8 -13
-1 -18 2 -13 10 3 7 -2 5 -13 -4 -11 -10 -36 -17 -60 -17 -31 1 -49 -6 -69
-25 -16 -14 -34 -23 -41 -20 -8 3 -14 -1 -14 -8 0 -10 -3 -10 -12 -1 -8 8 -15
9 -25 1 -7 -7 -13 -8 -13 -5 0 4 -7 1 -15 -8 -8 -8 -15 -19 -15 -24 0 -14 -55
-35 -98 -37 -20 -1 -40 -3 -43 -4 -7 -1 -33 -53 -31 -62 0 -3 -6 -6 -14 -6
-10 0 -12 7 -8 20 5 16 2 18 -15 12 -13 -4 -21 -2 -21 5 0 7 -8 10 -20 7 -10
-3 -21 0 -22 5 -5 14 -61 13 -66 -1 -6 -19 -60 -13 -75 10 -13 18 -18 19 -37
9 -12 -7 -20 -8 -16 -2 3 5 -5 13 -19 16 -16 4 -25 13 -25 26 0 11 -6 20 -14
20 -7 0 -19 7 -26 15 -7 8 -17 12 -24 9 -6 -3 -2 2 9 11 20 17 20 17 -5 10
l-25 -7 23 21 c26 26 28 37 6 45 -25 10 -31 7 -37 -15 -8 -30 -49 -22 -58 11
-4 14 -7 21 -8 16 -1 -5 -10 -1 -20 8 -14 13 -31 16 -65 13 -38 -4 -46 -2 -46
11 0 12 -3 13 -8 5 -9 -14 -30 6 -52 47 -6 12 -17 19 -24 17 -17 -7 -13 29 8
68 11 21 12 31 4 36 -9 6 -9 11 1 22 18 23 1 27 -44 10 -54 -20 -195 -24 -195
-6 0 8 -7 16 -15 19 -8 4 -13 10 -10 14 6 10 -15 60 -25 60 -13 0 -51 79 -40
85 16 10 12 22 -10 28 -11 3 -20 2 -20 -2 0 -12 -54 -5 -58 7 -2 7 1 12 6 12
5 0 9 11 8 25 -1 31 -15 32 -49 2 -27 -23 -38 -45 -15 -31 7 4 8 3 4 -5 -4 -6
-11 -9 -16 -6 -5 3 -18 1 -29 -4 -26 -14 -48 10 -29 30 19 20 39 69 33 80 -4
5 1 9 9 9 9 0 16 5 16 10 0 6 5 10 12 10 6 0 20 7 30 16 13 13 21 14 31 6 10
-9 20 -5 40 13 21 21 25 32 23 68 -2 40 0 44 18 39 12 -3 18 -2 14 2 -13 15
-165 15 -192 1 -22 -12 -26 -12 -26 1 0 10 -5 12 -12 8 -7 -5 -33 -9 -57 -11
-24 -1 -47 -6 -50 -10 -3 -5 -13 -8 -21 -8 -8 1 -23 -3 -33 -7 -21 -11 -60 -1
-52 13 4 5 14 5 25 -1 11 -6 21 -6 24 -1 4 5 -8 12 -25 16 -28 6 -29 8 -12 21
12 9 13 13 5 14 -7 0 -10 4 -7 10 3 5 0 7 -8 4 -8 -3 -18 -1 -21 5 -4 6 -14 7
-23 4 -13 -5 -15 -1 -9 23 4 16 8 36 9 44 1 8 8 21 15 29 10 10 11 16 2 21
-16 10 -1 18 32 16 15 -1 25 0 23 3 -3 2 5 9 17 15 13 6 28 21 34 34 6 12 14
19 18 15 4 -4 4 7 1 25 -4 24 -1 34 10 39 9 3 14 12 11 19 -3 8 0 11 10 7 14
-5 19 8 7 21 -4 3 -8 17 -10 29 -2 16 -1 18 6 8 10 -15 31 -7 31 13 0 7 6 13
14 13 8 0 12 -7 9 -16 -5 -13 -3 -13 8 1 19 23 63 30 85 13 14 -9 25 -10 44
-3 83 34 128 38 185 20z m4970 -92 c-3 -5 -11 -10 -16 -10 -6 0 -7 5 -4 10 3
6 11 10 16 10 6 0 7 -4 4 -10z m20 -27 c-19 -13 -31 -11 -21 5 3 5 13 9 22 9
15 0 15 -2 -1 -14z m35 -158 c-7 -9 -15 -13 -17 -11 -7 7 7 26 19 26 6 0 6 -6
-2 -15z m9490 -46 c0 -5 -4 -9 -10 -9 -5 0 -10 7 -10 16 0 8 5 12 10 9 6 -3
10 -10 10 -16z m-9480 -29 c0 -5 -2 -10 -4 -10 -3 0 -8 5 -11 10 -3 6 -1 10 4
10 6 0 11 -4 11 -10z m73 -7 c3 7 6 5 6 -5 1 -23 -22 -23 -40 -1 -13 15 -12
15 8 5 16 -9 23 -9 26 1z m9495 -40 c-5 -7 -7 -17 -3 -23 10 -16 -32 -12 -49
6 -25 24 -16 49 19 56 25 5 48 -22 33 -39z m-9544 22 c3 -8 1 -15 -4 -15 -6 0
-10 7 -10 15 0 8 2 15 4 15 2 0 6 -7 10 -15z m86 -16 c0 -5 -4 -9 -10 -9 -5 0
-10 7 -10 16 0 8 5 12 10 9 6 -3 10 -10 10 -16z m-5680 -9 c0 -5 -5 -10 -11
-10 -5 0 -7 5 -4 10 3 6 8 10 11 10 2 0 4 -4 4 -10z m5665 -50 c-7 -11 -45
-19 -45 -10 0 9 17 17 37 17 7 0 10 -4 8 -7z m-5632 -58 c-3 -12 -9 -19 -14
-16 -5 3 -4 14 2 25 13 26 20 21 12 -9z m5687 -117 c0 -12 -19 -12 -23 0 -4 9
-1 12 9 8 7 -3 14 -7 14 -8z m-3532 -4 c11 -6 9 -9 -5 -13 -12 -3 -20 0 -20 8
0 16 6 17 25 5z m-1928 -16 c-7 -9 -15 -13 -19 -10 -3 3 1 10 9 15 21 14 24
12 10 -5z m1864 0 c-6 -16 -24 -21 -24 -7 0 11 11 22 21 22 5 0 6 -7 3 -15z
m3586 -25 c0 -5 -2 -10 -4 -10 -3 0 -8 5 -11 10 -3 6 -1 10 4 10 6 0 11 -4 11
-10z m-3285 -30 c8 7 12 5 12 -5 0 -8 -3 -15 -6 -16 -36 -5 -52 -4 -63 3 -10
8 -10 11 0 15 6 2 9 10 5 16 -3 6 4 3 17 -6 16 -11 28 -13 35 -7z m3295 -19
c0 -4 -6 -8 -14 -8 -8 0 -12 6 -9 14 5 13 23 9 23 -6z m55 9 c-3 -5 -12 -10
-18 -10 -7 0 -6 4 3 10 19 12 23 12 15 0z m41 -168 c8 -5 6 -13 -6 -25 -12
-12 -20 -15 -25 -8 -3 6 -1 11 5 11 7 0 10 7 6 15 -6 16 2 19 20 7z m24 -122
c0 -5 -5 -10 -11 -10 -5 0 -7 5 -4 10 3 6 8 10 11 10 2 0 4 -4 4 -10z m33 -65
c22 7 22 7 0 -10 -24 -17 -30 -35 -12 -35 5 0 7 5 4 10 -3 6 -1 10 4 10 13 0
14 -10 2 -29 -7 -10 -12 -8 -24 9 -9 12 -13 29 -10 36 3 8 0 14 -7 14 -6 0 -8
5 -4 11 5 8 10 6 16 -5 6 -12 16 -15 31 -11z m-49 -103 c2 -4 -4 -9 -15 -9
-10 -1 -19 2 -19 8 0 11 27 12 34 1z m-67 -28 c-3 -3 -12 -4 -19 -1 -8 3 -5 6
6 6 11 1 17 -2 13 -5z m-82 -64 c3 -5 1 -10 -4 -10 -6 0 -11 5 -11 10 0 6 2
10 4 10 3 0 8 -4 11 -10z m120 -10 c3 -6 -1 -7 -9 -4 -18 7 -21 14 -7 14 6 0
13 -4 16 -10z m-130 -80 c3 -5 1 -10 -4 -10 -6 0 -11 5 -11 10 0 6 2 10 4 10
3 0 8 -4 11 -10z m-141 -255 c3 -8 1 -15 -4 -15 -6 0 -10 7 -10 15 0 8 2 15 4
15 2 0 6 -7 10 -15z m1 -99 c0 -15 -4 -21 -9 -16 -5 5 -6 16 -3 24 9 22 12 20
12 -8z m3810 -286 c-3 -5 -13 -10 -21 -10 -8 0 -14 5 -14 10 0 6 9 10 21 10
11 0 17 -4 14 -10z"/>
<path d="M16340 9631 c0 -10 6 -24 14 -30 20 -17 40 17 21 36 -19 19 -35 16
-35 -6z"/>
<path d="M13585 9349 c7 -11 35 -12 35 -1 0 4 -9 8 -20 9 -11 1 -18 -2 -15 -8z"/>
<path d="M13050 9190 c0 -5 5 -10 10 -10 6 0 10 5 10 10 0 6 -4 10 -10 10 -5
0 -10 -4 -10 -10z"/>
<path d="M16068 8603 c-9 -10 -19 -38 -23 -62 -4 -24 -10 -39 -14 -34 -19 30
-81 40 -81 13 0 -6 4 -9 9 -6 5 3 8 -2 7 -10 0 -10 11 -21 31 -28 18 -6 39
-20 47 -31 9 -12 15 -15 16 -7 0 31 51 -36 58 -78 7 -39 11 -45 32 -45 14 0
28 -4 31 -8 9 -12 50 48 53 77 1 13 12 36 24 51 25 32 26 34 8 57 -8 11 -20
15 -34 11 -16 -4 -30 3 -52 27 -28 30 -32 32 -60 20 -17 -7 -30 -18 -30 -26 0
-7 -5 -16 -12 -20 -6 -4 -8 -3 -4 4 3 5 0 12 -6 15 -10 3 -10 9 0 26 34 58 34
93 0 54z m-71 -105 c-3 -8 -6 -5 -6 6 -1 11 2 17 5 13 3 -3 4 -12 1 -19z"/>
<path d="M3115 8360 c-11 -5 -16 -9 -12 -9 4 -1 3 -10 -3 -22 -17 -30 -3 -37
18 -8 13 19 26 51 19 48 -1 0 -11 -4 -22 -9z"/>
<path d="M3090 8150 c0 -5 5 -10 10 -10 6 0 10 5 10 10 0 6 -4 10 -10 10 -5 0
-10 -4 -10 -10z"/>
<path d="M5931 7996 c7 -14 17 -22 25 -19 18 7 18 13 -3 29 -27 20 -34 17 -22
-10z"/>
<path d="M6177 8013 c-24 -6 -20 -60 5 -66 10 -3 18 -1 18 4 0 5 7 9 16 9 8 0
13 4 9 10 -3 5 -13 6 -22 3 -13 -5 -15 -2 -9 20 3 15 5 26 4 26 -2 -1 -11 -3
-21 -6z"/>
<path d="M5660 7990 c0 -5 5 -10 11 -10 5 0 7 5 4 10 -3 6 -8 10 -11 10 -2 0
-4 -4 -4 -10z"/>
<path d="M5911 7984 c0 -11 3 -14 6 -6 3 7 2 16 -1 19 -3 4 -6 -2 -5 -13z"/>
<path d="M5689 7973 c-13 -16 -12 -17 4 -4 9 7 17 15 17 17 0 8 -8 3 -21 -13z"/>
<path d="M5590 7949 c0 -5 5 -7 10 -4 6 3 10 8 10 11 0 2 -4 4 -10 4 -5 0 -10
-5 -10 -11z"/>
<path d="M5666 7927 c-5 -21 -11 -27 -22 -23 -29 11 -36 -6 -9 -20 34 -17 36
-17 29 0 -3 8 5 24 18 36 13 13 18 20 11 16 -6 -3 -13 -1 -15 6 -3 7 -8 0 -12
-15z"/>
<path d="M5152 7809 c2 -7 10 -15 17 -17 8 -3 12 1 9 9 -2 7 -10 15 -17 17 -8
3 -12 -1 -9 -9z"/>
<path d="M5130 7779 c0 -5 5 -7 10 -4 6 3 10 8 10 11 0 2 -4 4 -10 4 -5 0 -10
-5 -10 -11z"/>
<path d="M5120 7742 c0 -7 3 -11 8 -9 4 3 13 -1 20 -9 7 -8 8 -14 3 -14 -6 0
-8 -7 -4 -16 4 -11 9 -12 17 -4 7 7 7 16 -2 31 -7 11 -11 23 -8 27 2 4 -4 8
-15 8 -10 0 -19 -6 -19 -14z"/>
<path d="M5060 7736 c0 -2 7 -9 15 -16 13 -11 14 -10 9 4 -5 14 -24 23 -24 12z"/>
<path d="M4805 7719 c-4 -6 -5 -12 -2 -15 2 -3 7 2 10 11 7 17 1 20 -8 4z"/>
<path d="M5049 7707 c6 -8 7 -18 3 -22 -4 -5 -1 -5 6 -1 10 6 10 11 1 22 -6 8
-14 14 -16 14 -3 0 0 -6 6 -13z"/>
<path d="M4956 7677 c3 -10 9 -15 12 -12 3 3 0 11 -7 18 -10 9 -11 8 -5 -6z"/>
<path d="M4800 7651 c-6 -11 -6 -22 -1 -25 5 -3 11 5 13 19 6 30 2 32 -12 6z"/>
<path d="M5015 7660 c3 -5 8 -10 11 -10 2 0 4 5 4 10 0 6 -5 10 -11 10 -5 0
-7 -4 -4 -10z"/>
<path d="M4860 7605 c-8 -9 -8 -15 -2 -15 12 0 26 19 19 26 -2 2 -10 -2 -17
-11z"/>
<path d="M5570 7609 c0 -5 5 -7 10 -4 6 3 10 8 10 11 0 2 -4 4 -10 4 -5 0 -10
-5 -10 -11z"/>
<path d="M5598 7593 c7 -3 16 -2 19 1 4 3 -2 6 -13 5 -11 0 -14 -3 -6 -6z"/>
<path d="M4705 7580 c-3 -5 -1 -10 4 -10 6 0 11 5 11 10 0 6 -2 10 -4 10 -3 0
-8 -4 -11 -10z"/>
<path d="M4685 7550 c-9 -14 1 -27 25 -33 11 -3 18 -1 14 4 -3 5 -12 9 -19 9
-9 0 -12 6 -9 15 7 17 -1 20 -11 5z"/>
<path d="M4640 7540 c0 -6 4 -9 9 -6 5 4 12 1 14 -4 3 -6 4 -5 3 2 -3 15 -26
23 -26 8z"/>
<path d="M4760 7540 c-9 -6 -10 -10 -3 -10 6 0 15 5 18 10 8 12 4 12 -15 0z"/>
<path d="M5616 7524 c-5 -14 -4 -15 9 -4 17 14 19 20 6 20 -5 0 -12 -7 -15
-16z"/>
<path d="M4725 7440 c-3 -5 -1 -10 4 -10 6 0 11 5 11 10 0 6 -2 10 -4 10 -3 0
-8 -4 -11 -10z"/>
<path d="M4510 7411 c0 -6 4 -12 8 -15 5 -3 9 1 9 9 0 8 -4 15 -9 15 -4 0 -8
-4 -8 -9z"/>
<path d="M5730 7395 c0 -8 4 -15 10 -15 5 0 7 7 4 15 -4 8 -8 15 -10 15 -2 0
-4 -7 -4 -15z"/>
<path d="M4490 7377 c0 -14 4 -28 8 -31 9 -5 8 41 -1 51 -4 3 -7 -5 -7 -20z"/>
<path d="M4545 7379 c-4 -6 -4 -13 0 -17 4 -4 10 -1 12 6 3 6 10 9 15 6 7 -4
8 -2 4 4 -9 15 -23 15 -31 1z"/>
<path d="M4415 7330 c3 -5 8 -10 11 -10 2 0 4 5 4 10 0 6 -5 10 -11 10 -5 0
-7 -4 -4 -10z"/>
<path d="M4396 7275 c-3 -8 -1 -15 4 -15 13 0 22 18 11 24 -5 3 -11 -1 -15 -9z"/>
<path d="M18220 7240 c-13 -8 -12 -10 3 -10 9 0 17 5 17 10 0 12 -1 12 -20 0z"/>
<path d="M7180 7229 c0 -5 9 -9 20 -9 11 0 20 2 20 4 0 2 -9 6 -20 9 -11 3
-20 1 -20 -4z"/>
<path d="M4335 7211 c-3 -5 -2 -12 3 -15 5 -3 9 1 9 9 0 17 -3 19 -12 6z"/>
<path d="M7430 7205 c0 -8 -4 -15 -10 -15 -5 0 -10 5 -10 10 0 6 -4 10 -10 10
-14 0 -1 -28 17 -34 16 -7 45 23 37 36 -9 14 -24 9 -24 -7z"/>
<path d="M4270 7200 c18 -12 30 -13 30 -2 0 4 -10 9 -22 9 -18 2 -20 0 -8 -7z"/>
<path d="M7465 7190 c-15 -17 -16 -20 -3 -20 9 0 18 9 21 20 3 11 4 20 3 20
-2 0 -11 -9 -21 -20z"/>
<path d="M6255 7130 c-3 -5 -1 -10 4 -10 6 0 11 5 11 10 0 6 -2 10 -4 10 -3 0
-8 -4 -11 -10z"/>
<path d="M6286 7113 c-3 -4 -6 -11 -6 -16 0 -6 3 -7 7 -4 3 4 12 2 20 -5 20
-17 22 -6 2 14 -9 9 -20 14 -23 11z"/>
<path d="M6190 7088 c0 -15 18 -17 30 -3 9 11 8 14 -9 12 -12 -1 -21 -5 -21
-9z"/>
<path d="M18162 7073 c5 -25 28 -28 28 -4 0 12 -6 21 -16 21 -9 0 -14 -7 -12
-17z"/>
<path d="M4037 6959 c7 -7 15 -10 18 -7 3 3 -2 9 -12 12 -14 6 -15 5 -6 -5z"/>
<path d="M3050 6920 c-8 -5 -12 -12 -9 -15 4 -3 12 1 19 10 14 17 11 19 -10 5z"/>
<path d="M3970 6919 c0 -5 5 -7 10 -4 6 3 10 8 10 11 0 2 -4 4 -10 4 -5 0 -10
-5 -10 -11z"/>
<path d="M4005 6912 c-12 -8 -17 -44 -5 -37 6 4 22 45 17 45 -1 0 -6 -4 -12
-8z"/>
<path d="M2885 6879 c-4 -6 -5 -12 -2 -15 2 -3 7 2 10 11 7 17 1 20 -8 4z"/>
<path d="M3180 6858 c0 -4 4 -8 9 -8 6 0 12 4 15 8 3 5 -1 9 -9 9 -8 0 -15 -4
-15 -9z"/>
<path d="M7629 6853 c-13 -16 -12 -17 4 -4 9 7 17 15 17 17 0 8 -8 3 -21 -13z"/>
<path d="M7665 6830 c3 -5 8 -10 11 -10 2 0 4 5 4 10 0 6 -5 10 -11 10 -5 0
-7 -4 -4 -10z"/>
<path d="M3175 6810 c4 -6 11 -8 16 -5 14 9 11 15 -7 15 -8 0 -12 -5 -9 -10z"/>
<path d="M3865 6799 c-4 -6 -5 -12 -2 -15 2 -3 7 2 10 11 7 17 1 20 -8 4z"/>
<path d="M7663 6775 c0 -8 4 -12 9 -9 5 3 6 10 3 15 -9 13 -12 11 -12 -6z"/>
<path d="M3210 6769 c0 -5 5 -7 10 -4 6 3 10 8 10 11 0 2 -4 4 -10 4 -5 0 -10
-5 -10 -11z"/>
<path d="M3746 6734 c-9 -24 -7 -36 4 -29 6 4 8 10 5 15 -3 4 0 10 7 12 8 3 9
6 1 11 -6 4 -14 0 -17 -9z"/>
<path d="M3167 6725 c-15 -11 -16 -13 -2 -19 9 -3 18 1 22 10 8 21 1 25 -20 9z"/>
<path d="M7657 6722 c-3 -4 -2 -14 2 -23 5 -13 9 -14 17 -5 8 9 7 15 -2 24 -7
6 -15 8 -17 4z"/>
<path d="M3425 6701 c-3 -5 -2 -12 3 -15 5 -3 9 1 9 9 0 17 -3 19 -12 6z"/>
<path d="M7625 6700 c-3 -5 1 -10 9 -10 9 0 16 5 16 10 0 6 -4 10 -9 10 -6 0
-13 -4 -16 -10z"/>
<path d="M3186 6683 c-5 -12 -4 -13 7 -5 8 7 16 9 19 6 3 -3 8 -1 11 3 3 5 -3
9 -13 10 -10 1 -21 -5 -24 -14z"/>
<path d="M3289 6673 c-13 -17 -13 -17 6 -3 11 8 22 16 24 17 2 2 0 3 -6 3 -6
0 -17 -8 -24 -17z"/>
<path d="M3240 6670 c0 -5 5 -10 11 -10 5 0 7 5 4 10 -3 6 -8 10 -11 10 -2 0
-4 -4 -4 -10z"/>
<path d="M3440 6661 c0 -6 4 -12 8 -15 5 -3 9 1 9 9 0 8 -4 15 -9 15 -4 0 -8
-4 -8 -9z"/>
<path d="M3503 6653 c-3 -10 -8 -22 -11 -27 -3 -5 0 -6 6 -2 7 4 12 14 12 22
0 9 5 12 12 8 7 -4 8 -3 4 4 -10 16 -16 15 -23 -5z"/>
<path d="M3600 6660 c0 -5 5 -10 10 -10 6 0 10 5 10 10 0 6 -4 10 -10 10 -5 0
-10 -4 -10 -10z"/>
<path d="M7690 6660 c0 -5 5 -10 10 -10 6 0 10 5 10 10 0 6 -4 10 -10 10 -5 0
-10 -4 -10 -10z"/>
<path d="M3630 6628 c0 -19 2 -20 10 -8 13 19 13 30 0 30 -5 0 -10 -10 -10
-22z"/>
<path d="M7720 6639 c0 -5 5 -7 10 -4 6 3 10 8 10 11 0 2 -4 4 -10 4 -5 0 -10
-5 -10 -11z"/>
<path d="M3407 6623 c-4 -3 0 -18 8 -33 8 -15 11 -31 7 -35 -4 -5 1 -5 11 -2
10 4 23 7 28 7 5 0 9 6 9 14 0 9 -7 12 -20 9 -15 -4 -20 0 -20 15 0 22 -13 36
-23 25z"/>
<path d="M3547 6584 c5 -13 3 -15 -7 -9 -8 5 -11 3 -8 -5 2 -8 10 -16 16 -18
14 -4 16 34 2 43 -6 4 -7 -1 -3 -11z"/>
<path d="M3490 6580 c-8 -5 -12 -12 -9 -15 8 -8 39 5 39 16 0 11 -11 11 -30
-1z"/>
<path d="M7700 6569 c0 -5 5 -7 10 -4 6 3 10 8 10 11 0 2 -4 4 -10 4 -5 0 -10
-5 -10 -11z"/>
<path d="M7720 6505 c-7 -9 -8 -15 -2 -15 5 0 12 7 16 15 3 8 4 15 2 15 -2 0
-9 -7 -16 -15z"/>
<path d="M7740 6489 c0 -5 5 -7 10 -4 6 3 10 8 10 11 0 2 -4 4 -10 4 -5 0 -10
-5 -10 -11z"/>
<path d="M7781 6484 c0 -11 3 -14 6 -6 3 7 2 16 -1 19 -3 4 -6 -2 -5 -13z"/>
<path d="M7696 6435 c4 -8 11 -15 16 -15 6 0 5 6 -2 15 -7 8 -14 15 -16 15 -2
0 -1 -7 2 -15z"/>
<path d="M7656 6426 c3 -9 11 -16 16 -16 13 0 5 23 -10 28 -7 2 -10 -2 -6 -12z"/>
<path d="M7785 6170 c3 -5 8 -10 11 -10 2 0 4 5 4 10 0 6 -5 10 -11 10 -5 0
-7 -4 -4 -10z"/>
<path d="M7798 6113 c7 -3 16 -2 19 1 4 3 -2 6 -13 5 -11 0 -14 -3 -6 -6z"/>
<path d="M7900 6008 c0 -9 7 -19 16 -22 15 -6 15 -4 3 11 -7 10 -15 20 -16 22
-2 2 -3 -3 -3 -11z"/>
<path d="M7940 5989 c0 -5 5 -7 10 -4 6 3 10 8 10 11 0 2 -4 4 -10 4 -5 0 -10
-5 -10 -11z"/>
<path d="M7900 5949 c0 -5 5 -7 10 -4 6 3 10 8 10 11 0 2 -4 4 -10 4 -5 0 -10
-5 -10 -11z"/>
<path d="M8086 5792 c-4 -7 0 -19 8 -28 17 -17 19 -11 7 20 -5 14 -10 16 -15
8z"/>
<path d="M8140 5739 c0 -5 -4 -7 -10 -4 -5 3 -10 1 -10 -4 0 -6 9 -11 20 -11
13 0 18 5 14 15 -7 17 -14 20 -14 4z"/>
<path d="M8178 5733 c7 -3 16 -2 19 1 4 3 -2 6 -13 5 -11 0 -14 -3 -6 -6z"/>
<path d="M8140 5699 c0 -5 5 -7 10 -4 6 3 10 8 10 11 0 2 -4 4 -10 4 -5 0 -10
-5 -10 -11z"/>
<path d="M8110 5660 c0 -5 5 -10 10 -10 6 0 10 5 10 10 0 6 -4 10 -10 10 -5 0
-10 -4 -10 -10z"/>
<path d="M8170 5651 c0 -6 4 -12 8 -15 5 -3 9 1 9 9 0 8 -4 15 -9 15 -4 0 -8
-4 -8 -9z"/>
<path d="M8201 5591 c-8 -5 -9 -11 -3 -15 5 -3 12 1 16 9 6 17 6 18 -13 6z"/>
<path d="M8285 5501 c-3 -5 -2 -12 3 -15 5 -3 9 1 9 9 0 17 -3 19 -12 6z"/>
<path d="M8294 5455 c-5 -12 -10 -13 -20 -4 -11 9 -14 8 -14 -5 0 -22 22 -20
43 4 9 11 12 20 7 20 -6 0 -13 -7 -16 -15z"/>
<path d="M8570 4936 c0 -2 7 -9 15 -16 13 -11 14 -10 9 4 -5 14 -24 23 -24 12z"/>
<path d="M8606 4905 c-9 -26 -7 -32 5 -12 6 10 9 21 6 23 -2 3 -7 -2 -11 -11z"/>
<path d="M8576 4897 c3 -10 9 -15 12 -12 3 3 0 11 -7 18 -10 9 -11 8 -5 -6z"/>
<path d="M8610 4849 c0 -5 5 -7 10 -4 6 3 10 8 10 11 0 2 -4 4 -10 4 -5 0 -10
-5 -10 -11z"/>
<path d="M8695 4640 c-4 -6 -11 -8 -16 -5 -15 10 -10 -12 7 -29 19 -19 27 -21
21 -3 -2 6 0 20 5 30 9 18 -6 25 -17 7z"/>
<path d="M8720 4580 c0 -5 5 -10 11 -10 5 0 7 5 4 10 -3 6 -8 10 -11 10 -2 0
-4 -4 -4 -10z"/>
<path d="M8680 4565 c0 -8 4 -15 10 -15 5 0 7 7 4 15 -4 8 -8 15 -10 15 -2 0
-4 -7 -4 -15z"/>
<path d="M8730 4525 c-10 -12 -10 -15 2 -15 8 0 15 7 15 15 0 8 -1 15 -2 15
-2 0 -8 -7 -15 -15z"/>
<path d="M8800 4371 c0 -5 5 -13 10 -16 6 -3 10 -2 10 4 0 5 -4 13 -10 16 -5
3 -10 2 -10 -4z"/>
<path d="M8825 4340 c-3 -5 1 -10 10 -10 9 0 13 5 10 10 -3 6 -8 10 -10 10 -2
0 -7 -4 -10 -10z"/>
<path d="M8885 4050 c3 -5 8 -10 11 -10 2 0 4 5 4 10 0 6 -5 10 -11 10 -5 0
-7 -4 -4 -10z"/>
<path d="M14880 3571 c0 -3 12 -14 25 -24 24 -17 25 -17 25 1 0 13 -9 21 -25
24 -14 3 -25 2 -25 -1z"/>
<path d="M13705 3240 c-3 -5 -2 -10 4 -10 5 0 13 5 16 10 3 6 2 10 -4 10 -5 0
-13 -4 -16 -10z"/>
<path d="M4295 4940 c-3 -5 -1 -10 4 -10 6 0 11 5 11 10 0 6 -2 10 -4 10 -3 0
-8 -4 -11 -10z"/>
<path d="M4577 4679 c-4 -16 -3 -18 9 -8 7 6 11 15 8 20 -8 13 -11 11 -17 -12z"/>
<path d="M4846 4587 c3 -10 9 -15 12 -12 3 3 0 11 -7 18 -10 9 -11 8 -5 -6z"/>
<path d="M4990 4370 c-6 -12 -9 -26 -6 -33 2 -7 5 -5 5 5 1 9 6 20 13 24 7 4
8 3 4 -4 -4 -7 -2 -12 3 -12 14 0 14 27 2 35 -6 3 -15 -4 -21 -15z"/>
<path d="M3865 4210 c-3 -5 -1 -10 4 -10 6 0 11 5 11 10 0 6 -2 10 -4 10 -3 0
-8 -4 -11 -10z"/>
<path d="M5085 4190 c3 -5 8 -10 11 -10 2 0 4 5 4 10 0 6 -5 10 -11 10 -5 0
-7 -4 -4 -10z"/>
<path d="M5071 4164 c0 -11 3 -14 6 -6 3 7 2 16 -1 19 -3 4 -6 -2 -5 -13z"/>
<path d="M4919 4143 c-10 -11 -10 -14 -1 -9 7 4 12 1 12 -8 0 -9 7 -16 16 -16
14 0 14 1 0 16 -9 8 -14 20 -11 25 10 15 -2 10 -16 -8z"/>
<path d="M4964 4145 c3 -21 16 -31 16 -12 0 9 -4 18 -9 21 -5 4 -8 -1 -7 -9z"/>
</g>
</svg>
