<?xml version="1.0" standalone="no"?>
<!DOCTYPE svg PUBLIC "-//W3C//DTD SVG 20010904//EN"
 "http://www.w3.org/TR/2001/REC-SVG-20010904/DTD/svg10.dtd">
<svg version="1.0" xmlns="http://www.w3.org/2000/svg"
 width="2072.000000pt" height="1281.000000pt" viewBox="0 0 2072.000000 1281.000000"
 preserveAspectRatio="xMidYMid meet">
<metadata>
Created by potrace 1.16, written by Peter Selinger 2001-2019
</metadata>
<g transform="translate(0.000000,1281.000000) scale(0.100000,-0.100000)"
fill="#000000" stroke="none">
<path d="M0 12316 c0 -319 4 -497 10 -501 6 -3 10 1 10 10 0 9 9 19 19 22 11
3 17 11 15 18 -3 7 0 16 7 21 8 4 10 3 5 -4 -4 -7 -1 -12 9 -12 9 0 14 3 12 8
-7 10 65 9 81 -1 9 -6 9 -13 1 -28 -6 -11 -8 -27 -5 -34 2 -7 -2 -19 -10 -25
-10 -9 -14 -9 -14 -1 0 6 -7 11 -15 11 -8 0 -15 -4 -15 -9 0 -5 -10 -13 -21
-16 -16 -5 -18 -9 -9 -15 7 -4 -8 -5 -34 -3 -27 3 -46 2 -46 -4 0 -6 11 -8 25
-5 14 2 25 0 25 -7 0 -6 -7 -8 -17 -4 -13 5 -15 2 -10 -12 6 -15 5 -16 -8 -5
-13 11 -15 -536 -15 -5144 l0 -5156 8090 0 8090 0 0 5695 0 5695 -8090 0
-8090 0 0 -494z m12470 -1638 c0 -4 35 -6 78 -4 42 2 102 -1 132 -7 30 -5 61
-10 68 -10 6 0 12 -4 12 -9 0 -5 5 -6 10 -3 6 3 10 -2 10 -12 0 -27 45 -98 60
-95 7 2 10 -3 7 -11 -3 -8 8 -29 24 -48 27 -30 75 -110 70 -116 0 -2 8 -12 19
-23 11 -11 20 -29 20 -39 0 -10 7 -21 15 -25 8 -3 15 -12 15 -21 0 -18 16 -20
23 -2 3 6 6 2 6 -10 1 -13 6 -23 12 -23 5 0 7 -5 3 -11 -4 -7 -1 -10 7 -7 13
4 32 -18 45 -54 3 -10 14 -18 23 -18 13 0 13 -2 2 -9 -9 -6 -10 -11 -2 -15 6
-4 11 -15 11 -25 0 -11 10 -21 23 -25 18 -5 20 -8 7 -16 -13 -8 -13 -10 1 -10
22 0 41 -44 26 -60 -9 -10 -7 -11 11 -5 14 4 22 2 22 -5 0 -17 28 -42 39 -36
5 3 7 -4 3 -16 -3 -14 -2 -19 6 -14 8 4 12 0 12 -12 0 -10 14 -31 30 -47 17
-16 30 -35 30 -42 0 -7 4 -13 10 -13 5 0 14 -10 21 -21 8 -15 8 -19 0 -15 -18
12 -12 -22 7 -36 19 -15 67 -106 65 -125 0 -7 4 -13 9 -13 5 0 8 -6 6 -12 -3
-7 4 -21 13 -32 10 -10 16 -24 12 -29 -3 -6 -1 -7 5 -3 7 4 12 1 12 -9 0 -9 4
-14 9 -10 6 3 15 -3 21 -14 9 -17 8 -19 -5 -15 -8 4 -15 2 -15 -4 0 -6 5 -12
10 -14 6 -2 11 -18 13 -36 1 -17 6 -32 11 -32 5 0 4 -6 -2 -13 -8 -10 -6 -16
9 -26 14 -8 19 -19 16 -32 -4 -14 -1 -19 10 -17 9 2 18 -3 21 -11 3 -8 0 -11
-7 -7 -13 8 -14 4 -5 -19 5 -13 9 -14 15 -3 7 10 10 8 15 -8 4 -16 11 -20 26
-16 14 3 19 1 14 -6 -5 -9 0 -9 18 -2 14 5 25 6 25 2 -3 -21 3 -31 22 -37 15
-5 18 -9 9 -15 -9 -6 -9 -12 -1 -29 7 -12 17 -18 23 -15 7 5 9 1 5 -9 -3 -10
-2 -17 3 -17 6 0 10 -7 10 -15 0 -8 5 -15 11 -15 5 0 8 -3 5 -8 -6 -10 15 -37
37 -45 10 -4 16 -10 14 -14 -6 -10 13 -28 31 -29 33 -3 35 -4 23 -17 -8 -10
-7 -14 4 -14 8 0 15 5 15 10 0 5 6 4 14 -2 7 -6 21 -9 30 -5 9 3 16 2 16 -4 0
-6 -6 -12 -12 -15 -15 -4 41 -34 60 -31 6 1 13 2 15 4 1 1 10 3 20 5 13 2 17
-1 13 -11 -7 -17 10 -19 18 -1 4 6 4 2 2 -10 -3 -16 0 -20 12 -16 11 5 14 2 9
-9 -5 -13 0 -16 23 -13 22 3 28 0 23 -11 -3 -7 -1 -14 5 -14 6 0 12 5 14 11 2
6 10 -6 18 -26 10 -27 19 -35 32 -32 10 3 18 1 18 -4 0 -5 -4 -9 -9 -9 -5 0
-11 -9 -14 -21 -5 -19 -4 -20 12 -5 17 15 18 14 18 -14 0 -19 -3 -26 -8 -18
-4 7 -11 9 -16 5 -9 -9 17 -28 32 -23 6 2 11 -7 11 -20 1 -13 -1 -24 -5 -24
-4 0 -8 -7 -8 -15 0 -8 5 -15 10 -15 5 0 6 -7 3 -16 -3 -8 -2 -12 4 -9 6 4 17
0 25 -8 12 -13 12 -16 0 -20 -7 -3 -16 -1 -19 6 -3 7 -4 3 -3 -8 2 -11 8 -19
14 -18 5 1 9 -9 7 -22 -1 -16 3 -25 11 -25 18 0 23 -20 14 -52 -8 -29 0 -34
41 -28 11 1 10 -2 -4 -13 -15 -11 -17 -17 -7 -35 7 -13 9 -27 6 -32 -3 -6 -1
-10 6 -10 6 0 9 -8 6 -20 -3 -11 -1 -23 4 -26 5 -3 9 -2 8 3 -3 18 1 66 6 62
2 -3 6 -16 9 -30 2 -13 9 -23 15 -21 6 1 11 -2 11 -8 0 -5 -8 -10 -17 -10 -16
-1 -15 -2 2 -12 11 -6 24 -18 29 -27 8 -13 10 -12 17 4 7 19 8 18 8 -2 1 -13
7 -23 16 -23 9 0 12 -6 8 -17 -5 -12 -3 -14 8 -8 11 7 11 5 -1 -11 -8 -10 -19
-22 -23 -25 -5 -3 6 -12 22 -19 25 -10 29 -15 20 -26 -10 -12 -14 -12 -24 2
-6 10 -17 14 -23 10 -19 -11 9 -34 36 -30 17 4 21 1 16 -8 -5 -7 -9 -20 -9
-28 0 -9 -7 -14 -17 -12 -10 2 -18 -2 -18 -8 0 -6 5 -8 10 -5 6 3 10 1 10 -5
0 -7 7 -10 14 -7 10 4 13 1 9 -9 -4 -10 0 -13 13 -8 15 4 14 2 -2 -8 -19 -11
-20 -15 -8 -26 17 -15 18 -32 3 -32 -5 0 -7 5 -3 12 4 6 3 8 -4 5 -12 -8 -11
-25 2 -46 6 -10 5 -12 -2 -7 -7 4 -12 2 -12 -3 0 -6 5 -11 10 -11 6 0 10 -5
10 -11 0 -6 -7 -8 -16 -5 -13 5 -15 2 -11 -14 3 -11 1 -18 -4 -14 -5 3 -9 0
-9 -5 0 -6 7 -11 15 -11 11 0 14 -7 9 -26 -5 -18 -1 -29 12 -40 18 -15 18 -15
1 -10 -10 3 -16 2 -12 -3 3 -5 -1 -12 -7 -15 -7 -3 -2 -4 11 -3 13 1 26 -4 29
-12 3 -9 -1 -11 -17 -6 -16 5 -20 3 -15 -9 5 -12 2 -15 -12 -10 -11 3 -8 -1 6
-10 23 -14 23 -15 5 -16 -18 -1 -19 -1 -2 -11 9 -5 17 -15 17 -22 0 -8 -4 -7
-9 2 -8 12 -12 10 -22 -11 -10 -22 -9 -29 3 -42 9 -8 19 -12 24 -8 5 4 3 0 -4
-9 -6 -9 -10 -18 -7 -20 2 -3 -5 -5 -15 -5 -11 0 -20 4 -20 8 0 4 -5 8 -12 8
-7 0 -5 -7 5 -18 15 -16 15 -20 2 -39 -9 -12 -11 -24 -6 -27 11 -7 11 -56 0
-78 -6 -11 -5 -19 2 -24 8 -4 7 -9 -2 -15 -10 -6 -11 -9 -1 -9 6 0 12 -5 12
-10 0 -7 -6 -7 -19 0 -26 13 -28 13 -28 -5 0 -8 7 -15 16 -15 13 -1 12 -4 -4
-16 -11 -8 -28 -13 -37 -11 -9 3 -19 -1 -21 -8 -4 -8 3 -11 21 -8 23 4 24 3
10 -7 -10 -6 -18 -16 -18 -22 0 -6 7 -5 17 3 15 12 16 12 10 -4 -4 -10 -7 -22
-7 -27 0 -4 -10 -6 -22 -3 -23 6 -23 6 2 -22 23 -26 23 -27 3 -16 -29 15 -34
14 -27 -4 3 -8 11 -13 17 -12 6 1 13 -6 15 -17 3 -13 0 -16 -10 -11 -7 3 -5 0
5 -8 21 -17 22 -28 2 -21 -10 4 -15 0 -15 -10 0 -10 7 -16 16 -14 10 2 19 -3
22 -11 3 -9 -1 -11 -16 -7 -19 6 -20 4 -12 -24 5 -18 5 -30 -1 -30 -5 0 -9 6
-9 13 0 8 -3 8 -9 -2 -6 -9 -4 -23 6 -38 9 -13 13 -26 9 -30 -3 -3 -6 -1 -6 7
0 10 -3 10 -14 1 -10 -8 -16 -9 -21 -1 -8 13 -25 13 -25 -1 0 -5 5 -7 10 -4
19 12 23 -26 5 -39 -22 -16 -28 -45 -14 -62 11 -13 -7 -32 -18 -20 -4 3 0 6 7
6 9 0 8 6 -5 20 -25 27 -36 25 -25 -5 10 -26 4 -55 -11 -55 -13 0 -11 18 4 23
7 3 5 6 -5 6 -20 1 -23 -12 -8 -40 9 -16 7 -19 -12 -19 -20 -1 -18 -3 10 -15
21 -9 32 -21 32 -35 0 -11 -2 -20 -4 -20 -2 0 -12 -3 -22 -7 -13 -5 -15 -3 -9
7 5 9 4 11 -4 6 -6 -4 -9 -12 -6 -17 4 -5 1 -9 -5 -9 -6 0 -9 -8 -6 -18 4 -13
1 -19 -9 -19 -8 0 -15 4 -15 9 0 4 -7 8 -15 8 -8 0 -15 5 -15 11 0 8 -5 8 -15
-1 -19 -16 -45 3 -38 28 3 13 -3 17 -26 18 -17 1 -28 -2 -26 -6 3 -5 1 -11 -3
-14 -5 -3 -7 -18 -4 -32 4 -20 2 -25 -8 -19 -10 6 -12 3 -8 -13 4 -14 2 -22
-7 -22 -15 0 -26 -35 -14 -47 4 -4 4 -15 -1 -23 -5 -8 -10 -10 -10 -5 0 6 -9
11 -19 11 -15 0 -17 -4 -11 -22 10 -26 4 -35 -18 -27 -11 5 -14 2 -9 -10 4
-11 1 -17 -9 -17 -8 0 -13 -4 -9 -9 9 -16 -23 -40 -47 -34 -21 4 -21 3 -4 -7
17 -12 17 -13 -5 -24 -15 -8 -31 -10 -41 -4 -12 5 -18 5 -18 -2 0 -5 5 -10 11
-10 6 0 9 -9 6 -20 -3 -11 -2 -18 3 -15 4 3 13 -2 20 -10 7 -8 16 -12 21 -9 5
3 6 -2 3 -10 -4 -11 0 -16 10 -16 9 0 16 -5 16 -10 0 -6 10 -15 23 -19 l22 -9
-25 -10 c-14 -6 -18 -11 -9 -11 11 -1 15 -10 13 -37 -3 -28 0 -35 11 -30 8 3
17 1 20 -4 4 -6 2 -10 -4 -10 -6 0 -8 -7 -5 -15 4 -8 12 -15 20 -15 21 0 56
-40 50 -56 -3 -8 1 -17 9 -20 8 -4 15 -14 16 -23 0 -11 2 -12 6 -3 4 10 9 7
17 -10 7 -12 18 -22 24 -21 7 2 12 -4 12 -12 0 -9 9 -15 23 -15 18 0 19 -2 7
-11 -12 -9 -12 -10 3 -5 10 3 23 6 28 6 6 0 7 5 4 10 -3 6 1 10 9 10 9 0 16
-7 16 -15 0 -8 5 -15 12 -15 6 0 9 -3 5 -6 -10 -11 17 -31 35 -26 13 3 17 0
12 -11 -3 -8 0 -18 6 -22 6 -3 9 -1 8 6 -2 6 3 14 10 16 6 3 12 0 12 -6 0 -6
7 -11 16 -11 16 0 46 25 39 32 -3 3 1 5 7 6 7 0 25 3 41 5 15 2 30 0 33 -4 6
-10 23 5 43 36 11 17 12 18 7 1 -5 -13 -2 -17 9 -12 8 3 15 0 15 -7 0 -8 4 -6
10 3 6 10 10 11 10 3 0 -7 5 -13 10 -13 6 0 19 -9 31 -21 13 -13 27 -18 40
-14 10 4 19 2 19 -3 0 -13 50 -33 63 -25 7 3 3 -3 -7 -15 -17 -19 -17 -22 -3
-22 10 0 17 -7 17 -15 0 -8 9 -19 21 -25 13 -7 18 -17 15 -27 -4 -10 -2 -13 8
-10 11 4 13 -3 9 -34 -5 -31 -3 -39 8 -37 9 2 13 -4 11 -16 -3 -13 1 -17 12
-13 16 6 40 -16 29 -26 -3 -4 1 -7 9 -7 23 0 47 -41 37 -65 -6 -15 -8 -16 -8
-4 -1 9 -9 23 -18 30 -16 13 -17 12 -4 -3 11 -15 11 -18 0 -18 -8 0 -5 -6 7
-15 10 -8 28 -14 39 -15 15 0 17 2 6 9 -7 5 -9 11 -4 14 5 3 15 2 23 -3 9 -5
19 -5 26 1 8 7 15 6 20 -2 5 -8 3 -9 -6 -4 -8 5 -11 4 -6 -3 4 -6 13 -9 21 -5
8 3 15 0 15 -6 0 -6 9 -11 19 -11 11 0 23 -9 26 -20 4 -12 16 -20 28 -21 21 0
21 -1 2 -9 -14 -6 -16 -9 -5 -10 8 -2 18 -2 22 -1 5 0 7 -5 5 -12 -1 -6 4 -11
12 -9 11 2 12 0 4 -10 -7 -9 -5 -21 7 -40 9 -16 20 -25 23 -21 4 3 7 -1 7 -9
0 -9 7 -18 15 -22 8 -3 15 -11 14 -18 0 -10 -2 -10 -6 0 -2 6 -9 10 -14 6 -5
-3 -5 -12 1 -23 5 -10 6 -22 2 -26 -4 -3 0 -5 8 -3 8 2 14 -3 12 -11 -1 -7 2
-19 8 -26 8 -9 8 -15 0 -20 -19 -12 -10 -26 13 -20 16 5 18 4 8 -4 -21 -14
-21 -51 0 -91 17 -33 24 -28 20 12 -1 10 4 18 13 18 20 0 20 1 0 -45 -13 -31
-13 -39 -2 -46 7 -5 17 -4 22 1 23 23 27 8 5 -17 -21 -23 -21 -25 -5 -19 19 7
19 6 3 -12 -18 -20 -19 -62 -2 -74 6 -4 10 -18 10 -30 1 -13 4 -29 9 -37 5 -8
3 -16 -5 -22 -12 -7 -12 -10 0 -21 10 -10 12 -10 7 0 -4 6 -2 12 3 12 13 0 13
-3 5 -24 -3 -9 -12 -12 -22 -9 -11 5 -14 2 -10 -8 3 -8 9 -22 13 -31 11 -29
-11 -21 -24 8 -6 15 -14 24 -17 21 -3 -3 2 -17 11 -31 10 -15 14 -33 10 -46
-8 -26 -21 -26 -28 0 -6 22 8 28 16 8 4 -8 6 -9 6 -2 2 21 -23 33 -37 18 -9
-10 -9 -14 -1 -14 6 0 9 -7 5 -15 -3 -8 0 -15 7 -16 9 0 8 -2 -1 -6 -10 -4
-10 -8 -1 -19 9 -11 8 -14 -4 -14 -8 0 -17 9 -20 20 -3 11 -10 20 -17 20 -8 0
-4 -14 10 -37 12 -20 15 -31 7 -25 -12 10 -16 9 -21 -3 -3 -9 -10 -14 -14 -11
-11 7 -8 -31 3 -41 4 -5 5 -2 1 5 -4 6 -2 12 5 12 7 0 9 -8 6 -21 -5 -17 -3
-19 6 -10 9 9 9 16 -1 31 -15 24 -4 27 13 3 11 -15 15 -16 31 -3 13 9 11 6 -4
-11 -12 -14 -19 -29 -15 -34 5 -4 3 -5 -3 -2 -13 7 -56 -21 -49 -32 2 -5 -9
-7 -25 -5 -16 2 -32 0 -35 -5 -6 -11 12 -17 50 -16 25 0 30 4 29 23 0 12 3 22
8 22 8 0 12 -16 9 -34 -1 -5 3 -12 9 -16 7 -4 1 -9 -14 -12 -15 -3 -29 -2 -32
3 -6 11 -34 0 -34 -13 0 -6 6 -8 13 -5 8 3 13 -7 14 -29 1 -19 -3 -34 -8 -34
-8 0 -13 15 -10 33 0 4 -6 7 -14 7 -12 0 -13 -4 -6 -18 16 -29 49 -54 62 -46
8 4 10 3 5 -4 -4 -7 -2 -12 5 -12 8 0 9 -3 0 -13 -6 -8 -8 -17 -4 -20 3 -4 -1
-7 -9 -7 -19 0 -32 -27 -15 -33 7 -2 17 3 24 12 6 9 15 13 19 9 4 -4 -5 -20
-20 -35 -21 -21 -25 -22 -21 -7 6 18 6 18 -8 1 -10 -12 -17 -15 -22 -7 -4 6
-13 9 -20 6 -16 -6 -26 16 -16 33 6 9 11 8 21 -4 17 -21 29 -19 23 5 -3 11
-10 17 -16 13 -6 -3 -7 -1 -3 5 4 6 14 8 23 5 11 -4 14 -2 11 8 -3 8 -11 14
-19 15 -8 0 -30 2 -49 3 -32 1 -33 3 -17 15 15 12 15 14 3 19 -9 4 -19 1 -23
-6 -12 -19 -42 -18 -36 2 5 13 3 14 -8 3 -20 -19 -37 -15 -66 16 -24 25 -25
25 -13 3 11 -22 11 -23 -6 -17 -18 6 -18 6 0 -8 10 -8 15 -19 11 -25 -3 -6 -3
-16 1 -22 4 -8 12 -3 20 12 10 18 13 19 14 7 0 -27 -11 -48 -23 -41 -7 4 -8
-1 -4 -13 6 -15 3 -14 -13 5 -12 14 -20 18 -20 10 -1 -9 -6 -7 -16 6 -12 17
-16 17 -24 6 -7 -13 -11 -13 -26 0 -15 12 -16 12 -10 -9 6 -17 3 -22 -10 -22
-13 0 -14 -3 -4 -15 14 -16 0 -21 -16 -5 -6 6 -9 0 -8 -18 1 -15 3 -27 4 -27
1 0 3 -9 5 -20 2 -11 9 -21 15 -23 7 -3 3 -10 -9 -19 -21 -14 -20 -14 8 -42
16 -16 28 -37 27 -47 -2 -11 4 -29 12 -42 8 -12 12 -25 9 -29 -4 -3 1 -12 11
-19 9 -7 12 -14 6 -14 -7 0 -15 -7 -18 -16 -4 -11 -2 -15 7 -11 8 3 20 1 28
-5 11 -8 11 -9 -2 -5 -12 4 -16 -1 -16 -19 0 -13 4 -24 9 -24 5 0 6 5 3 10 -3
5 -1 10 4 10 6 0 11 -7 11 -15 0 -8 4 -15 10 -15 6 0 6 -9 0 -26 -14 -36 -12
-41 5 -18 15 18 16 17 10 -16 -2 -19 -2 -27 3 -18 4 11 12 14 21 9 9 -6 10
-11 3 -15 -15 -9 -3 -36 15 -36 13 0 13 3 3 15 -15 18 -5 20 14 3 11 -11 11
-15 -3 -25 -14 -12 -14 -12 4 -7 17 5 16 3 -5 -15 -14 -12 -20 -20 -15 -19 6
2 12 -1 13 -7 12 -32 24 -44 39 -38 10 4 14 2 9 -5 -3 -6 -1 -14 5 -18 8 -4 7
-9 -2 -15 -11 -7 -11 -9 -1 -9 7 0 10 -4 7 -10 -3 -5 -1 -18 4 -27 9 -16 10
-15 11 7 0 24 1 23 16 -7 9 -18 20 -30 25 -27 5 3 6 10 3 16 -4 6 4 3 19 -8
l26 -19 -27 -13 c-23 -11 -23 -12 -4 -8 14 2 20 0 16 -6 -4 -6 4 -19 17 -29
15 -12 20 -22 14 -26 -5 -5 -10 -17 -9 -28 0 -21 -23 -55 -38 -55 -4 0 -8 5
-8 11 0 5 5 7 10 4 6 -3 10 -1 10 4 0 6 0 14 0 19 0 11 -25 8 -25 -3 -2 -30
-17 -68 -24 -57 -5 9 -13 7 -26 -8 -19 -21 -19 -21 10 -17 17 2 36 -3 47 -12
24 -20 23 -30 -2 -24 -11 3 -20 10 -20 17 0 6 -5 4 -10 -4 -5 -8 -10 -19 -10
-25 0 -5 5 -3 10 5 8 12 10 9 10 -12 0 -16 5 -28 11 -28 5 0 7 -5 3 -11 -4 -8
-9 -7 -15 2 -5 8 -9 9 -9 3 0 -5 5 -15 12 -22 9 -9 14 -7 24 6 10 14 15 15 25
5 9 -9 10 -13 1 -13 -6 0 -9 -7 -5 -16 5 -13 1 -15 -18 -10 l-24 6 23 -12 c18
-9 25 -8 35 5 10 14 15 14 36 3 15 -9 20 -16 12 -20 -6 -4 -11 -2 -11 4 0 7
-11 2 -24 -11 -14 -13 -22 -27 -19 -32 3 -5 10 -4 16 2 14 14 40 14 32 1 -4
-6 -11 -8 -16 -4 -6 3 -9 -2 -7 -12 2 -10 -3 -19 -9 -20 -24 -3 -25 -4 -14
-18 9 -10 8 -16 -4 -26 -14 -11 -19 -7 -16 12 0 4 -12 -1 -28 -10 -16 -9 -27
-21 -24 -28 2 -7 0 -15 -6 -19 -6 -3 -11 -13 -11 -21 0 -11 6 -14 23 -9 16 5
18 4 7 -4 -12 -8 -12 -13 0 -38 8 -15 16 -31 18 -36 2 -4 -2 -6 -9 -5 -6 2
-13 -1 -15 -7 -7 -20 14 -36 48 -38 20 -1 34 -5 32 -8 -2 -4 3 -12 11 -19 8
-7 15 -21 15 -31 0 -11 5 -19 12 -19 9 0 9 -3 0 -12 -9 -9 -5 -15 16 -28 28
-17 41 -63 22 -75 -6 -3 -10 -15 -10 -26 0 -10 -6 -18 -12 -17 -7 2 -14 -7
-16 -18 -3 -22 -52 -42 -52 -21 0 6 -5 5 -13 -1 -16 -14 -71 -1 -73 16 -3 25
-5 27 -15 12 -9 -13 -10 -13 -6 0 2 8 0 23 -5 33 -6 11 -5 17 2 17 6 0 2 13
-9 29 -21 29 -21 29 -1 24 11 -3 20 0 20 6 0 6 6 11 13 11 19 1 57 37 57 55 0
10 -5 13 -12 9 -9 -5 -8 -2 1 10 9 11 11 20 4 27 -7 7 -14 5 -22 -5 -10 -12
-10 -20 0 -38 12 -22 11 -22 -22 3 -19 15 -34 33 -34 40 0 18 -22 32 -37 23
-6 -4 -8 -3 -5 2 3 6 -14 14 -39 20 -24 6 -44 7 -44 2 0 -4 -3 -7 -7 -7 -26 4
-33 -4 -33 -40 0 -22 5 -43 10 -46 6 -4 8 -11 5 -16 -4 -5 -2 -9 4 -9 5 0 8
-35 6 -85 -2 -47 1 -85 5 -85 5 0 12 -15 16 -34 6 -36 44 -82 44 -55 0 8 7 4
16 -9 8 -12 19 -20 24 -17 11 7 26 -14 33 -46 9 -34 -3 -44 -20 -19 -8 11 -20
20 -26 20 -7 0 -4 -5 6 -11 9 -5 17 -17 17 -24 0 -8 6 -15 13 -15 9 0 8 -3 -2
-9 -9 -6 -11 -14 -3 -26 16 -30 3 -50 -49 -73 -27 -13 -47 -27 -44 -33 4 -5
-1 -9 -10 -9 -11 0 -15 -5 -11 -15 3 -8 1 -15 -5 -15 -5 0 -12 7 -15 15 -5 13
-10 13 -35 -1 -17 -8 -32 -21 -35 -29 -4 -10 -21 -12 -67 -9 -33 3 -64 7 -68
10 -4 2 -9 -3 -13 -11 -3 -8 -12 -15 -20 -15 -27 0 -46 -42 -46 -100 0 -52 -1
-56 -26 -58 -14 -1 -23 2 -19 8 4 6 -1 7 -11 3 -10 -4 -22 0 -28 8 -6 8 -26
25 -44 38 -18 13 -31 29 -28 36 2 7 -1 12 -7 12 -7 0 -33 1 -59 1 -43 2 -48 5
-63 36 -19 39 -38 50 -65 36 -31 -16 -40 -12 -40 21 0 26 2 29 14 20 12 -10
16 -8 21 11 4 13 13 30 21 38 9 10 10 20 4 30 -5 8 -10 20 -10 25 0 6 5 3 10
-5 8 -12 10 -11 10 8 0 12 -5 22 -11 22 -5 0 -8 4 -4 10 3 5 12 7 20 3 10 -3
15 2 15 16 0 12 4 21 8 21 5 0 16 16 25 35 l16 34 -32 -6 c-18 -3 -29 -2 -25
2 4 4 -3 15 -14 25 -21 16 -21 18 -5 34 22 22 22 40 1 32 -14 -5 -15 -4 -4 9
7 8 10 16 6 16 -12 3 -21 6 -39 13 -9 5 -26 6 -38 3 -15 -4 -23 1 -30 19 -13
35 -11 38 7 20 18 -19 40 -21 50 -4 5 7 3 8 -6 3 -10 -6 -12 -4 -7 9 4 10 3
15 -3 11 -6 -3 -10 1 -10 11 0 13 -3 14 -15 4 -8 -7 -15 -8 -15 -2 0 5 6 15
14 21 10 9 12 20 6 41 -6 20 -5 30 3 33 7 3 -1 10 -16 16 -17 6 -25 16 -21 22
3 6 -5 3 -20 -6 -24 -16 -26 -16 -26 -1 0 10 -5 14 -11 10 -6 -3 -8 -17 -5
-30 4 -14 2 -24 -4 -24 -5 0 -10 7 -10 15 0 24 -17 17 -24 -10 -4 -14 -11 -23
-16 -20 -19 12 -50 -6 -50 -28 0 -16 -3 -18 -9 -9 -7 11 -9 11 -14 -2 -7 -19
-31 -22 -25 -4 5 15 -9 31 -34 41 -12 4 -18 17 -18 37 0 30 -13 40 -26 19 -4
-8 -9 -7 -15 2 -7 11 -9 11 -9 1 0 -7 -4 -11 -9 -8 -4 3 -16 -3 -26 -14 -14
-16 -20 -17 -26 -8 -7 10 -11 10 -21 0 -17 -17 -29 -15 -22 3 4 8 2 15 -3 15
-13 0 -11 -69 2 -78 6 -4 19 -23 30 -44 11 -20 22 -36 25 -35 3 0 15 -5 26
-11 12 -6 25 -8 28 -4 11 10 40 8 48 -3 4 -6 8 -2 8 9 0 18 1 18 19 -3 23 -26
60 -21 79 10 15 24 7 40 -16 33 -14 -5 -14 -4 -3 4 11 8 23 6 44 -4 27 -15 28
-14 18 5 -6 11 -7 22 -2 25 5 3 12 -2 16 -12 12 -27 14 -42 5 -42 -4 0 -10 -9
-13 -21 -3 -12 -10 -18 -16 -14 -6 3 -11 -1 -11 -9 0 -19 -11 -20 -29 -3 -10
8 -12 8 -7 0 3 -6 -1 -16 -9 -21 -20 -11 -23 -71 -4 -86 8 -6 22 -26 32 -43
16 -28 16 -32 2 -27 -21 9 -55 -24 -55 -52 0 -13 -5 -26 -10 -29 -6 -4 -8 -11
-5 -16 9 -13 17 -51 16 -69 -1 -8 -3 -26 -4 -39 -2 -19 3 -24 21 -26 13 -1 25
2 28 7 8 13 31 9 48 -8 27 -27 16 -61 -23 -69 -12 -2 -31 -7 -41 -10 -11 -3
-20 0 -24 10 -8 22 -25 18 -19 -5 3 -11 10 -20 15 -20 5 0 0 -12 -12 -27 -33
-43 -100 -53 -100 -16 0 8 -4 12 -9 9 -5 -3 -11 0 -14 8 -8 19 51 76 78 76 34
0 55 10 55 26 0 16 -46 37 -62 28 -5 -3 -26 10 -45 30 -20 20 -42 36 -50 36
-7 0 -13 7 -13 16 0 24 -23 11 -31 -17 -4 -13 -7 -18 -8 -10 -1 12 -4 11 -14
-3 -7 -9 -19 -18 -27 -19 -26 -4 -69 -38 -65 -50 3 -7 -10 -22 -27 -34 -18
-13 -27 -23 -20 -23 18 0 15 -37 -4 -44 -9 -3 -23 -2 -32 4 -10 5 -13 10 -7
10 5 0 -1 7 -13 16 -12 8 -20 20 -17 25 4 5 -1 9 -9 9 -9 0 -16 7 -16 15 0 8
-4 15 -10 15 -5 0 -7 -7 -4 -15 5 -11 -2 -14 -29 -11 -19 2 -38 5 -43 8 -5 2
-25 3 -44 1 -19 -2 -54 -3 -77 -4 -43 0 -49 -7 -44 -47 2 -10 -2 -11 -19 -2
-11 6 -19 7 -18 1 2 -5 -1 -9 -6 -9 -5 0 -13 -6 -18 -14 -6 -9 -7 -6 -3 10 8
26 -3 29 -20 5 -11 -14 -15 -15 -28 -4 -9 7 -22 9 -28 5 -9 -5 -10 -2 -6 9 5
12 1 17 -13 17 -15 0 -20 7 -20 26 0 24 -2 25 -42 20 -24 -2 -43 -5 -43 -6 0
-1 -15 -3 -33 -6 -43 -5 -78 26 -62 56 11 21 5 44 -10 35 -4 -3 -13 2 -20 10
-7 8 -18 15 -24 15 -6 0 -28 14 -49 31 -20 17 -41 28 -47 24 -17 -11 -78 6
-103 29 -50 45 -93 60 -145 50 -39 -7 -47 -13 -47 -31 0 -30 -12 -38 -30 -19
-22 22 -42 20 -48 -3 -2 -11 -23 -29 -46 -40 -29 -15 -39 -26 -34 -37 4 -12 8
-13 14 -3 11 18 39 20 39 3 0 -22 -4 -29 -16 -29 -6 0 -19 -6 -28 -14 -14 -12
-16 -12 -11 2 4 8 2 18 -4 22 -6 3 -11 1 -11 -6 0 -6 -10 -9 -23 -7 -14 3 -24
0 -24 -7 0 -6 9 -12 19 -12 10 -1 28 -9 40 -19 14 -10 17 -14 6 -11 -11 4 -19
-1 -24 -15 -5 -16 -8 -18 -15 -7 -7 12 -9 12 -9 0 0 -7 -6 -11 -14 -8 -7 3
-23 -1 -34 -9 -11 -8 -27 -11 -36 -8 -9 3 -25 -4 -39 -20 -13 -14 -30 -26 -36
-26 -6 0 -22 -7 -34 -15 -18 -11 -31 -12 -60 -4 -35 9 -44 25 -38 62 1 4 -6
10 -14 13 -8 3 -12 10 -9 15 3 5 -3 9 -13 9 -14 0 -15 2 -4 9 7 5 21 7 30 5
20 -5 48 32 54 74 3 18 16 41 28 51 20 16 21 21 10 35 -9 11 -18 13 -31 6 -18
-10 -89 -8 -107 3 -12 8 -96 -31 -106 -49 -4 -8 -15 -14 -23 -14 -8 0 -12 -4
-9 -10 3 -6 -1 -7 -9 -4 -20 8 -20 23 -1 30 8 4 12 10 9 15 -12 20 -42 7 -70
-30 -16 -22 -44 -47 -63 -56 -18 -9 -31 -19 -27 -22 7 -8 -24 -32 -43 -33 -10
0 -11 3 -2 14 10 12 8 17 -10 27 -19 10 -25 9 -36 -7 -7 -10 -13 -21 -13 -26
0 -4 -3 -7 -7 -7 -25 4 -41 -3 -46 -21 -3 -14 -14 -20 -32 -20 -18 0 -29 -6
-32 -20 -3 -11 -14 -20 -24 -20 -11 0 -20 -6 -20 -12 -5 -37 -4 -55 4 -70 5
-11 4 -18 -3 -18 -16 0 -41 -27 -39 -42 4 -32 -2 -49 -13 -42 -10 6 -10 4 0
-7 18 -19 16 -63 -3 -55 -10 4 -15 -1 -15 -14 0 -11 4 -20 9 -20 17 0 18 -72
0 -106 -16 -33 -17 -33 -34 -14 -24 26 -44 25 -55 -3 -5 -12 -9 -16 -9 -9 -1
16 -38 15 -44 -2 -5 -13 -57 -14 -78 -1 -5 3 -17 1 -28 -5 -14 -7 -22 -7 -26
0 -8 12 -46 3 -57 -13 -4 -7 -11 -7 -21 1 -8 7 -22 10 -31 6 -12 -4 -16 0 -16
15 0 13 -6 21 -17 21 -16 0 -16 2 -3 11 11 8 8 9 -16 5 -28 -4 -31 -3 -27 15
3 12 9 16 12 10 4 -6 12 -7 21 -1 8 6 10 10 4 10 -7 0 -11 11 -10 24 0 13 4
22 9 19 4 -2 7 3 7 11 0 8 -4 18 -10 21 -5 3 -7 19 -3 35 4 22 -1 40 -20 68
-19 29 -24 47 -20 78 6 53 -15 127 -34 119 -12 -4 -14 2 -8 35 4 26 3 40 -4
40 -6 0 -11 6 -11 14 0 18 -53 53 -58 38 -2 -7 -15 -9 -31 -6 -16 4 -32 1 -35
-5 -9 -14 -53 -14 -61 -1 -4 6 -12 9 -18 8 -7 -1 -21 3 -32 9 -11 6 -29 9 -40
6 -11 -2 -45 -5 -75 -6 -30 -1 -60 -6 -67 -10 -6 -4 -14 -3 -17 1 -3 5 -17 7
-31 4 -15 -2 -25 0 -25 7 0 6 -18 11 -43 11 -27 0 -63 10 -93 25 -48 24 -94
32 -107 18 -4 -4 -26 -8 -50 -10 -23 -2 -74 -10 -112 -19 -54 -12 -80 -14
-108 -6 -20 6 -37 6 -37 2 0 -5 -14 -4 -31 2 -26 9 -33 7 -53 -11 -12 -11 -30
-21 -39 -21 -9 0 -25 -8 -35 -18 -26 -26 -84 -33 -138 -17 -41 12 -50 12 -82
-3 -26 -13 -36 -14 -39 -5 -3 8 -15 10 -34 6 -28 -5 -43 11 -16 20 9 3 9 10
-3 33 -18 35 -31 45 -48 39 -7 -3 -11 -1 -8 4 3 5 0 11 -8 14 -8 3 -17 -1 -20
-9 -3 -8 -10 -14 -16 -14 -6 0 -8 4 -5 10 4 6 -1 7 -10 3 -10 -3 -21 0 -25 7
-5 8 -18 10 -39 5 -26 -6 -38 -17 -28 -28 1 -2 -10 -15 -26 -31 -15 -15 -25
-32 -21 -37 8 -13 -16 -40 -28 -33 -6 4 -5 10 3 15 11 7 11 9 1 9 -7 0 -10 5
-7 11 4 6 -2 5 -13 -2 -12 -7 -19 -15 -17 -18 7 -6 -45 -31 -66 -31 -11 0 -19
-6 -19 -13 0 -8 -18 -28 -40 -46 -33 -27 -38 -35 -30 -51 14 -26 14 -27 -20
-39 -16 -5 -30 -15 -30 -21 0 -7 -15 -9 -40 -6 -46 6 -97 -16 -111 -48 -14
-28 -78 -59 -95 -45 -8 7 -14 7 -19 -1 -3 -6 -10 -8 -14 -6 -13 9 -51 -24 -51
-44 0 -16 -4 -18 -23 -11 -15 6 -26 4 -35 -5 -22 -23 -48 -16 -65 18 -8 17
-13 38 -9 46 3 9 1 13 -5 9 -6 -4 -13 2 -16 13 -3 11 -1 20 5 20 6 0 8 7 5 14
-4 11 -1 13 11 9 14 -6 15 -5 2 9 -8 9 -19 13 -24 10 -5 -3 -6 0 -2 7 4 6 12
9 17 6 19 -12 8 12 -16 35 -14 13 -25 19 -25 14 0 -5 -4 -3 -9 5 -6 9 -15 11
-27 6 -23 -10 -55 -7 -71 7 -7 5 -17 7 -22 3 -6 -3 -20 -1 -31 5 -17 9 -24 6
-45 -16 -13 -14 -23 -29 -23 -33 1 -3 -3 -16 -10 -27 -13 -25 -62 -39 -62 -18
0 20 -29 44 -55 44 -13 0 -29 8 -34 18 -6 9 -11 14 -11 10 0 -4 -12 -3 -27 3
-15 6 -24 7 -21 3 4 -4 1 -19 -6 -33 -7 -14 -17 -39 -22 -55 -7 -22 -18 -32
-43 -39 -20 -5 -36 -5 -40 1 -3 5 -15 8 -26 6 -11 -2 -26 4 -33 14 -16 21 -97
26 -113 6 -6 -8 -17 -14 -24 -14 -7 0 -18 -7 -25 -15 -7 -8 -16 -13 -20 -10
-5 3 -10 -1 -13 -7 -3 -10 -9 -11 -26 0 -11 6 -26 12 -32 12 -5 0 -25 11 -43
25 -18 14 -38 25 -44 25 -6 0 -13 9 -17 19 -3 10 -14 21 -25 24 -13 3 -17 11
-13 26 3 12 1 21 -6 21 -16 0 -13 27 4 34 8 3 23 2 32 -1 15 -6 16 -5 3 9 -8
9 -18 14 -21 12 -4 -2 -10 3 -13 12 -3 8 -2 12 4 9 6 -3 10 1 10 9 0 9 3 15 8
14 4 0 15 2 25 7 14 6 15 10 7 15 -9 6 -5 13 14 25 14 9 23 21 21 26 -7 10 25
28 45 26 8 0 29 5 47 12 25 10 34 20 39 47 3 19 10 34 15 34 5 0 9 7 9 15 0 8
-4 15 -10 15 -5 0 -10 -5 -10 -10 0 -6 -12 -2 -27 7 -17 11 -24 13 -19 5 7
-11 4 -12 -13 -3 -24 13 -27 27 -8 34 7 4 6 6 -5 6 -9 1 -24 -6 -32 -15 -9 -8
-16 -12 -16 -7 0 5 6 15 13 22 10 10 9 12 -3 9 -8 -2 -23 -12 -33 -23 -18 -20
-18 -20 -14 7 2 15 0 25 -4 22 -5 -3 -9 -1 -9 4 0 5 -11 14 -25 20 -31 14 -32
30 -2 42 19 7 19 9 3 9 -10 1 -27 -9 -38 -21 -15 -18 -21 -20 -28 -9 -4 8 -6
21 -2 29 4 11 1 14 -12 9 -9 -4 -15 -3 -12 2 3 5 -1 14 -9 21 -12 10 -16 9
-20 -2 -8 -19 -45 -21 -45 -2 0 13 -5 12 -27 -4 -16 -10 -37 -22 -47 -26 -17
-6 -17 -5 -5 11 13 15 12 16 -6 9 -19 -8 -50 -17 -123 -36 -18 -4 -34 -4 -38
1 -3 5 -12 2 -20 -6 -9 -8 -20 -12 -26 -9 -6 4 -14 0 -19 -7 -8 -11 -13 -10
-29 9 -10 13 -28 24 -38 25 -11 0 -18 6 -15 12 2 8 -8 11 -27 10 -18 -1 -38 4
-45 12 -8 7 -17 13 -21 13 -4 0 -4 -3 0 -7 13 -13 -48 -30 -71 -20 -16 7 -31
7 -50 -2 -24 -11 -25 -10 -13 4 7 8 10 19 6 22 -4 4 -12 1 -17 -7 -8 -11 -12
-12 -16 -2 -6 16 -45 16 -62 -1 -10 -10 -11 -9 -6 5 4 10 3 18 -3 18 -5 0 -13
-7 -16 -16 -3 -8 -10 -12 -16 -9 -5 3 -10 -1 -10 -9 0 -21 -67 -27 -80 -7 -8
13 -62 16 -85 5 -28 -13 -60 -11 -81 6 -16 14 -17 13 -11 -3 4 -11 3 -16 -3
-12 -19 12 -60 16 -60 6 0 -5 -9 -9 -19 -8 -11 0 -18 4 -15 9 2 4 -3 11 -13
16 -25 13 -93 22 -93 13 0 -4 -13 -6 -30 -3 -21 3 -32 -1 -36 -11 -3 -9 -12
-13 -20 -10 -7 3 -16 -1 -19 -8 -3 -8 -19 -15 -37 -16 -32 -3 -51 -19 -44 -40
5 -11 -7 -11 -36 1 -9 4 -14 14 -11 22 3 8 0 14 -6 14 -6 0 -11 -7 -11 -15 0
-9 -6 -12 -17 -8 -12 5 -14 3 -8 -7 5 -8 3 -11 -6 -8 -8 3 -22 1 -33 -4 -13
-7 -16 -7 -12 1 4 6 -5 16 -21 22 -15 6 -36 15 -46 20 -12 7 -22 5 -33 -6 -18
-18 -28 -20 -18 -3 5 7 3 8 -7 3 -21 -14 -48 -13 -53 2 -3 7 -11 10 -18 8 -9
-4 -14 3 -15 16 -3 33 -10 34 -56 11 -23 -12 -35 -22 -27 -22 13 0 13 -1 0
-10 -10 -6 -11 -10 -2 -10 6 0 12 -10 12 -22 -1 -22 -1 -23 -15 -4 -13 17 -15
18 -15 3 0 -17 7 -20 42 -20 10 0 15 -4 12 -9 -4 -5 -15 -8 -25 -5 -11 3 -19
2 -19 -3 0 -4 -12 -10 -27 -13 -20 -4 -33 -1 -44 13 -9 11 -19 17 -22 14 -3
-3 -3 3 0 15 4 16 1 21 -15 21 -12 0 -22 9 -25 21 -5 19 -10 21 -44 14 -21 -4
-45 -12 -53 -18 -13 -10 -13 -10 -1 6 8 10 9 17 3 17 -6 0 -9 8 -6 17 4 13 3
14 -3 5 -12 -16 -65 -12 -59 5 6 14 4 15 -38 17 -32 2 -45 -17 -29 -43 9 -14
6 -17 -16 -16 -14 0 -29 5 -33 10 -5 6 -8 5 -8 -2 0 -23 -2 -28 -12 -40 -15
-18 -31 -16 -24 2 3 8 0 15 -7 15 -7 0 -19 10 -27 21 -23 32 -67 49 -96 35
-13 -6 -24 -19 -24 -28 0 -21 -16 -24 -23 -5 -2 7 -8 8 -13 3 -5 -5 -4 -11 4
-13 19 -7 14 -26 -13 -48 -23 -19 -23 -21 -7 -40 14 -16 14 -17 1 -7 -9 6 -19
9 -22 5 -4 -3 -7 -1 -7 5 0 6 -6 9 -14 6 -8 -3 -17 0 -21 5 -3 6 -11 9 -16 6
-5 -4 -9 0 -9 7 0 10 -2 10 -8 0 -5 -7 -25 -13 -45 -14 -33 -1 -35 -3 -19 -15
16 -13 15 -13 -5 -8 -17 5 -23 2 -23 -9 0 -12 -8 -15 -32 -12 -18 2 -39 -1
-46 -7 -7 -5 -15 -7 -19 -4 -3 4 -14 2 -24 -4 -23 -12 -24 -6 -3 26 14 22 14
23 -3 20 -10 -2 -20 -4 -23 -4 -3 -1 2 -6 10 -11 8 -5 11 -10 5 -10 -5 0 -17
5 -25 10 -9 6 -10 10 -3 10 12 0 10 30 -2 50 -3 6 0 13 9 16 16 6 18 42 3 61
-5 7 -6 16 -3 21 6 11 -33 57 -55 64 -8 3 -20 -4 -27 -16 -9 -13 -11 -15 -8
-4 4 12 0 16 -12 12 -14 -5 -13 -2 3 11 20 17 20 17 -5 9 -36 -11 -82 -6 -101
12 -10 9 -23 13 -28 9 -7 -3 -11 2 -11 14 0 12 -4 21 -10 21 -18 0 -10 17 13
28 12 6 16 11 10 11 -7 1 -13 7 -13 15 0 7 -11 25 -25 40 -14 15 -25 30 -25
34 0 4 -9 8 -19 8 -11 0 -18 -4 -15 -7 8 -13 -17 -22 -29 -10 -8 8 -7 11 3 11
11 0 11 3 2 12 -16 16 -15 31 1 22 7 -4 7 -2 -2 7 -10 11 -15 11 -18 2 -8 -22
-23 -14 -23 12 0 20 -5 25 -25 25 -25 0 -35 23 -15 35 6 3 10 11 10 16 0 6 -4
8 -9 4 -5 -3 -12 -1 -16 5 -3 5 -19 10 -35 10 -16 0 -32 5 -36 12 -4 7 -3 8 4
4 7 -4 12 -3 12 2 0 6 -7 13 -16 16 -8 3 -13 10 -9 16 4 6 -6 8 -24 6 -17 -2
-28 0 -26 4 4 6 -54 6 -62 -1 -2 -1 -8 -2 -15 -3 -16 -2 -22 -26 -6 -27 7 0 2
-5 -12 -11 -14 -6 -32 -10 -40 -9 -12 2 -13 0 -3 -10 23 -23 14 -31 -9 -9 -13
12 -31 19 -40 16 -10 -2 -18 0 -18 5 0 5 -6 9 -13 9 -7 0 -13 9 -13 20 0 11 4
20 8 20 4 0 5 7 2 15 -4 8 1 26 10 40 10 15 12 25 6 25 -7 0 -9 8 -5 20 4 13
2 20 -7 20 -7 0 -20 5 -28 10 -13 9 -13 11 0 20 13 8 13 10 -2 10 -24 0 -49
-11 -43 -19 2 -4 -9 -7 -25 -6 -16 1 -27 -2 -24 -7 9 -14 -25 -21 -40 -9 -10
8 -16 9 -21 1 -3 -5 -1 -10 5 -10 6 0 8 -5 5 -10 -4 -6 -11 -5 -20 3 -8 8 -31
13 -59 11 -27 -1 -49 2 -53 9 -14 22 -11 62 5 75 14 11 14 12 -1 12 -9 0 -17
4 -17 10 0 5 -7 6 -17 3 -12 -5 -14 -3 -8 7 6 10 4 12 -8 7 -9 -3 -17 -2 -19
3 -2 6 -16 11 -33 12 -16 2 -38 9 -48 18 -18 16 -23 40 -7 40 5 0 7 7 4 15 -4
8 -14 15 -23 15 -24 0 -30 8 -24 31 5 16 8 17 20 7 13 -10 13 -13 -4 -20 -17
-7 -16 -8 2 -5 21 2 28 36 10 50 -6 4 -1 7 10 5 11 -2 19 2 18 7 -1 6 7 11 17
11 17 0 18 -2 5 -17 -14 -14 -13 -17 8 -26 21 -10 23 -9 21 11 -1 11 -3 29 -3
39 -1 14 -6 17 -23 12 -17 -6 -20 -4 -15 10 4 9 7 26 7 37 0 16 5 19 21 15 13
-3 19 -1 16 6 -2 7 -16 10 -31 9 -20 -3 -27 0 -23 10 2 7 9 12 15 11 6 -2 9 4
6 11 -3 8 -12 12 -20 9 -10 -4 -12 0 -8 11 6 15 37 22 74 16 8 -1 12 1 8 5
-10 10 17 35 36 35 9 0 16 5 16 11 0 5 4 8 9 5 9 -6 26 22 22 38 -1 5 6 5 16
2 9 -4 14 -4 10 0 -10 11 13 34 34 34 13 0 17 5 12 17 -4 10 -2 14 5 9 6 -3
13 -2 16 2 3 5 -6 14 -19 20 -14 7 -25 18 -25 27 0 8 -5 15 -11 15 -5 0 -7 5
-3 12 5 8 2 9 -9 5 -17 -7 -18 -4 -21 47 -1 16 -7 31 -14 34 -7 2 -12 10 -12
18 0 7 -13 23 -29 35 -25 18 -28 25 -20 46 7 18 6 24 -3 21 -6 -2 -12 -14 -13
-26 -2 -30 -15 -40 -16 -14 -1 12 -2 28 -3 35 -1 18 -24 39 -35 32 -15 -9 -23
13 -12 34 8 15 7 20 -5 25 -8 3 -12 10 -9 16 3 5 1 10 -6 10 -10 0 -10 3 0 13
11 9 14 9 18 0 6 -17 23 -17 23 0 0 6 -5 19 -10 27 -9 13 -11 13 -20 0 -9 -13
-11 -13 -19 -1 -5 8 -7 20 -4 28 3 7 -2 13 -11 13 -10 0 -13 -6 -9 -18 3 -9 3
-14 -2 -10 -4 4 -17 -4 -27 -18 -21 -25 -26 -27 -27 -9 -1 6 4 10 11 10 6 0
13 5 15 12 3 7 -4 9 -18 6 -17 -5 -20 -3 -15 8 4 8 1 6 -7 -3 -11 -13 -16 -15
-26 -5 -9 9 -16 9 -31 -1 -25 -15 -33 -15 -24 1 5 8 2 8 -9 -2 -15 -12 -17
-11 -17 8 0 27 18 63 29 57 4 -3 5 8 3 25 -4 25 -2 28 14 23 11 -4 25 -12 33
-18 11 -9 13 -8 9 4 -3 8 4 23 15 33 11 9 15 17 10 17 -6 0 -13 9 -16 19 -3
15 0 19 14 18 11 -1 20 -6 20 -12 1 -5 2 -14 4 -20 1 -5 3 -19 4 -30 2 -11 5
-15 8 -8 3 10 10 10 26 1 20 -10 21 -10 8 5 -7 10 -20 17 -27 17 -8 0 -14 5
-14 11 0 6 7 8 17 5 15 -6 15 -4 -2 14 -21 23 -4 28 19 4 17 -17 19 -14 10 10
-3 9 -11 13 -17 9 -6 -4 -8 0 -4 11 6 14 4 15 -16 5 -12 -6 -19 -8 -15 -4 4 5
4 13 -1 19 -4 6 -11 30 -15 52 -5 36 -3 42 14 47 12 3 18 1 14 -5 -4 -6 -1 -9
7 -6 9 3 14 19 13 41 0 36 5 42 35 38 7 -2 10 2 6 8 -3 6 -1 11 4 11 6 0 11
-6 11 -14 0 -8 6 -16 13 -19 19 -7 36 3 31 18 -4 9 2 13 19 11 17 -2 24 1 20
10 -2 7 5 15 16 19 13 4 20 14 19 28 0 12 3 30 7 40 4 10 3 17 -4 17 -7 0 -11
7 -9 16 2 11 -9 20 -32 28 -27 8 -36 17 -38 39 -4 32 -23 44 -77 48 -38 3 -85
37 -85 62 0 5 -9 7 -21 4 -15 -4 -23 0 -26 14 -3 10 -9 20 -14 20 -5 1 -15 2
-21 3 -7 1 -12 9 -12 18 1 14 -2 15 -17 7 -18 -9 -24 -2 -20 23 0 4 -6 5 -14
2 -8 -4 -12 -10 -9 -15 7 -12 -7 -11 -26 1 -10 6 -11 10 -2 10 6 0 12 5 12 10
0 6 -6 10 -12 9 -25 -3 -38 1 -38 12 0 6 7 8 17 4 14 -5 15 -3 7 5 -9 9 -17 9
-33 1 -17 -9 -20 -9 -15 3 3 8 12 17 19 20 22 8 -3 68 -42 101 -18 15 -33 23
-33 19 0 -5 -7 1 -15 12 -22 33 0 72 40 71 16 -1 33 -6 37 -12 5 -6 8 -6 8 3
0 6 6 12 14 12 8 0 13 8 11 18 -2 9 -4 29 -4 43 -1 20 -8 28 -26 33 -16 4 -23
11 -19 18 5 7 3 8 -7 2 -17 -10 -38 -15 -61 -15 -10 0 -18 -6 -18 -13 0 -22
-45 -40 -68 -27 -11 6 -24 11 -27 11 -8 0 5 -43 15 -50 13 -9 21 -48 11 -54
-5 -4 -15 2 -21 11 -9 15 -10 14 -4 -6 6 -22 4 -24 -24 -18 -21 4 -32 2 -36
-8 -3 -8 -12 -15 -20 -15 -7 0 -16 -9 -19 -21 -4 -15 -11 -19 -25 -15 -12 4
-26 1 -35 -8 -8 -8 -18 -12 -22 -8 -5 4 -5 1 -1 -6 7 -11 11 -10 25 2 10 9 20
16 23 16 11 0 44 -37 60 -68 16 -30 16 -32 0 -33 -10 0 -12 -3 -4 -6 6 -2 12
-18 12 -34 0 -18 4 -28 10 -24 6 3 10 1 10 -4 0 -6 -4 -11 -9 -11 -5 0 -12 -7
-15 -16 -3 -8 -2 -12 4 -9 6 3 10 1 10 -4 0 -6 -7 -11 -15 -11 -8 0 -15 -4
-15 -10 0 -5 5 -10 11 -10 5 0 7 -4 4 -10 -3 -6 -2 -10 3 -10 5 0 12 -10 15
-21 4 -15 11 -20 23 -15 11 4 15 2 11 -8 -3 -7 0 -20 6 -27 7 -7 3 -6 -9 4
-27 22 -34 22 -35 -5 -1 -19 -2 -19 -6 -5 -3 11 -11 16 -19 13 -8 -3 -14 -4
-14 -2 0 2 -7 20 -16 41 -8 20 -11 34 -5 31 5 -4 9 3 8 14 -1 11 -6 20 -11 20
-6 0 -5 5 2 12 17 17 15 31 -3 25 -8 -4 -17 -2 -20 3 -4 6 -1 10 6 10 7 0 6 8
-5 24 -11 18 -12 26 -3 29 6 2 -1 11 -18 18 -16 7 -32 16 -35 19 -12 12 -32
10 -27 -4 7 -18 -2 -28 -17 -18 -6 4 -28 7 -49 8 -44 0 -60 13 -60 48 0 15 -3
29 -8 32 -4 2 -6 10 -3 18 3 7 -7 18 -21 24 -14 6 -25 18 -25 26 0 7 -7 19
-15 26 -8 7 -12 17 -8 23 4 6 0 8 -10 4 -10 -3 -17 -2 -17 3 0 16 -45 5 -46
-11 -2 -28 -4 -29 -26 -9 l-22 20 -32 -31 c-18 -18 -33 -35 -32 -38 3 -14 -15
-40 -23 -35 -5 3 -9 0 -9 -7 0 -8 -5 -7 -16 2 -15 12 -16 11 -10 -8 4 -12 2
-24 -4 -28 -7 -4 -10 -1 -9 6 4 20 -20 61 -31 54 -6 -3 -7 1 -4 10 4 9 -2 25
-11 35 -10 11 -13 20 -8 20 23 0 21 31 -3 55 -25 25 -27 25 -52 9 -15 -9 -36
-25 -47 -35 -11 -10 -35 -18 -55 -18 -62 0 -100 -6 -100 -15 0 -5 -7 -3 -16 5
-12 10 -17 10 -23 0 -6 -8 -15 -9 -33 -2 -14 5 -28 8 -30 6 -2 -2 -12 11 -23
30 -10 19 -22 35 -26 35 -8 0 4 51 18 72 9 16 10 19 12 58 1 21 5 28 15 24 11
-4 13 1 6 30 -4 21 -4 34 1 30 18 -11 3 32 -21 59 -14 16 -26 32 -26 35 -7 32
-22 53 -59 83 -24 19 -44 39 -45 45 0 7 -6 14 -14 17 -9 4 -12 17 -10 36 3 22
-1 31 -11 31 -7 0 -17 9 -20 20 -4 12 -22 37 -41 55 -19 19 -32 35 -29 35 4 0
-1 7 -10 16 -9 9 -14 23 -11 30 3 8 1 14 -4 14 -5 0 -7 7 -4 15 4 8 1 15 -5
15 -6 0 -11 5 -11 11 0 5 6 7 13 3 8 -5 8 -2 -2 9 -9 12 -10 17 -2 17 7 0 9 5
5 11 -4 8 -12 3 -20 -12 -7 -13 -13 -18 -14 -11 0 6 -3 11 -7 10 -5 -1 -21 4
-36 10 -37 16 -45 15 -23 -1 16 -12 16 -14 2 -14 -9 0 -16 3 -16 7 0 4 -12 20
-26 36 -19 21 -25 24 -20 10 7 -19 6 -19 -14 -1 -11 10 -20 27 -20 37 0 15 -5
18 -22 13 -18 -5 -19 -4 -8 4 12 9 12 11 -3 17 -16 6 -16 7 -1 19 9 6 14 18
11 26 -4 10 -6 9 -6 -3 -1 -22 -21 -24 -21 -3 0 8 -9 15 -19 15 -24 0 -37 18
-32 44 1 11 -2 16 -8 12 -6 -4 -11 0 -11 8 0 9 -6 16 -14 16 -9 0 -13 7 -11
19 2 11 -3 22 -11 25 -8 3 -14 11 -13 18 0 10 2 10 6 0 2 -6 9 -9 15 -6 5 3 2
15 -9 27 -10 11 -12 17 -5 13 6 -4 12 -3 12 3 0 5 7 17 16 25 8 9 11 16 5 16
-6 0 -11 5 -11 10 0 17 28 11 40 -7 11 -17 11 -17 6 -1 -3 10 -1 20 4 23 6 4
10 2 10 -4 0 -5 8 -9 18 -9 9 0 25 -3 34 -7 12 -5 20 -2 24 9 5 13 10 14 20 5
7 -6 22 -8 33 -4 10 3 22 1 26 -5 4 -6 16 -8 28 -5 17 5 19 4 7 -4 -12 -8 -9
-12 18 -17 19 -4 32 -13 32 -21 0 -9 6 -13 14 -10 10 4 13 1 9 -9 -5 -14 -1
-15 62 -18 17 0 29 -5 28 -11 -1 -5 10 -11 23 -11 13 -1 21 2 18 7 -3 5 2 6
10 3 19 -7 21 -21 4 -27 -7 -2 -10 -7 -7 -11 4 -4 13 0 22 8 17 17 28 11 20
-10 -6 -17 -3 -17 34 -3 23 8 26 8 16 -2 -18 -18 -16 -29 6 -29 19 0 33 -20
36 -52 1 -10 -2 -18 -8 -18 -6 0 -8 -3 -5 -6 4 -3 18 2 32 11 26 17 26 17 24
-6 -2 -15 2 -23 10 -21 6 1 12 -2 12 -8 0 -5 7 -7 15 -4 8 4 15 2 15 -4 0 -6
-5 -12 -11 -14 -7 -2 -4 -10 7 -18 10 -8 15 -10 11 -3 -7 12 19 25 58 28 12 1
20 9 20 21 0 11 7 19 16 19 9 0 23 6 31 13 9 7 24 9 34 5 17 -6 17 -5 5 10 -8
10 -10 24 -6 34 5 10 7 21 7 26 -1 4 2 7 7 7 5 0 17 7 26 17 30 29 126 20 108
-10 -3 -5 4 -4 15 2 15 8 23 8 28 -1 4 -7 3 -8 -4 -4 -7 4 -12 2 -12 -4 0 -15
35 -8 36 8 1 6 2 19 3 28 0 10 7 14 15 11 8 -3 16 2 19 14 3 10 0 19 -6 20 -8
0 -8 2 1 6 6 2 12 12 12 20 0 11 -3 13 -13 5 -9 -8 -13 -3 -14 21 -1 17 -10
35 -18 40 -12 6 -14 17 -10 38 4 19 3 29 -5 29 -10 0 -10 3 -1 14 9 11 9 16 0
21 -8 6 -7 10 2 16 10 6 11 9 2 9 -7 0 -13 7 -13 15 0 8 -6 15 -12 16 -10 0
-10 2 0 6 10 4 10 8 0 21 -10 12 -10 14 0 8 6 -4 12 -2 12 3 0 6 -7 11 -15 11
-8 0 -15 -5 -15 -12 0 -6 -3 -8 -6 -5 -4 4 -2 13 5 20 6 8 8 22 5 32 -5 13 -3
16 7 13 8 -3 19 1 26 8 17 16 16 21 -2 21 -8 0 -11 -5 -8 -11 4 -6 2 -7 -3 -3
-5 5 -10 13 -10 18 -1 5 -2 13 -3 19 -1 6 -10 6 -26 0 -15 -6 -26 -6 -30 1 -4
5 -11 6 -17 3 -7 -4 -8 -2 -4 4 4 6 14 8 22 5 14 -5 15 -3 4 17 -8 16 -9 20
-1 15 7 -4 18 -1 26 5 18 15 49 5 39 -12 -4 -7 5 -2 19 11 25 23 27 23 51 7
30 -19 40 -20 30 -3 -4 7 -3 9 2 4 5 -5 10 -13 10 -18 1 -5 2 -11 3 -13 0 -3
14 0 31 5 26 10 28 13 15 26 -8 8 -15 17 -15 21 1 17 51 62 68 62 11 0 23 7
26 16 4 9 13 14 21 10 8 -3 15 -1 15 5 0 6 5 7 11 4 6 -4 17 2 25 14 8 12 22
21 30 21 8 0 13 4 10 9 -8 13 4 42 15 35 5 -3 9 -1 9 4 0 5 24 19 53 33 28 13
56 29 60 36 4 7 19 24 32 37 13 13 21 27 18 30 -4 3 1 6 11 6 10 0 14 5 10 11
-4 7 0 9 14 5 19 -7 52 15 52 34 0 5 12 21 27 37 16 15 27 33 25 41 -2 8 1 11
6 8 6 -3 12 1 15 9 3 7 22 17 41 21 33 6 41 14 37 37 0 4 3 7 9 7 5 0 10 7 10
15 0 7 7 18 16 23 12 7 17 24 17 59 1 46 2 50 24 47 13 -1 23 2 23 8 0 6 7 8
15 4 8 -3 15 -1 15 4 0 5 8 16 17 26 10 9 17 32 17 52 0 19 2 30 4 23 2 -6 12
-11 23 -11 10 0 19 -5 19 -12 0 -8 6 -6 16 4 12 12 23 14 39 8 28 -11 62 -3
69 17 3 7 2 11 -3 8 -17 -10 -22 13 -7 28 8 8 12 18 8 22 -4 5 -2 6 3 2 13 -7
39 13 48 36 4 10 12 15 17 12 6 -4 17 -1 25 5 8 6 18 9 24 6 5 -4 16 1 24 9 9
8 18 15 21 15 10 0 46 39 46 50 0 6 6 10 14 10 7 0 27 14 44 30 18 17 43 30
56 30 13 0 27 7 30 16 3 8 10 13 15 10 17 -11 57 15 68 45 6 16 23 33 37 39
15 5 29 18 33 27 3 10 18 28 32 41 23 21 26 21 31 6 6 -17 7 -17 13 0 4 10 12
14 19 10 19 -12 58 -14 58 -3 0 6 -5 7 -11 3 -7 -4 -10 -1 -7 7 3 8 13 13 23
11 13 -3 16 1 11 14 -5 13 -4 14 7 6 9 -7 17 -8 27 -1 11 8 12 12 3 16 -19 7
-16 19 11 48 22 24 25 24 52 10 16 -8 36 -25 46 -37 14 -18 20 -20 26 -10 12
18 97 -62 89 -82 -3 -8 0 -19 6 -25 15 -12 79 -12 71 1 -7 11 17 10 36 -2 9
-5 19 -5 27 2 8 6 18 7 26 2 10 -8 33 -9 85 -2 6 1 11 8 10 17 -2 9 7 20 19
26 13 5 23 15 23 22 0 7 7 13 16 13 8 0 13 4 10 9 -7 11 32 47 41 38 3 -4 1
-7 -5 -7 -7 0 -12 -4 -12 -10 0 -5 6 -7 13 -4 8 3 19 -2 26 -10 12 -14 17 -14
48 -1 31 13 40 13 63 1 16 -7 34 -10 40 -6 7 4 23 7 36 5 13 -1 24 2 24 6 0 5
7 9 15 9 8 0 15 5 15 11 0 8 4 9 13 0 8 -6 17 -8 21 -4 4 4 15 8 23 8 10 0 20
15 27 37 6 21 20 44 32 52 18 13 21 24 19 73 -3 82 -14 129 -27 112 -8 -12 -9
-11 -5 1 2 8 12 14 21 12 9 -2 15 3 14 10 -2 7 3 12 10 10 18 -3 15 15 -4 22
-9 4 -22 2 -29 -4 -9 -8 -15 -8 -20 0 -5 8 -11 8 -21 -1 -7 -6 -11 -15 -8 -20
3 -5 0 -9 -5 -9 -6 0 -11 5 -11 12 0 9 -3 9 -12 0 -16 -16 -28 -15 -24 1 1 6
1 9 -1 4 -3 -4 -10 -4 -16 -1 -8 5 -8 2 1 -7 6 -7 12 -20 12 -29 0 -10 -6 -8
-21 10 -17 21 -19 22 -10 3 11 -22 -4 -45 -18 -27 -6 8 -36 11 -53 4 -5 -1
-18 -3 -30 -4 -13 -1 -22 -8 -20 -14 2 -10 -3 -10 -18 -2 -16 9 -19 8 -13 -6
5 -13 2 -15 -15 -9 -12 3 -22 2 -22 -3 0 -5 -12 -9 -27 -10 -48 0 -54 -2 -48
-12 3 -5 0 -7 -8 -4 -22 8 -89 -36 -83 -55 4 -11 2 -10 -9 3 -8 11 -15 14 -15
7 0 -7 -5 -9 -10 -6 -7 4 -6 13 1 27 9 16 8 19 -2 13 -7 -5 -18 -1 -27 11 -13
16 -14 17 -9 2 8 -22 0 -23 -19 -4 -16 17 -19 30 -4 21 5 -3 10 -2 10 4 0 5
-5 13 -10 16 -6 3 -7 14 -2 23 4 9 6 35 5 57 -7 116 -9 134 -16 141 -4 4 5 15
19 25 23 15 29 15 41 3 22 -22 34 -17 23 10 -5 13 -6 27 -2 31 4 4 -2 13 -12
21 -17 12 -18 14 -3 14 9 0 17 -5 17 -11 0 -6 9 -8 23 -4 17 5 19 4 7 -4 -11
-8 -11 -11 -2 -11 7 0 15 7 18 15 4 8 11 12 17 8 5 -3 7 -2 4 4 -4 6 12 30 36
54 23 23 41 47 39 51 -1 5 5 11 13 14 8 3 12 10 9 15 -10 16 13 9 27 -8 10
-11 10 -14 2 -9 -7 4 -13 2 -13 -3 0 -6 9 -11 21 -11 12 0 18 4 13 11 -4 7 -1
10 7 7 8 -3 12 -12 11 -19 -2 -8 -1 -11 3 -7 4 4 14 1 21 -7 16 -16 19 -29 4
-20 -6 4 -9 -4 -8 -19 2 -20 5 -23 16 -13 11 8 16 7 24 -6 5 -10 13 -15 19
-12 5 4 9 2 9 -3 0 -5 11 -12 25 -14 14 -3 25 -1 25 3 0 5 -4 9 -10 9 -5 0
-10 4 -10 9 0 12 43 1 53 -13 5 -7 7 -3 6 9 -3 46 3 49 62 30 21 -7 23 -2 9
25 -7 13 -7 21 1 26 8 4 7 9 -2 16 -10 6 -7 7 9 3 22 -6 32 10 10 17 -7 3 -6
7 5 11 9 3 17 2 17 -3 0 -6 5 -10 11 -10 7 0 9 11 6 28 -5 25 -3 28 20 28 19
-1 27 4 28 19 1 11 4 25 6 30 2 6 -2 20 -9 32 -11 19 -10 22 3 17 8 -3 12 -10
9 -15 -3 -5 2 -6 10 -3 9 3 16 10 16 16 0 5 -4 6 -10 3 -5 -3 -10 -1 -10 4 0
6 8 11 18 12 13 0 11 3 -6 10 -13 5 -21 13 -18 18 3 4 -3 16 -13 25 -11 10
-22 13 -25 8 -3 -5 3 -17 14 -27 11 -10 20 -23 20 -28 0 -6 -3 -7 -6 -4 -4 3
-16 2 -27 -4 -13 -7 -17 -7 -13 -1 3 6 1 14 -5 18 -8 4 -9 3 -5 -4 4 -8 0 -12
-10 -12 -16 0 -16 -1 2 -15 10 -8 14 -15 8 -15 -6 0 -17 7 -24 15 -7 8 -9 15
-4 15 5 0 1 7 -9 14 -15 12 -17 18 -7 36 6 11 19 20 28 19 30 -3 35 1 22 16
-10 12 -10 15 0 15 7 0 19 -8 26 -17 16 -22 34 -8 38 31 3 23 0 26 -25 26 -21
0 -29 -5 -30 -17 -1 -16 -2 -15 -6 1 -4 15 -7 16 -14 5 -7 -11 -9 -9 -9 8 0
12 -5 25 -10 28 -15 9 -2 25 20 25 10 0 22 4 25 10 3 6 -1 7 -9 4 -10 -4 -16
-1 -16 7 0 8 -8 4 -20 -9 -19 -21 -23 -41 -8 -52 4 -3 4 -11 -1 -18 -5 -9 -13
-7 -29 8 -26 24 -28 38 -7 46 8 4 15 11 15 17 0 5 -8 3 -18 -6 -23 -21 -39
-22 -22 -2 10 13 9 19 -6 36 -15 17 -16 22 -5 29 8 4 21 6 30 3 10 -3 7 3 -7
16 -23 20 -23 20 -4 39 13 13 17 24 11 35 -6 10 -5 18 2 23 7 4 9 3 5 -4 -3
-6 -2 -13 4 -17 5 -3 10 -1 10 5 0 6 5 8 10 5 8 -5 8 -11 0 -20 -9 -11 -7 -12
9 -8 12 3 19 8 17 12 -2 3 7 11 20 18 13 6 24 8 24 3 0 -4 -7 -10 -15 -14 -8
-3 -15 -10 -15 -15 0 -19 27 0 39 27 10 21 14 23 22 11 5 -9 9 -10 9 -2 0 7
-10 21 -22 33 -12 11 -16 20 -9 20 8 0 11 10 8 30 -3 16 -2 29 1 29 22 -3 30
3 25 21 -5 20 -6 20 -27 3 -21 -18 -21 -18 -6 2 37 50 52 95 30 95 -16 0 28
65 64 95 19 16 33 32 30 36 -7 12 54 67 73 65 12 0 17 5 17 17 -2 14 1 15 12
6 8 -6 25 -9 39 -7 13 3 22 1 19 -3 -3 -5 6 -5 19 0 26 10 31 7 79 -52 22 -26
88 -46 88 -26 0 12 57 -14 89 -42 16 -13 26 -29 24 -36 -2 -6 5 -14 16 -18 12
-3 21 -15 21 -25 0 -10 7 -20 15 -24 8 -3 15 0 15 7 0 7 10 -3 21 -20 12 -18
27 -33 34 -33 8 0 16 -8 20 -19 7 -24 51 -72 59 -64 3 4 6 1 6 -6 0 -7 4 -9
10 -6 10 6 13 -5 11 -35 0 -10 1 -11 5 -2 8 18 24 15 24 -5 0 -15 2 -15 9 -4
5 8 17 16 25 17 9 1 13 -2 10 -8 -5 -7 5 -9 30 -4 32 6 36 5 36 -15 0 -16 5
-20 19 -16 13 3 18 0 15 -8 -3 -7 -1 -16 5 -20 6 -3 11 -11 11 -16 0 -6 -4 -7
-10 -4 -17 10 -15 -57 2 -89 9 -16 7 -18 -6 -13 -10 4 -15 3 -11 -3 4 -6 -1
-17 -10 -26 -13 -13 -13 -19 -3 -32 7 -9 8 -13 3 -10 -6 4 -12 -4 -13 -18 -1
-13 3 -24 8 -24 6 0 12 0 15 0 3 0 4 3 3 8 -2 4 -7 6 -13 4 -6 -2 -5 1 1 8 7
7 19 7 34 2 19 -7 20 -10 7 -15 -9 -3 -14 -13 -11 -21 3 -8 1 -17 -5 -21 -6
-3 -11 -11 -11 -17 0 -6 7 -5 18 3 23 18 -13 -27 -48 -60 -14 -13 -24 -28 -22
-34 2 -5 -2 -13 -8 -17 -6 -4 -12 -21 -12 -38 -1 -17 -5 -29 -9 -26 -5 3 -6
-2 -3 -10 3 -9 2 -16 -4 -16 -5 0 -13 -7 -16 -16 -4 -9 -2 -13 5 -8 7 4 10 1
7 -7 -3 -8 -11 -13 -17 -11 -6 1 -11 -4 -11 -10 0 -7 -5 -5 -11 5 -10 18 -12
18 -27 -4 -14 -21 -14 -23 6 -40 15 -12 18 -19 10 -22 -8 -3 -6 -6 5 -6 9 -1
17 -8 17 -16 0 -25 46 -66 66 -58 12 4 15 2 12 -8 -3 -8 1 -19 8 -26 14 -15
28 -17 20 -5 -3 5 1 9 9 9 8 0 12 -4 9 -9 -3 -4 4 -8 15 -8 12 0 21 4 21 9 0
5 9 11 20 14 11 3 20 1 20 -4 0 -5 -4 -9 -10 -9 -5 0 -10 -5 -10 -10 0 -16 24
-6 32 13 4 10 12 15 18 12 6 -4 7 -11 4 -17 -5 -7 2 -9 19 -6 15 3 24 1 21 -3
-3 -5 2 -9 11 -9 9 0 14 -4 11 -9 -3 -4 4 -17 15 -27 11 -10 17 -24 14 -32 -4
-11 1 -11 21 3 26 17 27 17 20 -1 -6 -15 -5 -16 5 -7 7 7 24 9 40 6 20 -4 29
-1 29 8 0 10 3 10 12 1 16 -16 23 -15 44 6 14 13 16 13 12 2 -6 -16 16 -43 26
-33 10 10 7 25 -4 18 -6 -3 -10 -1 -10 4 0 17 13 13 44 -14 17 -14 35 -24 41
-21 8 3 10 -5 7 -22 -4 -21 -2 -25 8 -15 7 6 19 9 28 6 10 -4 13 -2 8 5 -12
20 6 14 32 -10 14 -13 22 -18 19 -12 -4 7 0 15 9 18 8 3 12 2 9 -4 -3 -6 -3
-11 2 -11 40 -7 61 -1 86 23 15 16 23 28 17 28 -19 0 -10 28 10 33 17 4 20 2
15 -14 -4 -11 -2 -19 4 -19 6 0 11 7 11 15 0 8 4 15 10 15 6 0 5 11 -3 27 -9
21 -9 27 1 31 7 2 10 8 6 13 -3 5 0 8 8 7 8 -2 12 4 10 15 -3 15 2 16 24 11
18 -5 25 -3 21 3 -7 11 27 26 51 24 7 -1 15 5 18 12 3 9 13 13 25 10 10 -3 16
-9 13 -14 -3 -5 0 -17 6 -26 10 -16 11 -16 6 -1 -3 12 1 16 15 15 11 -1 19 -9
19 -19 0 -25 16 -31 84 -34 75 -3 97 -6 91 -12 -10 -10 30 -30 41 -21 8 7 19
1 32 -16 14 -18 33 -27 58 -30 20 -2 40 -7 43 -13 7 -10 50 -35 68 -38 6 -1
14 9 17 22 6 22 8 23 22 9 20 -20 27 -19 20 3 -5 15 -1 18 16 17 15 -1 22 -8
20 -19 -4 -20 5 -21 23 -2 8 7 13 27 13 45 -1 17 2 34 5 38 8 7 37 -15 37 -29
0 -12 52 -57 68 -58 6 0 12 5 12 11 0 6 9 8 20 4 11 -4 20 -2 20 4 0 6 11 11
25 11 16 0 25 -6 25 -16 0 -11 6 -15 20 -11 11 3 22 1 25 -3 6 -9 45 -1 43 9
-3 14 25 65 29 53 3 -6 9 -10 14 -6 5 3 16 -2 25 -10 25 -25 51 -19 73 18 25
39 27 64 6 72 -8 4 -15 12 -15 19 0 7 -9 15 -19 18 -17 4 -38 66 -34 105 1 15
-9 16 -24 1 -9 -9 -14 -5 -19 15 -3 15 -3 30 0 33 13 13 36 11 36 -3 0 -8 6
-11 15 -8 8 4 15 12 15 19 0 8 5 17 11 20 12 8 51 -24 44 -36 -3 -4 -1 -10 5
-14 5 -3 10 0 10 7 0 7 13 -2 29 -19 27 -31 71 -45 71 -23 0 6 6 10 13 9 29
-4 37 3 37 30 0 16 6 31 14 34 12 5 11 14 -2 60 -14 52 -14 57 4 79 10 12 25
23 33 23 27 0 35 30 18 68 -24 50 -22 57 18 57 24 0 35 -5 35 -15 0 -8 5 -15
11 -15 6 0 8 -9 4 -20 -9 -28 3 -25 37 10 15 17 33 30 39 30 5 0 8 4 5 9 -4 5
9 24 26 42 18 17 41 43 50 57 9 14 23 27 31 28 8 1 29 12 46 25 24 17 34 20
43 11 8 -8 15 -9 25 -1 7 7 13 7 13 2 0 -16 48 -34 53 -20 2 6 20 11 40 10 36
-1 49 10 25 21 -7 3 -3 3 9 0 18 -4 22 -2 17 10 -4 11 0 16 14 16 11 0 22 6
25 14 8 22 91 63 141 70 25 4 48 11 51 17 4 5 11 7 16 3 6 -3 16 1 22 10 7 8
30 17 52 19 22 2 39 8 38 13 -1 5 15 20 35 34 20 13 52 37 69 54 35 32 51 37
128 40 28 2 62 8 78 14 31 13 109 12 119 -3 4 -5 14 -2 25 8 21 18 58 13 67
-9 7 -19 23 -18 48 6 12 10 25 17 29 14 4 -2 10 0 14 6 4 6 11 8 16 4 5 -3 7
-9 4 -13 -2 -5 15 -8 38 -8 47 1 77 -7 126 -31 26 -13 35 -14 38 -5 4 10 10
10 26 1 16 -8 22 -8 25 1 2 6 13 11 24 11 12 0 41 12 65 26 24 14 56 28 71 30
41 7 54 13 48 23 -8 13 26 19 52 10 12 -5 22 -13 22 -19 0 -5 7 -10 15 -10 8
0 15 -4 15 -10 0 -14 87 -71 118 -76 15 -3 33 -7 40 -9 12 -5 46 23 53 43 2 6
19 12 37 14 17 1 32 8 32 15 0 16 45 64 53 56 4 -3 7 -1 7 6 0 15 25 41 39 41
5 0 22 12 37 27 30 30 112 63 155 63 19 0 30 6 34 20 3 11 10 20 14 20 4 0 16
8 27 18 10 9 48 31 84 49 39 19 78 48 99 72 19 23 39 41 46 41 7 0 16 12 20
28 8 34 33 62 54 62 21 0 63 64 50 77 -21 21 86 67 129 56 17 -4 23 -2 18 6
-5 7 4 11 28 11 20 0 36 -4 36 -8 0 -5 23 -4 50 2 28 5 50 15 50 21 0 17 51
38 63 26 6 -6 18 -4 33 6 22 14 24 14 24 -1 0 -9 4 -16 10 -16 5 0 27 -16 47
-37 21 -20 40 -36 43 -36 14 1 53 -19 72 -37 12 -11 28 -20 35 -20 7 0 13 -4
13 -9 0 -22 125 -30 159 -12 9 6 24 3 39 -7 20 -13 25 -13 33 -1 7 11 9 11 9
-3 0 -9 8 -23 19 -30 18 -13 21 -18 21 -38 0 -5 7 -10 15 -10 8 0 15 4 15 8 0
4 19 8 42 7 31 0 48 6 65 23 12 12 29 22 37 22 8 0 16 8 18 18 5 21 -39 65
-57 58 -8 -3 -18 1 -24 8 -8 10 -4 23 15 52 15 21 32 42 38 46 6 4 11 11 11
15 4 55 61 77 107 43 27 -20 57 -23 69 -7 3 4 18 1 33 -7 34 -17 82 -4 91 25
4 10 10 19 15 19 5 0 7 6 4 14 -4 10 4 16 24 21 29 6 47 28 37 45 -3 4 6 11
20 14 16 4 22 11 19 21 -4 8 -1 15 5 15 6 0 11 -4 11 -9 0 -12 91 10 96 24 5
12 44 15 44 3z m-6950 -1333 c0 -5 -5 -3 -10 5 -5 8 -10 20 -10 25 0 6 5 3 10
-5 5 -8 10 -19 10 -25z m-1175 -26 c-4 -5 -12 -9 -18 -8 -9 0 -8 2 1 6 6 2 9
10 6 15 -4 7 -2 8 5 4 6 -4 9 -12 6 -17z m-2899 -69 c11 -9 15 -10 10 -2 -4 6
-3 12 3 12 5 0 12 -4 16 -9 3 -6 14 -8 24 -6 10 2 24 -1 32 -5 9 -6 20 -3 32
7 13 12 20 14 29 5 8 -8 17 -8 30 -1 13 7 23 7 33 -1 10 -8 14 -8 17 1 3 8 13
7 37 -6 28 -14 35 -15 43 -3 8 10 9 9 5 -4 -4 -10 4 -23 18 -34 13 -10 22 -21
19 -26 -3 -4 0 -9 5 -9 20 -3 26 -4 38 -12 6 -4 19 -4 29 0 13 5 15 3 9 -8 -8
-12 -6 -12 8 0 15 12 17 11 17 -3 0 -10 4 -15 9 -11 5 3 12 1 16 -5 4 -6 12
-8 18 -4 7 3 4 -1 -6 -9 -17 -14 -16 -15 14 -14 27 2 33 -2 40 -26 7 -25 6
-27 -9 -15 -12 9 -14 10 -8 1 11 -20 -3 -36 -20 -22 -24 20 -15 1 13 -28 20
-19 22 -25 10 -20 -11 4 -27 1 -40 -9 -22 -16 -22 -16 6 -11 15 2 27 0 27 -4
0 -5 -6 -9 -12 -9 -7 0 -22 -8 -33 -16 -12 -10 -14 -14 -5 -12 8 3 23 -4 33
-15 19 -23 22 -37 6 -37 -5 0 -8 4 -4 9 3 6 -3 15 -14 20 -15 9 -18 7 -17 -7
1 -12 -6 -17 -24 -16 -14 1 -28 -3 -32 -10 -6 -8 -11 -7 -18 4 -6 10 -10 11
-10 3 0 -7 -7 -13 -15 -13 -8 0 -15 -5 -15 -11 0 -16 -26 -39 -35 -31 -5 4 -5
-1 -2 -11 4 -11 3 -16 -3 -12 -6 3 -10 12 -10 20 0 9 -7 11 -22 7 -20 -5 -21
-6 -3 -12 17 -6 17 -7 -5 -13 -15 -4 -27 -1 -32 6 -4 7 -8 8 -8 3 0 -5 -7 -3
-15 4 -14 12 -20 7 -16 -14 1 -5 -6 -5 -16 -1 -10 4 -25 8 -33 10 -8 2 -17 4
-20 5 -15 6 -48 -4 -75 -23 -16 -11 -24 -14 -17 -7 16 18 15 27 -3 27 -8 0
-15 -4 -15 -9 0 -5 -4 -7 -9 -3 -5 3 -12 1 -15 -3 -3 -5 -31 -8 -61 -7 -40 2
-60 -2 -71 -13 -12 -12 -18 -12 -24 -3 -5 10 -9 8 -14 -4 -3 -9 -4 -21 -1 -25
3 -5 -3 -8 -14 -7 -12 1 -17 6 -13 15 4 12 1 12 -17 3 -12 -7 -26 -9 -31 -6
-6 3 -10 1 -10 -4 0 -6 -5 -11 -11 -11 -6 0 -9 7 -6 15 4 8 1 17 -5 21 -7 4
-8 3 -4 -4 4 -7 3 -12 -2 -12 -6 0 -12 7 -16 15 -6 17 -66 21 -66 4 0 -6 -6
-9 -13 -6 -7 3 -13 -3 -14 -13 -1 -10 7 -20 18 -23 16 -4 19 -12 15 -34 -2
-15 -5 -32 -5 -36 -1 -4 -10 -3 -21 3 -16 8 -20 8 -18 -2 2 -7 8 -17 13 -21 6
-5 -5 -6 -22 -3 -22 4 -33 2 -33 -7 0 -7 -7 -4 -15 7 -7 10 -18 15 -24 11 -6
-3 -11 -1 -11 5 0 6 -4 9 -9 5 -5 -3 -12 -1 -16 4 -3 6 -13 8 -23 5 -14 -5
-15 -4 -2 5 8 6 11 11 5 11 -5 0 -3 5 5 10 11 8 8 9 -13 6 -19 -3 -30 0 -34
11 -5 13 -9 11 -26 -8 l-19 -24 15 25 c10 17 23 24 39 22 18 -2 20 0 8 8 -10
6 -11 10 -2 10 6 0 12 5 12 11 0 5 -10 3 -22 -5 -36 -25 -46 -18 -13 8 25 21
28 27 16 38 -12 11 -13 11 -6 0 5 -10 2 -13 -11 -10 -13 3 -18 11 -17 26 3 21
-9 27 -44 23 -7 -1 -10 10 -8 30 3 22 -3 41 -22 65 -30 40 -19 47 13 7 14 -18
23 -23 28 -15 4 7 1 12 -7 12 -7 0 -19 12 -26 27 -11 24 -10 25 4 13 8 -7 19
-9 23 -5 4 4 1 10 -5 12 -15 5 -17 23 -4 23 5 0 17 -8 27 -17 17 -17 17 -17
12 4 -6 23 13 49 26 36 4 -4 11 -1 16 7 8 12 10 12 10 -4 0 -14 9 -9 40 23 32
32 46 40 62 35 14 -4 18 -2 14 5 -7 10 6 16 27 12 5 -1 6 3 2 9 -3 5 10 26 29
46 20 21 36 34 36 30 0 -4 6 -1 14 6 7 7 11 19 9 25 -3 7 1 13 8 14 8 0 25 2
39 5 75 12 120 12 120 1 0 -9 2 -9 8 -1 16 26 118 28 148 4z m2998 -72 c8 -5
7 -8 -1 -8 -7 0 -17 9 -23 19 -14 27 -12 41 2 16 6 -11 16 -23 22 -27z m-31
-33 c-3 -9 -8 -14 -10 -11 -3 3 -2 9 2 15 9 16 15 13 8 -4z m2927 -63 c3 -3
-2 -3 -11 1 -15 5 -16 0 -12 -36 l6 -42 -27 24 c-14 14 -26 31 -26 38 0 8 -4
11 -10 8 -11 -7 -12 0 -4 33 l6 22 37 -22 c20 -12 38 -24 41 -26z m-2843 -84
c-3 -8 -6 -5 -6 6 -1 11 2 17 5 13 3 -3 4 -12 1 -19z m2811 -6 c-21 -4 -23
-13 -7 -29 7 -7 6 -12 -5 -16 -10 -4 -13 -1 -10 7 3 8 1 17 -5 21 -16 9 11 34
29 27 12 -5 12 -7 -2 -10z m42 -16 c0 -3 -4 -8 -10 -11 -5 -3 -10 -1 -10 4 0
6 5 11 10 11 6 0 10 -2 10 -4z m-3200 -46 c0 -5 -2 -10 -4 -10 -3 0 -8 5 -11
10 -3 6 -1 10 4 10 6 0 11 -4 11 -10z m65 -19 c3 -5 1 -12 -5 -16 -5 -3 -10 1
-10 9 0 18 6 21 15 7z m9805 -19 c0 -15 -2 -15 -10 -2 -13 20 -13 33 0 25 6
-3 10 -14 10 -23z m-13247 -7 c-3 -9 -8 -14 -10 -11 -3 3 -2 9 2 15 9 16 15
13 8 -4z m55 -62 c-16 -4 -17 -7 -3 -34 9 -16 13 -29 11 -29 -10 0 -35 57 -29
64 4 3 13 5 22 5 13 -1 13 -2 -1 -6z m317 -53 c3 -5 1 -10 -4 -10 -6 0 -11 5
-11 10 0 6 2 10 4 10 3 0 8 -4 11 -10z m2730 -40 c-10 -11 -20 -18 -23 -16 -5
6 21 35 32 36 5 0 1 -9 -9 -20z m2085 -29 c0 -5 -7 -11 -14 -14 -10 -4 -13 -1
-9 9 6 15 23 19 23 5z m230 -85 c0 -3 -4 -8 -10 -11 -5 -3 -10 -1 -10 4 0 6 5
11 10 11 6 0 10 -2 10 -4z m-1950 -150 c0 -3 -4 -8 -10 -11 -5 -3 -10 -1 -10
4 0 6 5 11 10 11 6 0 10 -2 10 -4z m10130 -50 c0 -2 -7 -7 -16 -10 -8 -3 -12
-2 -9 4 6 10 25 14 25 6z m-10460 -22 c0 -8 -5 -12 -10 -9 -6 4 -8 11 -5 16 9
14 15 11 15 -7z m70 -234 c0 -5 -4 -10 -10 -10 -5 0 -10 5 -10 10 0 6 5 10 10
10 6 0 10 -4 10 -10z m10551 -393 c-10 -9 -11 -8 -5 6 3 10 9 15 12 12 3 -3 0
-11 -7 -18z m-96 -767 c3 -6 -1 -7 -9 -4 -18 7 -21 14 -7 14 6 0 13 -4 16 -10z
m-75 -170 c0 -5 -2 -10 -4 -10 -3 0 -8 5 -11 10 -3 6 -1 10 4 10 6 0 11 -4 11
-10z m-12776 -122 c-5 -8 0 -9 16 -5 13 3 19 2 14 -2 -5 -5 -20 -12 -34 -16
-19 -5 -21 -4 -10 4 8 6 11 11 7 11 -9 0 1 20 9 20 3 0 2 -5 -2 -12z m12536
-37 c0 -5 -10 -11 -22 -14 -22 -6 -22 -6 -4 8 23 17 26 18 26 6z m171 -43 c-4
-12 -14 -24 -22 -26 -9 -2 -10 -1 -3 5 6 4 13 16 17 26 3 9 9 17 11 17 3 0 2
-10 -3 -22z m-13701 -88 c0 -5 -4 -10 -10 -10 -5 0 -10 5 -10 10 0 6 5 10 10
10 6 0 10 -4 10 -10z m70 -25 c7 -9 8 -15 2 -15 -5 0 -12 7 -16 15 -3 8 -4 15
-2 15 2 0 9 -7 16 -15z m-40 -15 c0 -11 -4 -20 -9 -20 -5 0 -7 9 -4 20 3 11 7
20 9 20 2 0 4 -9 4 -20z m20 -184 c0 -3 -4 -8 -10 -11 -5 -3 -10 -1 -10 4 0 6
5 11 10 11 6 0 10 -2 10 -4z m295 -274 c-3 -3 -11 0 -18 7 -9 10 -8 11 6 5 10
-3 15 -9 12 -12z m13322 -134 c-3 -8 -6 -5 -6 6 -1 11 2 17 5 13 3 -3 4 -12 1
-19z m-11783 -660 c-3 -5 -12 -4 -20 3 -19 16 -18 18 6 12 11 -3 17 -9 14 -15z
m76 -192 c0 -11 -33 -36 -41 -31 -16 10 -10 23 14 28 12 2 23 5 25 6 1 0 2 -1
2 -3z m12720 -5 c0 -5 -7 -14 -15 -21 -12 -10 -15 -10 -15 2 0 8 3 18 7 21 9
10 23 9 23 -2z m-12854 -38 c-2 -9 -8 -19 -14 -21 -17 -5 -15 -22 3 -22 17 0
34 29 28 48 -3 7 3 12 14 12 13 0 15 -2 5 -9 -10 -6 -10 -10 2 -20 11 -10 15
-9 18 2 2 11 7 10 23 -5 19 -18 19 -19 1 -12 -14 5 -17 4 -12 -4 10 -17 -2
-49 -20 -56 -8 -3 -13 -2 -10 2 6 9 -22 47 -29 40 -4 -3 -7 -15 -8 -27 -2 -25
-10 -27 -27 -6 -10 12 -9 15 6 15 17 0 17 1 -1 14 -17 12 -21 12 -31 -1 -10
-14 -12 -14 -17 1 -9 23 1 39 19 32 8 -3 20 3 26 14 16 24 27 26 24 3z m199
-35 c5 4 5 2 1 -5 -4 -7 -13 -10 -20 -7 -9 3 -18 -5 -24 -23 -6 -15 -11 -22
-11 -15 -1 6 -7 12 -14 12 -8 0 -14 7 -14 15 0 11 6 13 20 9 12 -4 17 -2 13 4
-8 13 16 22 30 11 6 -5 15 -5 19 -1z m59 -34 c5 -14 4 -15 -9 -4 -17 14 -19
20 -6 20 5 0 12 -7 15 -16z m-334 -58 c0 -3 -4 -8 -10 -11 -5 -3 -10 -1 -10 4
0 6 5 11 10 11 6 0 10 -2 10 -4z m45 -44 c-3 -3 -11 0 -18 7 -9 10 -8 11 6 5
10 -3 15 -9 12 -12z m-74 -47 c8 5 10 4 5 -3 -12 -19 -36 -14 -46 11 -9 19
-10 17 -7 -14 2 -29 -1 -35 -13 -32 -9 2 -22 14 -29 25 -11 18 -11 20 1 15 8
-3 15 1 15 9 0 7 -4 11 -9 8 -5 -4 -4 4 4 16 13 21 13 21 40 -11 16 -19 31
-28 39 -24z m24 25 c3 -5 1 -10 -4 -10 -6 0 -11 5 -11 10 0 6 2 10 4 10 3 0 8
-4 11 -10z m-125 -90 c0 8 3 11 6 7 3 -3 2 -12 -3 -21 -7 -13 -11 -12 -22 7
-13 20 -13 21 2 8 14 -11 17 -11 17 -1z m13045 -98 c-3 -3 -11 0 -18 7 -9 10
-8 11 6 5 10 -3 15 -9 12 -12z m-52 -327 c-3 -9 -8 -14 -10 -11 -3 3 -2 9 2
15 9 16 15 13 8 -4z m-242 -48 c-10 -9 -11 -8 -5 6 3 10 9 15 12 12 3 -3 0
-11 -7 -18z m-116 -187 c3 -5 1 -10 -4 -10 -6 0 -11 5 -11 10 0 6 2 10 4 10 3
0 8 -4 11 -10z m10 -30 c3 -5 1 -10 -4 -10 -6 0 -11 5 -11 10 0 6 2 10 4 10 3
0 8 -4 11 -10z m140 -380 c-3 -5 -1 -10 6 -10 7 0 10 -3 6 -6 -9 -9 -28 6 -22
17 4 5 8 9 11 9 3 0 2 -4 -1 -10z m-12085 -60 c0 -5 -5 -10 -11 -10 -5 0 -7 5
-4 10 3 6 8 10 11 10 2 0 4 -4 4 -10z m-186 -83 c-5 -14 -44 -41 -44 -30 0 8
33 42 42 42 4 1 5 -5 2 -12z m18 -25 c4 -12 -1 -18 -13 -19 -22 -2 -24 8 -7
25 15 15 15 15 20 -6z m12418 -18 c0 -8 -19 -13 -24 -6 -3 5 1 9 9 9 8 0 15
-2 15 -3z m17 -166 c-3 -8 -6 -5 -6 6 -1 11 2 17 5 13 3 -3 4 -12 1 -19z m58
-67 c-6 -5 -25 10 -25 20 0 5 6 4 14 -3 8 -7 12 -15 11 -17z m-62 -24 c-7 -13
-10 -13 -23 1 -13 14 -12 15 3 9 10 -4 17 -2 17 5 0 6 3 9 6 5 3 -3 2 -12 -3
-20z m-58 3 c3 -5 1 -10 -4 -10 -6 0 -11 5 -11 10 0 6 2 10 4 10 3 0 8 -4 11
-10z m95 -21 c-7 -11 -14 -18 -17 -15 -3 3 0 12 7 21 18 21 23 19 10 -6z
m-11840 -249 c0 -5 -2 -10 -4 -10 -3 0 -8 5 -11 10 -3 6 -1 10 4 10 6 0 11 -4
11 -10z m42 -7 c-6 -2 -9 -10 -6 -15 4 -7 2 -8 -5 -4 -13 9 -5 26 12 25 9 0 8
-2 -1 -6z m342 -89 c3 -8 2 -12 -4 -9 -6 3 -10 10 -10 16 0 14 7 11 14 -7z
m10336 -162 c0 -5 -7 -9 -15 -9 -8 0 -12 4 -9 9 3 4 9 8 15 8 5 0 9 -4 9 -8z
m-20 -37 c0 -8 -4 -15 -10 -15 -5 0 -10 7 -10 15 0 8 5 15 10 15 6 0 10 -7 10
-15z m-9965 -123 c-3 -3 -11 0 -18 7 -9 10 -8 11 6 5 10 -3 15 -9 12 -12z
m695 -62 c0 -5 -8 -10 -17 -10 -15 0 -16 2 -3 10 19 12 20 12 20 0z m490 -4
c0 -3 -4 -8 -10 -11 -5 -3 -10 -1 -10 4 0 6 5 11 10 11 6 0 10 -2 10 -4z
m9751 -3 c2 -12 2 -46 1 -66 -1 -10 -7 -15 -12 -12 -8 5 -7 11 1 21 9 11 8 15
-5 20 -12 5 -14 10 -6 19 5 6 7 15 3 18 -3 4 -1 7 5 7 7 0 13 -3 13 -7z
m-10656 -93 c3 -5 1 -10 -4 -10 -6 0 -11 5 -11 10 0 6 2 10 4 10 3 0 8 -4 11
-10z m2905 -20 c24 -15 7 -19 -25 -5 -23 10 -25 14 -10 14 11 0 27 -3 35 -9z
m4580 -60 c0 -5 -4 -10 -10 -10 -5 0 -10 5 -10 10 0 6 5 10 10 10 6 0 10 -4
10 -10z m2282 -47 c22 -19 24 -53 3 -53 -9 0 -12 6 -9 15 4 8 2 15 -4 15 -5 0
-12 9 -15 20 -6 24 1 25 25 3z m-1305 -69 c-3 -3 -12 -4 -19 -1 -8 3 -5 6 6 6
11 1 17 -2 13 -5z m903 -171 c23 -20 27 -38 5 -29 -8 3 -15 1 -15 -4 0 -16
-20 -12 -26 5 -6 15 1 45 11 45 2 0 14 -8 25 -17z m-2470 -217 c0 -3 -4 -8
-10 -11 -5 -3 -10 -1 -10 4 0 6 5 11 10 11 6 0 10 -2 10 -4z m-1 -122 c6 4 11
1 11 -6 0 -7 -11 -14 -25 -14 -14 -1 -25 4 -25 10 0 19 13 28 21 15 4 -6 12
-8 18 -5z m-79 -8 c0 -3 -4 -8 -10 -11 -5 -3 -10 -1 -10 4 0 6 5 11 10 11 6 0
10 -2 10 -4z"/>
<path d="M4562 9720 c0 -14 2 -19 5 -12 2 6 2 18 0 25 -3 6 -5 1 -5 -13z"/>
<path d="M10155 9680 c-3 -5 -13 -6 -22 -3 -10 4 -14 2 -11 -7 2 -7 16 -14 30
-16 21 -2 25 1 21 17 -6 21 -9 23 -18 9z"/>
<path d="M4376 9342 c-4 -6 2 -16 13 -21 14 -8 22 -7 32 6 12 15 12 16 -5 10
-11 -5 -22 -3 -26 4 -5 8 -10 8 -14 1z"/>
<path d="M4430 9310 c0 -5 5 -10 10 -10 6 0 10 5 10 10 0 6 -4 10 -10 10 -5 0
-10 -4 -10 -10z"/>
<path d="M4520 9280 c13 -9 13 -10 0 -11 -8 -1 -23 -1 -32 0 -11 2 -18 -5 -18
-16 0 -14 2 -15 9 -4 7 11 10 11 15 0 5 -11 7 -11 12 -1 3 6 10 12 15 12 6 0
7 -6 3 -12 -6 -10 -4 -10 8 0 11 9 18 10 23 2 3 -5 12 -10 18 -10 7 0 -1 12
-16 25 -15 14 -33 25 -40 25 -7 0 -6 -4 3 -10z"/>
<path d="M4907 9232 c-21 -23 -21 -29 -3 -48 11 -11 16 -11 19 -1 3 6 6 8 6 2
0 -5 -4 -17 -10 -25 -8 -11 -12 -12 -16 -2 -8 19 -44 15 -41 -5 2 -14 -3 -17
-22 -16 -22 2 -23 2 -5 -6 11 -5 25 -5 31 0 8 6 17 1 28 -16 15 -23 15 -25 -1
-25 -15 0 -15 -2 -4 -9 10 -7 19 -4 26 6 7 10 19 14 29 10 10 -4 16 -1 16 9 0
9 9 18 20 21 23 6 24 12 9 33 -9 12 -10 11 -4 -5 3 -11 3 -16 -1 -12 -4 4 -14
1 -23 -5 -13 -10 -14 -10 -3 2 19 22 16 51 -5 43 -10 -3 -15 -3 -11 2 4 4 0
14 -8 22 -8 9 -13 22 -10 29 7 19 2 18 -17 -4z m-2 -101 c-6 -5 -25 10 -25 20
0 5 6 4 14 -3 8 -7 12 -15 11 -17z"/>
<path d="M4470 9130 c-12 -8 -10 -10 8 -10 13 0 20 4 17 10 -7 12 -6 12 -25 0z"/>
<path d="M6395 8770 c3 -5 8 -10 11 -10 2 0 4 5 4 10 0 6 -5 10 -11 10 -5 0
-7 -4 -4 -10z"/>
<path d="M4365 8720 c3 -5 8 -10 11 -10 2 0 4 5 4 10 0 6 -5 10 -11 10 -5 0
-7 -4 -4 -10z"/>
<path d="M3877 8697 c-2 -7 5 -21 16 -32 20 -20 20 -20 8 2 -8 16 -8 22 1 25
8 3 6 7 -4 11 -9 3 -18 0 -21 -6z"/>
<path d="M4317 8694 c6 -17 31 -26 38 -14 4 6 14 6 28 -1 20 -10 21 -10 7 5
-20 20 -81 29 -73 10z"/>
<path d="M4274 8675 c3 -8 1 -15 -4 -15 -16 0 -32 -38 -18 -46 6 -4 8 -3 5 3
-4 6 2 18 13 28 18 17 25 14 21 -9 -1 -5 4 -4 11 2 8 6 23 9 35 6 12 -4 22 0
26 8 3 10 -2 14 -16 13 -12 -1 -25 2 -28 7 -3 5 -16 10 -28 13 -17 3 -21 0
-17 -10z m31 -5 c3 -5 1 -10 -4 -10 -6 0 -11 5 -11 10 0 6 2 10 4 10 3 0 8 -4
11 -10z"/>
<path d="M4315 8630 c-3 -5 -1 -10 4 -10 6 0 11 5 11 10 0 6 -2 10 -4 10 -3 0
-8 -4 -11 -10z"/>
<path d="M4287 8600 c9 -11 19 -17 21 -15 6 6 -18 35 -29 35 -5 0 -1 -9 8 -20z"/>
<path d="M4430 8595 c-9 -10 -9 -15 -1 -15 6 0 11 5 11 11 0 5 5 7 10 4 8 -5
7 -11 -1 -21 -8 -10 -8 -14 0 -14 6 0 11 5 11 11 0 8 5 7 15 -1 17 -14 31 -8
20 9 -3 6 -11 9 -16 6 -5 -4 -12 1 -15 9 -8 20 -18 20 -34 1z"/>
<path d="M5576 8591 c-3 -5 -15 -7 -26 -4 -12 3 -20 0 -20 -7 0 -6 -8 -9 -19
-5 -10 3 -24 -1 -31 -10 -7 -8 -19 -15 -27 -15 -16 0 -63 -44 -63 -60 0 -5 6
-10 13 -10 6 0 12 -11 12 -24 0 -14 -5 -22 -12 -19 -9 3 -8 -9 2 -46 7 -28 9
-49 4 -45 -5 3 -9 15 -9 26 0 26 -13 15 -15 -12 -1 -15 7 -21 32 -26 18 -3 36
-11 40 -17 4 -6 1 -7 -7 -2 -9 5 -11 4 -6 -4 6 -9 13 -9 31 3 21 14 24 13 41
-9 18 -24 51 -45 39 -25 -3 6 1 10 9 10 14 0 20 -12 17 -32 0 -5 5 -8 12 -9 6
-1 1 -5 -13 -9 -23 -8 -22 -8 8 -7 22 1 31 5 28 14 -7 16 6 17 22 1 9 -9 12
-9 12 1 0 7 4 10 9 7 32 -20 82 59 58 91 -5 7 -6 16 -3 21 9 15 -28 8 -40 -7
-9 -12 -12 -11 -17 2 -6 15 20 30 56 30 9 0 17 4 17 10 0 6 11 20 25 32 24 20
24 20 5 43 -20 25 -80 48 -80 31 0 -11 -45 -7 -57 5 -4 4 0 12 10 17 15 9 14
12 -11 35 -15 14 -21 22 -13 18 9 -5 12 -3 7 4 -9 14 -33 16 -40 3z"/>
<path d="M4335 8579 c-4 -6 -5 -12 -2 -15 2 -3 7 2 10 11 7 17 1 20 -8 4z"/>
<path d="M6912 8581 c-11 -7 -11 -9 0 -14 9 -3 15 1 15 9 0 8 -1 14 -1 14 -1
0 -7 -4 -14 -9z"/>
<path d="M6957 8567 c-3 -8 1 -14 9 -14 8 0 14 6 14 14 0 7 -4 13 -9 13 -5 0
-11 -6 -14 -13z"/>
<path d="M4285 8530 c-3 -5 -1 -10 4 -10 6 0 11 5 11 10 0 6 -2 10 -4 10 -3 0
-8 -4 -11 -10z"/>
<path d="M4200 8509 c0 -5 5 -7 10 -4 6 3 10 8 10 11 0 2 -4 4 -10 4 -5 0 -10
-5 -10 -11z"/>
<path d="M14306 8452 c-3 -5 1 -9 9 -9 8 0 12 4 9 9 -3 4 -7 8 -9 8 -2 0 -6
-4 -9 -8z"/>
<path d="M4836 8275 c4 -8 8 -15 10 -15 2 0 4 7 4 15 0 8 -4 15 -10 15 -5 0
-7 -7 -4 -15z"/>
<path d="M4785 8200 c-5 -9 -4 -11 3 -6 8 5 12 0 12 -13 0 -25 15 -28 24 -4 4
10 4 14 0 10 -4 -4 -12 1 -19 10 -9 13 -14 13 -20 3z"/>
<path d="M14420 8190 c0 -6 4 -9 9 -6 5 4 12 1 14 -4 3 -6 4 -5 3 2 -3 15 -26
23 -26 8z"/>
<path d="M4780 8160 c6 -11 15 -20 20 -20 6 0 2 9 -7 20 -10 11 -19 20 -21 20
-1 0 2 -9 8 -20z"/>
<path d="M14464 8169 c-3 -6 -1 -16 5 -22 8 -8 11 -5 11 11 0 24 -5 28 -16 11z"/>
<path d="M4754 7909 c-9 -11 -14 -22 -11 -26 4 -3 7 -1 7 7 0 10 3 10 16 -1
15 -12 16 -11 10 11 -6 23 -6 23 7 8 17 -22 27 -23 27 -4 0 22 -37 26 -56 5z"/>
<path d="M4842 7543 c14 -17 25 -16 31 1 4 10 -2 13 -18 12 -17 -1 -21 -4 -13
-13z"/>
<path d="M14487 7539 c7 -7 15 -10 18 -7 3 3 -2 9 -12 12 -14 6 -15 5 -6 -5z"/>
<path d="M14450 7430 c0 -5 5 -10 11 -10 5 0 7 5 4 10 -3 6 -8 10 -11 10 -2 0
-4 -4 -4 -10z"/>
<path d="M14450 7401 c0 -6 4 -13 10 -16 6 -3 7 1 4 9 -7 18 -14 21 -14 7z"/>
<path d="M14360 7039 c0 -5 5 -7 10 -4 6 3 10 8 10 11 0 2 -4 4 -10 4 -5 0
-10 -5 -10 -11z"/>
<path d="M1855 6930 c-3 -5 -2 -10 4 -10 5 0 13 5 16 10 3 6 2 10 -4 10 -5 0
-13 -4 -16 -10z"/>
<path d="M14327 6903 c-4 -3 -7 -11 -7 -17 0 -6 5 -5 12 2 6 6 9 14 7 17 -3 3
-9 2 -12 -2z"/>
<path d="M1820 6889 c0 -5 5 -7 10 -4 6 3 10 8 10 11 0 2 -4 4 -10 4 -5 0 -10
-5 -10 -11z"/>
<path d="M1855 6879 c-11 -16 -1 -19 13 -3 7 8 8 14 3 14 -5 0 -13 -5 -16 -11z"/>
<path d="M14240 6765 c0 -8 4 -15 10 -15 5 0 7 7 4 15 -4 8 -8 15 -10 15 -2 0
-4 -7 -4 -15z"/>
<path d="M14211 6717 c2 -1 13 -9 24 -17 19 -14 19 -14 6 3 -7 9 -18 17 -24
17 -6 0 -8 -1 -6 -3z"/>
<path d="M13860 6381 c0 -5 5 -13 10 -16 6 -3 10 -2 10 4 0 5 -4 13 -10 16 -5
3 -10 2 -10 -4z"/>
<path d="M1905 6190 c-4 -6 -14 -9 -23 -5 -13 5 -12 2 3 -15 10 -11 14 -20 9
-20 -5 0 -2 -4 6 -10 8 -5 12 -12 8 -15 -4 -4 -17 5 -29 19 -30 34 -44 33 -45
-4 -1 -17 3 -30 8 -30 5 0 7 -4 4 -9 -3 -5 1 -12 9 -15 19 -7 31 -4 27 8 -1 4
8 6 22 2 23 -6 25 -3 23 23 -1 16 -5 27 -8 25 -4 -2 -10 4 -13 13 -4 9 -1 20
6 24 7 4 10 11 6 14 -3 4 -9 1 -13 -5z"/>
<path d="M890 6106 c0 -2 7 -9 15 -16 9 -7 15 -8 15 -2 0 5 -7 12 -15 16 -8 3
-15 4 -15 2z"/>
<path d="M4656 5901 c-3 -5 1 -11 9 -14 9 -4 12 -1 8 9 -6 16 -10 17 -17 5z"/>
<path d="M4360 5880 c0 -5 7 -7 15 -4 8 4 15 8 15 10 0 2 -7 4 -15 4 -8 0 -15
-4 -15 -10z"/>
<path d="M4450 5856 c0 -2 7 -7 16 -10 8 -3 12 -2 9 4 -6 10 -25 14 -25 6z"/>
<path d="M4420 5835 c0 -8 -4 -15 -10 -15 -5 0 -10 5 -10 10 0 6 -11 3 -25 -6
-15 -9 -25 -12 -25 -5 0 5 -7 8 -15 5 -20 -8 -19 -22 3 -42 9 -10 13 -14 8 -9
-6 4 -19 7 -30 7 -20 -1 -20 -1 -3 -14 15 -12 15 -15 2 -26 -8 -7 -15 -18 -15
-24 0 -6 5 -4 11 4 8 12 10 9 6 -12 -5 -32 7 -37 22 -10 10 16 12 16 24 0 9
-11 17 -14 23 -8 16 16 54 0 46 -18 -5 -15 -4 -15 11 -3 9 7 17 10 17 5 0 -4
5 -3 12 4 7 7 17 8 30 1 12 -6 25 -6 39 1 26 14 21 46 -6 41 -20 -3 -20 -3 -1
18 16 17 17 21 4 16 -13 -5 -15 -2 -11 14 3 12 1 21 -6 21 -6 0 -11 -8 -11
-17 0 -14 -2 -15 -9 -5 -4 7 -12 12 -17 11 -24 -4 -26 3 -5 17 17 12 20 19 11
28 -8 8 -15 6 -26 -8 -13 -18 -14 -18 -14 -2 0 9 -4 14 -10 11 -6 -3 -7 1 -4
9 3 9 1 16 -5 16 -6 0 -11 -7 -11 -15z m73 -81 c16 -6 11 -44 -5 -44 -6 0 -8
9 -5 21 4 16 3 18 -9 8 -7 -6 -12 -14 -10 -18 3 -4 2 -12 -2 -18 -4 -6 -16 -1
-32 14 -15 14 -19 22 -9 18 10 -4 23 0 30 9 16 17 21 18 42 10z"/>
<path d="M4579 5848 c-6 -12 -4 -48 2 -48 5 0 6 -7 3 -15 -5 -11 -2 -13 10 -9
18 7 21 21 6 26 -6 2 -12 13 -13 26 -1 19 -4 27 -8 20z"/>
<path d="M4540 5785 c0 -8 4 -15 10 -15 5 0 7 7 4 15 -4 8 -8 15 -10 15 -2 0
-4 -7 -4 -15z"/>
<path d="M4265 5780 c-3 -5 -2 -10 4 -10 5 0 13 5 16 10 3 6 2 10 -4 10 -5 0
-13 -4 -16 -10z"/>
<path d="M4275 5690 c-3 -6 1 -7 9 -4 18 7 21 14 7 14 -6 0 -13 -4 -16 -10z"/>
<path d="M4402 5676 c7 -8 15 -12 17 -11 5 6 -10 25 -20 25 -5 0 -4 -6 3 -14z"/>
<path d="M4370 5660 c0 -12 28 -25 36 -17 3 3 -4 10 -15 17 -15 7 -21 7 -21 0z"/>
<path d="M4340 5639 c0 -5 5 -7 10 -4 6 3 10 8 10 11 0 2 -4 4 -10 4 -5 0 -10
-5 -10 -11z"/>
<path d="M15000 5486 c0 -2 7 -7 16 -10 8 -3 12 -2 9 4 -6 10 -25 14 -25 6z"/>
<path d="M2585 5240 c-3 -5 -1 -10 4 -10 6 0 11 5 11 10 0 6 -2 10 -4 10 -3 0
-8 -4 -11 -10z"/>
<path d="M2480 5221 c0 -5 7 -11 14 -14 10 -4 13 -1 9 9 -6 15 -23 19 -23 5z"/>
<path d="M2532 5176 c7 -8 15 -12 17 -11 5 6 -10 25 -20 25 -5 0 -4 -6 3 -14z"/>
<path d="M15137 4626 c-3 -6 4 -13 14 -13 22 -2 25 12 5 20 -8 3 -16 0 -19 -7z"/>
<path d="M15100 4506 c0 -2 9 -6 20 -9 11 -3 20 -1 20 4 0 5 -9 9 -20 9 -11 0
-20 -2 -20 -4z"/>
<path d="M15053 4451 c4 -19 2 -31 -6 -34 -7 -2 0 -4 15 -3 15 0 30 6 32 12 2
6 -3 11 -12 10 -12 -1 -16 6 -15 22 2 12 -2 22 -8 22 -7 0 -9 -11 -6 -29z"/>
<path d="M2835 4430 c4 -6 11 -8 16 -5 14 9 11 15 -7 15 -8 0 -12 -5 -9 -10z"/>
<path d="M14970 4390 c0 -5 5 -10 11 -10 5 0 7 5 4 10 -3 6 -8 10 -11 10 -2 0
-4 -4 -4 -10z"/>
<path d="M14930 4369 c0 -5 5 -7 10 -4 6 3 10 8 10 11 0 2 -4 4 -10 4 -5 0
-10 -5 -10 -11z"/>
<path d="M15030 4376 c0 -2 7 -6 15 -10 8 -3 15 -1 15 4 0 6 -7 10 -15 10 -8
0 -15 -2 -15 -4z"/>
<path d="M14955 4360 c-3 -5 1 -10 9 -10 9 0 16 5 16 10 0 6 -4 10 -9 10 -6 0
-13 -4 -16 -10z"/>
<path d="M2810 4320 c0 -5 5 -10 11 -10 5 0 7 5 4 10 -3 6 -8 10 -11 10 -2 0
-4 -4 -4 -10z"/>
<path d="M14876 4308 c3 -5 10 -6 15 -3 13 9 11 12 -6 12 -8 0 -12 -4 -9 -9z"/>
<path d="M15140 4310 c0 -5 5 -10 10 -10 6 0 10 5 10 10 0 6 -4 10 -10 10 -5
0 -10 -4 -10 -10z"/>
<path d="M3133 3549 c6 -17 -28 -43 -43 -34 -6 4 -13 0 -16 -9 -3 -8 -13 -12
-22 -9 -14 4 -15 3 -2 -6 8 -5 11 -13 7 -17 -4 -4 -17 1 -29 12 -23 19 -23 19
-5 -2 17 -21 14 -34 -9 -34 -8 0 -11 6 -8 15 5 11 2 13 -10 9 -18 -7 -22 -24
-5 -24 7 0 9 -10 7 -25 -4 -19 -2 -23 7 -15 6 5 16 6 21 2 4 -4 2 2 -6 12 -14
18 -14 19 9 6 21 -11 23 -10 18 4 -4 9 -2 16 3 16 13 0 13 -37 1 -42 -5 -1 -3
-9 5 -16 9 -8 14 -9 14 -2 0 6 6 8 13 4 8 -5 7 -2 -2 9 -12 15 -12 17 1 12 9
-4 15 0 15 9 0 8 -4 13 -8 11 -9 -6 -20 35 -13 47 3 5 12 3 21 -3 12 -10 16
-10 24 2 7 12 9 12 9 -1 0 -8 7 -2 15 13 13 26 13 31 -1 50 -9 12 -14 15 -11
6z"/>
<path d="M2916 3392 c-8 -13 11 -35 23 -28 6 4 11 11 11 16 0 11 -28 21 -34
12z"/>
<path d="M15025 3371 c-3 -5 -2 -12 3 -15 5 -3 9 1 9 9 0 17 -3 19 -12 6z"/>
<path d="M15020 3265 c-7 -9 -11 -17 -9 -20 3 -2 10 5 17 15 14 24 10 26 -8 5z"/>
<path d="M15040 3219 c0 -5 5 -7 10 -4 6 3 10 8 10 11 0 2 -4 4 -10 4 -5 0
-10 -5 -10 -11z"/>
<path d="M15035 3170 c-3 -6 1 -7 9 -4 18 7 21 14 7 14 -6 0 -13 -4 -16 -10z"/>
<path d="M15097 3123 c-4 -3 -7 -11 -7 -17 0 -6 5 -5 12 2 6 6 9 14 7 17 -3 3
-9 2 -12 -2z"/>
<path d="M3400 3110 c-12 -7 -10 -9 7 -7 12 0 19 5 17 9 -6 10 -6 10 -24 -2z"/>
<path d="M3395 3060 c-3 -5 -1 -10 4 -10 6 0 11 5 11 10 0 6 -2 10 -4 10 -3 0
-8 -4 -11 -10z"/>
<path d="M13695 2790 c-3 -5 -1 -10 4 -10 6 0 11 5 11 10 0 6 -2 10 -4 10 -3
0 -8 -4 -11 -10z"/>
<path d="M15026 2792 c-3 -6 -1 -14 5 -17 15 -10 25 3 12 16 -7 7 -13 7 -17 1z"/>
<path d="M13928 2683 c7 -3 16 -2 19 1 4 3 -2 6 -13 5 -11 0 -14 -3 -6 -6z"/>
<path d="M14295 2552 c1 -21 24 -62 25 -45 0 6 -4 14 -10 18 -5 3 -7 12 -4 19
3 8 1 16 -4 20 -5 3 -8 -3 -7 -12z"/>
<path d="M5650 2530 c0 -11 4 -20 9 -20 5 0 11 9 14 20 3 13 0 20 -9 20 -8 0
-14 -9 -14 -20z"/>
<path d="M7190 2510 c-9 -6 -10 -10 -3 -10 6 0 15 5 18 10 8 12 4 12 -15 0z"/>
<path d="M5580 2470 c0 -5 5 -10 11 -10 5 0 7 5 4 10 -3 6 -8 10 -11 10 -2 0
-4 -4 -4 -10z"/>
<path d="M14315 2460 c3 -5 8 -10 11 -10 2 0 4 5 4 10 0 6 -5 10 -11 10 -5 0
-7 -4 -4 -10z"/>
<path d="M11935 2120 c3 -5 8 -10 11 -10 2 0 4 5 4 10 0 6 -5 10 -11 10 -5 0
-7 -4 -4 -10z"/>
<path d="M13055 2110 c-3 -5 -1 -10 4 -10 6 0 11 5 11 10 0 6 -2 10 -4 10 -3
0 -8 -4 -11 -10z"/>
<path d="M13156 2095 c4 -8 10 -15 15 -15 4 0 6 7 3 15 -4 8 -10 15 -15 15 -4
0 -6 -7 -3 -15z"/>
<path d="M1034 8814 c-18 -14 -18 -15 4 -4 12 6 22 13 22 15 0 8 -5 6 -26 -11z"/>
<path d="M1426 8822 c-3 -6 -1 -14 5 -17 15 -10 25 3 12 16 -7 7 -13 7 -17 1z"/>
<path d="M897 8801 c3 -12 9 -21 14 -21 14 0 11 16 -5 29 -12 10 -13 8 -9 -8z"/>
<path d="M1030 8760 c0 -5 5 -10 10 -10 6 0 10 5 10 10 0 6 -4 10 -10 10 -5 0
-10 -4 -10 -10z"/>
<path d="M935 8680 c3 -5 8 -10 11 -10 2 0 4 5 4 10 0 6 -5 10 -11 10 -5 0 -7
-4 -4 -10z"/>
</g>
</svg>
